solid RECHTECK_DIREKT
  facet normal -1.000000e+00 0.000000e+00 0.000000e+00
    outer loop
      vertex 0.000000e+00 7.000000e+01 -5.000000e+00
      vertex 0.000000e+00 7.000000e+01 5.000000e+00
      vertex 0.000000e+00 7.500000e+01 5.000000e+00
    endloop
  endfacet
  facet normal 0.000000e+00 0.000000e+00 1.000000e+00
    outer loop
      vertex 4.000000e+00 7.500000e+01 5.000000e+00
      vertex 0.000000e+00 7.500000e+01 5.000000e+00
      vertex 0.000000e+00 7.000000e+01 5.000000e+00
    endloop
  endfacet
  facet normal -1.000000e+00 0.000000e+00 0.000000e+00
    outer loop
      vertex 0.000000e+00 7.500000e+01 -9.325873e-15
      vertex 0.000000e+00 7.000000e+01 -5.000000e+00
      vertex 0.000000e+00 7.500000e+01 5.000000e+00
    endloop
  endfacet
  facet normal 0.000000e+00 1.000000e+00 0.000000e+00
    outer loop
      vertex 4.000000e+00 7.500000e+01 -9.325873e-15
      vertex 0.000000e+00 7.500000e+01 -9.325873e-15
      vertex 0.000000e+00 7.500000e+01 5.000000e+00
    endloop
  endfacet
  facet normal 0.000000e+00 1.000000e+00 0.000000e+00
    outer loop
      vertex 4.000000e+00 7.500000e+01 -9.325873e-15
      vertex 0.000000e+00 7.500000e+01 5.000000e+00
      vertex 4.000000e+00 7.500000e+01 5.000000e+00
    endloop
  endfacet
  facet normal -1.000000e+00 0.000000e+00 0.000000e+00
    outer loop
      vertex 0.000000e+00 6.500000e+01 -5.000000e+00
      vertex 0.000000e+00 6.500000e+01 5.000000e+00
      vertex 0.000000e+00 7.000000e+01 5.000000e+00
    endloop
  endfacet
  facet normal 0.000000e+00 0.000000e+00 1.000000e+00
    outer loop
      vertex 4.000000e+00 7.000000e+01 5.000000e+00
      vertex 0.000000e+00 7.000000e+01 5.000000e+00
      vertex 0.000000e+00 6.500000e+01 5.000000e+00
    endloop
  endfacet
  facet normal -1.000000e+00 0.000000e+00 0.000000e+00
    outer loop
      vertex 0.000000e+00 7.000000e+01 -5.000000e+00
      vertex 0.000000e+00 6.500000e+01 -5.000000e+00
      vertex 0.000000e+00 7.000000e+01 5.000000e+00
    endloop
  endfacet
  facet normal 0.000000e+00 0.000000e+00 1.000000e+00
    outer loop
      vertex 4.000000e+00 7.000000e+01 5.000000e+00
      vertex 4.000000e+00 7.500000e+01 5.000000e+00
      vertex 0.000000e+00 7.000000e+01 5.000000e+00
    endloop
  endfacet
  facet normal -1.000000e+00 0.000000e+00 0.000000e+00
    outer loop
      vertex 0.000000e+00 6.000000e+01 -5.000000e+00
      vertex 0.000000e+00 6.000000e+01 5.000000e+00
      vertex 0.000000e+00 6.500000e+01 5.000000e+00
    endloop
  endfacet
  facet normal 0.000000e+00 0.000000e+00 1.000000e+00
    outer loop
      vertex 4.000000e+00 6.500000e+01 5.000000e+00
      vertex 0.000000e+00 6.500000e+01 5.000000e+00
      vertex 0.000000e+00 6.000000e+01 5.000000e+00
    endloop
  endfacet
  facet normal -1.000000e+00 0.000000e+00 0.000000e+00
    outer loop
      vertex 0.000000e+00 6.500000e+01 -5.000000e+00
      vertex 0.000000e+00 6.000000e+01 -5.000000e+00
      vertex 0.000000e+00 6.500000e+01 5.000000e+00
    endloop
  endfacet
  facet normal 0.000000e+00 0.000000e+00 1.000000e+00
    outer loop
      vertex 4.000000e+00 7.000000e+01 5.000000e+00
      vertex 0.000000e+00 6.500000e+01 5.000000e+00
      vertex 4.000000e+00 6.500000e+01 5.000000e+00
    endloop
  endfacet
  facet normal -1.000000e+00 0.000000e+00 0.000000e+00
    outer loop
      vertex 0.000000e+00 5.500000e+01 -5.000000e+00
      vertex 0.000000e+00 5.500000e+01 5.000000e+00
      vertex 0.000000e+00 6.000000e+01 5.000000e+00
    endloop
  endfacet
  facet normal 0.000000e+00 0.000000e+00 1.000000e+00
    outer loop
      vertex 4.000000e+00 6.000000e+01 5.000000e+00
      vertex 0.000000e+00 6.000000e+01 5.000000e+00
      vertex 0.000000e+00 5.500000e+01 5.000000e+00
    endloop
  endfacet
  facet normal -1.000000e+00 0.000000e+00 0.000000e+00
    outer loop
      vertex 0.000000e+00 6.000000e+01 -5.000000e+00
      vertex 0.000000e+00 5.500000e+01 -5.000000e+00
      vertex 0.000000e+00 6.000000e+01 5.000000e+00
    endloop
  endfacet
  facet normal 0.000000e+00 0.000000e+00 1.000000e+00
    outer loop
      vertex 4.000000e+00 6.500000e+01 5.000000e+00
      vertex 0.000000e+00 6.000000e+01 5.000000e+00
      vertex 4.000000e+00 6.000000e+01 5.000000e+00
    endloop
  endfacet
  facet normal -1.000000e+00 0.000000e+00 0.000000e+00
    outer loop
      vertex 0.000000e+00 5.000000e+01 -5.000000e+00
      vertex 0.000000e+00 5.000000e+01 5.000000e+00
      vertex 0.000000e+00 5.500000e+01 5.000000e+00
    endloop
  endfacet
  facet normal 0.000000e+00 0.000000e+00 1.000000e+00
    outer loop
      vertex 4.000000e+00 5.500000e+01 5.000000e+00
      vertex 0.000000e+00 5.500000e+01 5.000000e+00
      vertex 0.000000e+00 5.000000e+01 5.000000e+00
    endloop
  endfacet
  facet normal -1.000000e+00 0.000000e+00 0.000000e+00
    outer loop
      vertex 0.000000e+00 5.500000e+01 -5.000000e+00
      vertex 0.000000e+00 5.000000e+01 -5.000000e+00
      vertex 0.000000e+00 5.500000e+01 5.000000e+00
    endloop
  endfacet
  facet normal 0.000000e+00 0.000000e+00 1.000000e+00
    outer loop
      vertex 4.000000e+00 6.000000e+01 5.000000e+00
      vertex 0.000000e+00 5.500000e+01 5.000000e+00
      vertex 4.000000e+00 5.500000e+01 5.000000e+00
    endloop
  endfacet
  facet normal -1.000000e+00 0.000000e+00 0.000000e+00
    outer loop
      vertex 0.000000e+00 4.500000e+01 -5.000000e+00
      vertex 0.000000e+00 4.500000e+01 5.000000e+00
      vertex 0.000000e+00 5.000000e+01 5.000000e+00
    endloop
  endfacet
  facet normal 0.000000e+00 0.000000e+00 1.000000e+00
    outer loop
      vertex 4.000000e+00 5.000000e+01 5.000000e+00
      vertex 0.000000e+00 5.000000e+01 5.000000e+00
      vertex 0.000000e+00 4.500000e+01 5.000000e+00
    endloop
  endfacet
  facet normal -1.000000e+00 0.000000e+00 0.000000e+00
    outer loop
      vertex 0.000000e+00 5.000000e+01 -5.000000e+00
      vertex 0.000000e+00 4.500000e+01 -5.000000e+00
      vertex 0.000000e+00 5.000000e+01 5.000000e+00
    endloop
  endfacet
  facet normal 0.000000e+00 0.000000e+00 1.000000e+00
    outer loop
      vertex 4.000000e+00 5.500000e+01 5.000000e+00
      vertex 0.000000e+00 5.000000e+01 5.000000e+00
      vertex 4.000000e+00 5.000000e+01 5.000000e+00
    endloop
  endfacet
  facet normal -1.000000e+00 0.000000e+00 0.000000e+00
    outer loop
      vertex 0.000000e+00 4.000000e+01 -5.000000e+00
      vertex 0.000000e+00 4.000000e+01 5.000000e+00
      vertex 0.000000e+00 4.500000e+01 5.000000e+00
    endloop
  endfacet
  facet normal 0.000000e+00 0.000000e+00 1.000000e+00
    outer loop
      vertex 4.000000e+00 4.500000e+01 5.000000e+00
      vertex 0.000000e+00 4.500000e+01 5.000000e+00
      vertex 0.000000e+00 4.000000e+01 5.000000e+00
    endloop
  endfacet
  facet normal -1.000000e+00 0.000000e+00 0.000000e+00
    outer loop
      vertex 0.000000e+00 4.500000e+01 -5.000000e+00
      vertex 0.000000e+00 4.000000e+01 -5.000000e+00
      vertex 0.000000e+00 4.500000e+01 5.000000e+00
    endloop
  endfacet
  facet normal 0.000000e+00 0.000000e+00 1.000000e+00
    outer loop
      vertex 4.000000e+00 5.000000e+01 5.000000e+00
      vertex 0.000000e+00 4.500000e+01 5.000000e+00
      vertex 4.000000e+00 4.500000e+01 5.000000e+00
    endloop
  endfacet
  facet normal -1.000000e+00 0.000000e+00 0.000000e+00
    outer loop
      vertex 0.000000e+00 3.500000e+01 -5.000000e+00
      vertex 0.000000e+00 3.500000e+01 5.000000e+00
      vertex 0.000000e+00 4.000000e+01 5.000000e+00
    endloop
  endfacet
  facet normal 0.000000e+00 0.000000e+00 1.000000e+00
    outer loop
      vertex 4.000000e+00 4.000000e+01 5.000000e+00
      vertex 0.000000e+00 4.000000e+01 5.000000e+00
      vertex 0.000000e+00 3.500000e+01 5.000000e+00
    endloop
  endfacet
  facet normal -1.000000e+00 0.000000e+00 0.000000e+00
    outer loop
      vertex 0.000000e+00 4.000000e+01 -5.000000e+00
      vertex 0.000000e+00 3.500000e+01 -5.000000e+00
      vertex 0.000000e+00 4.000000e+01 5.000000e+00
    endloop
  endfacet
  facet normal 0.000000e+00 0.000000e+00 1.000000e+00
    outer loop
      vertex 4.000000e+00 4.500000e+01 5.000000e+00
      vertex 0.000000e+00 4.000000e+01 5.000000e+00
      vertex 4.000000e+00 4.000000e+01 5.000000e+00
    endloop
  endfacet
  facet normal -1.000000e+00 0.000000e+00 0.000000e+00
    outer loop
      vertex 0.000000e+00 3.000000e+01 -5.000000e+00
      vertex 0.000000e+00 3.000000e+01 5.000000e+00
      vertex 0.000000e+00 3.500000e+01 5.000000e+00
    endloop
  endfacet
  facet normal 0.000000e+00 0.000000e+00 1.000000e+00
    outer loop
      vertex 4.000000e+00 3.500000e+01 5.000000e+00
      vertex 0.000000e+00 3.500000e+01 5.000000e+00
      vertex 0.000000e+00 3.000000e+01 5.000000e+00
    endloop
  endfacet
  facet normal -1.000000e+00 0.000000e+00 0.000000e+00
    outer loop
      vertex 0.000000e+00 3.500000e+01 -5.000000e+00
      vertex 0.000000e+00 3.000000e+01 -5.000000e+00
      vertex 0.000000e+00 3.500000e+01 5.000000e+00
    endloop
  endfacet
  facet normal 0.000000e+00 0.000000e+00 1.000000e+00
    outer loop
      vertex 4.000000e+00 4.000000e+01 5.000000e+00
      vertex 0.000000e+00 3.500000e+01 5.000000e+00
      vertex 4.000000e+00 3.500000e+01 5.000000e+00
    endloop
  endfacet
  facet normal -1.000000e+00 0.000000e+00 0.000000e+00
    outer loop
      vertex 0.000000e+00 2.500000e+01 -5.000000e+00
      vertex 0.000000e+00 2.500000e+01 5.000000e+00
      vertex 0.000000e+00 3.000000e+01 5.000000e+00
    endloop
  endfacet
  facet normal 0.000000e+00 0.000000e+00 1.000000e+00
    outer loop
      vertex 4.000000e+00 3.000000e+01 5.000000e+00
      vertex 0.000000e+00 3.000000e+01 5.000000e+00
      vertex 0.000000e+00 2.500000e+01 5.000000e+00
    endloop
  endfacet
  facet normal -1.000000e+00 0.000000e+00 0.000000e+00
    outer loop
      vertex 0.000000e+00 3.000000e+01 -5.000000e+00
      vertex 0.000000e+00 2.500000e+01 -5.000000e+00
      vertex 0.000000e+00 3.000000e+01 5.000000e+00
    endloop
  endfacet
  facet normal 0.000000e+00 0.000000e+00 1.000000e+00
    outer loop
      vertex 4.000000e+00 3.500000e+01 5.000000e+00
      vertex 0.000000e+00 3.000000e+01 5.000000e+00
      vertex 4.000000e+00 3.000000e+01 5.000000e+00
    endloop
  endfacet
  facet normal -1.000000e+00 0.000000e+00 0.000000e+00
    outer loop
      vertex 0.000000e+00 2.000000e+01 -5.000000e+00
      vertex 0.000000e+00 2.000000e+01 5.000000e+00
      vertex 0.000000e+00 2.500000e+01 5.000000e+00
    endloop
  endfacet
  facet normal 0.000000e+00 0.000000e+00 1.000000e+00
    outer loop
      vertex 4.000000e+00 2.500000e+01 5.000000e+00
      vertex 0.000000e+00 2.500000e+01 5.000000e+00
      vertex 0.000000e+00 2.000000e+01 5.000000e+00
    endloop
  endfacet
  facet normal -1.000000e+00 0.000000e+00 0.000000e+00
    outer loop
      vertex 0.000000e+00 2.500000e+01 -5.000000e+00
      vertex 0.000000e+00 2.000000e+01 -5.000000e+00
      vertex 0.000000e+00 2.500000e+01 5.000000e+00
    endloop
  endfacet
  facet normal 0.000000e+00 0.000000e+00 1.000000e+00
    outer loop
      vertex 4.000000e+00 3.000000e+01 5.000000e+00
      vertex 0.000000e+00 2.500000e+01 5.000000e+00
      vertex 4.000000e+00 2.500000e+01 5.000000e+00
    endloop
  endfacet
  facet normal -1.000000e+00 0.000000e+00 0.000000e+00
    outer loop
      vertex 0.000000e+00 1.500000e+01 -5.000000e+00
      vertex 0.000000e+00 1.500000e+01 5.000000e+00
      vertex 0.000000e+00 2.000000e+01 5.000000e+00
    endloop
  endfacet
  facet normal 0.000000e+00 0.000000e+00 1.000000e+00
    outer loop
      vertex 4.000000e+00 2.000000e+01 5.000000e+00
      vertex 0.000000e+00 2.000000e+01 5.000000e+00
      vertex 0.000000e+00 1.500000e+01 5.000000e+00
    endloop
  endfacet
  facet normal -1.000000e+00 0.000000e+00 0.000000e+00
    outer loop
      vertex 0.000000e+00 2.000000e+01 -5.000000e+00
      vertex 0.000000e+00 1.500000e+01 -5.000000e+00
      vertex 0.000000e+00 2.000000e+01 5.000000e+00
    endloop
  endfacet
  facet normal 0.000000e+00 0.000000e+00 1.000000e+00
    outer loop
      vertex 4.000000e+00 2.500000e+01 5.000000e+00
      vertex 0.000000e+00 2.000000e+01 5.000000e+00
      vertex 4.000000e+00 2.000000e+01 5.000000e+00
    endloop
  endfacet
  facet normal -1.000000e+00 0.000000e+00 0.000000e+00
    outer loop
      vertex 0.000000e+00 1.000000e+01 -5.000000e+00
      vertex 0.000000e+00 1.000000e+01 5.000000e+00
      vertex 0.000000e+00 1.500000e+01 5.000000e+00
    endloop
  endfacet
  facet normal 0.000000e+00 0.000000e+00 1.000000e+00
    outer loop
      vertex 4.000000e+00 1.500000e+01 5.000000e+00
      vertex 0.000000e+00 1.500000e+01 5.000000e+00
      vertex 0.000000e+00 1.000000e+01 5.000000e+00
    endloop
  endfacet
  facet normal -1.000000e+00 0.000000e+00 0.000000e+00
    outer loop
      vertex 0.000000e+00 1.500000e+01 -5.000000e+00
      vertex 0.000000e+00 1.000000e+01 -5.000000e+00
      vertex 0.000000e+00 1.500000e+01 5.000000e+00
    endloop
  endfacet
  facet normal 0.000000e+00 0.000000e+00 1.000000e+00
    outer loop
      vertex 4.000000e+00 2.000000e+01 5.000000e+00
      vertex 0.000000e+00 1.500000e+01 5.000000e+00
      vertex 4.000000e+00 1.500000e+01 5.000000e+00
    endloop
  endfacet
  facet normal -1.000000e+00 0.000000e+00 0.000000e+00
    outer loop
      vertex 0.000000e+00 5.000000e+00 -5.000000e+00
      vertex 0.000000e+00 5.000000e+00 5.000000e+00
      vertex 0.000000e+00 1.000000e+01 5.000000e+00
    endloop
  endfacet
  facet normal 0.000000e+00 0.000000e+00 1.000000e+00
    outer loop
      vertex 4.000000e+00 1.000000e+01 5.000000e+00
      vertex 0.000000e+00 1.000000e+01 5.000000e+00
      vertex 0.000000e+00 5.000000e+00 5.000000e+00
    endloop
  endfacet
  facet normal -1.000000e+00 0.000000e+00 0.000000e+00
    outer loop
      vertex 0.000000e+00 1.000000e+01 -5.000000e+00
      vertex 0.000000e+00 5.000000e+00 -5.000000e+00
      vertex 0.000000e+00 1.000000e+01 5.000000e+00
    endloop
  endfacet
  facet normal 0.000000e+00 0.000000e+00 1.000000e+00
    outer loop
      vertex 4.000000e+00 1.500000e+01 5.000000e+00
      vertex 0.000000e+00 1.000000e+01 5.000000e+00
      vertex 4.000000e+00 1.000000e+01 5.000000e+00
    endloop
  endfacet
  facet normal -1.000000e+00 0.000000e+00 0.000000e+00
    outer loop
      vertex 0.000000e+00 2.842171e-14 -5.000000e+00
      vertex 0.000000e+00 2.842171e-14 5.000000e+00
      vertex 0.000000e+00 5.000000e+00 5.000000e+00
    endloop
  endfacet
  facet normal 0.000000e+00 0.000000e+00 1.000000e+00
    outer loop
      vertex 4.000000e+00 5.000000e+00 5.000000e+00
      vertex 0.000000e+00 5.000000e+00 5.000000e+00
      vertex 0.000000e+00 2.842171e-14 5.000000e+00
    endloop
  endfacet
  facet normal -1.000000e+00 0.000000e+00 0.000000e+00
    outer loop
      vertex 0.000000e+00 5.000000e+00 -5.000000e+00
      vertex 0.000000e+00 2.842171e-14 -5.000000e+00
      vertex 0.000000e+00 5.000000e+00 5.000000e+00
    endloop
  endfacet
  facet normal 0.000000e+00 0.000000e+00 1.000000e+00
    outer loop
      vertex 4.000000e+00 1.000000e+01 5.000000e+00
      vertex 0.000000e+00 5.000000e+00 5.000000e+00
      vertex 4.000000e+00 5.000000e+00 5.000000e+00
    endloop
  endfacet
  facet normal -1.000000e+00 0.000000e+00 0.000000e+00
    outer loop
      vertex 0.000000e+00 -5.000000e+00 -5.000000e+00
      vertex 0.000000e+00 -5.000000e+00 5.000000e+00
      vertex 0.000000e+00 2.842171e-14 5.000000e+00
    endloop
  endfacet
  facet normal 0.000000e+00 0.000000e+00 1.000000e+00
    outer loop
      vertex 4.000000e+00 2.842171e-14 5.000000e+00
      vertex 0.000000e+00 2.842171e-14 5.000000e+00
      vertex 0.000000e+00 -5.000000e+00 5.000000e+00
    endloop
  endfacet
  facet normal -1.000000e+00 0.000000e+00 0.000000e+00
    outer loop
      vertex 0.000000e+00 2.842171e-14 -5.000000e+00
      vertex 0.000000e+00 -5.000000e+00 -5.000000e+00
      vertex 0.000000e+00 2.842171e-14 5.000000e+00
    endloop
  endfacet
  facet normal 0.000000e+00 0.000000e+00 1.000000e+00
    outer loop
      vertex 4.000000e+00 5.000000e+00 5.000000e+00
      vertex 0.000000e+00 2.842171e-14 5.000000e+00
      vertex 4.000000e+00 2.842171e-14 5.000000e+00
    endloop
  endfacet
  facet normal -1.000000e+00 0.000000e+00 0.000000e+00
    outer loop
      vertex 0.000000e+00 -1.000000e+01 -5.000000e+00
      vertex 0.000000e+00 -1.000000e+01 5.000000e+00
      vertex 0.000000e+00 -5.000000e+00 5.000000e+00
    endloop
  endfacet
  facet normal 0.000000e+00 0.000000e+00 1.000000e+00
    outer loop
      vertex 4.000000e+00 -5.000000e+00 5.000000e+00
      vertex 0.000000e+00 -5.000000e+00 5.000000e+00
      vertex 0.000000e+00 -1.000000e+01 5.000000e+00
    endloop
  endfacet
  facet normal -1.000000e+00 0.000000e+00 0.000000e+00
    outer loop
      vertex 0.000000e+00 -5.000000e+00 -5.000000e+00
      vertex 0.000000e+00 -1.000000e+01 -5.000000e+00
      vertex 0.000000e+00 -5.000000e+00 5.000000e+00
    endloop
  endfacet
  facet normal 0.000000e+00 0.000000e+00 1.000000e+00
    outer loop
      vertex 4.000000e+00 2.842171e-14 5.000000e+00
      vertex 0.000000e+00 -5.000000e+00 5.000000e+00
      vertex 4.000000e+00 -5.000000e+00 5.000000e+00
    endloop
  endfacet
  facet normal -1.000000e+00 0.000000e+00 0.000000e+00
    outer loop
      vertex 0.000000e+00 -1.500000e+01 -5.000000e+00
      vertex 0.000000e+00 -1.500000e+01 5.000000e+00
      vertex 0.000000e+00 -1.000000e+01 5.000000e+00
    endloop
  endfacet
  facet normal 0.000000e+00 -1.776357e-16 1.000000e+00
    outer loop
      vertex 4.000000e+00 -1.000000e+01 5.000000e+00
      vertex 0.000000e+00 -1.000000e+01 5.000000e+00
      vertex 0.000000e+00 -1.500000e+01 5.000000e+00
    endloop
  endfacet
  facet normal -1.000000e+00 0.000000e+00 0.000000e+00
    outer loop
      vertex 0.000000e+00 -1.000000e+01 -5.000000e+00
      vertex 0.000000e+00 -1.500000e+01 -5.000000e+00
      vertex 0.000000e+00 -1.000000e+01 5.000000e+00
    endloop
  endfacet
  facet normal 0.000000e+00 0.000000e+00 1.000000e+00
    outer loop
      vertex 4.000000e+00 -5.000000e+00 5.000000e+00
      vertex 0.000000e+00 -1.000000e+01 5.000000e+00
      vertex 4.000000e+00 -1.000000e+01 5.000000e+00
    endloop
  endfacet
  facet normal -1.000000e+00 0.000000e+00 0.000000e+00
    outer loop
      vertex 0.000000e+00 -2.000000e+01 -5.000000e+00
      vertex 0.000000e+00 -2.000000e+01 5.000000e+00
      vertex 0.000000e+00 -1.500000e+01 5.000000e+00
    endloop
  endfacet
  facet normal 0.000000e+00 1.776357e-16 1.000000e+00
    outer loop
      vertex 4.000000e+00 -1.500000e+01 5.000000e+00
      vertex 0.000000e+00 -1.500000e+01 5.000000e+00
      vertex 0.000000e+00 -2.000000e+01 5.000000e+00
    endloop
  endfacet
  facet normal -1.000000e+00 0.000000e+00 0.000000e+00
    outer loop
      vertex 0.000000e+00 -1.500000e+01 -5.000000e+00
      vertex 0.000000e+00 -2.000000e+01 -5.000000e+00
      vertex 0.000000e+00 -1.500000e+01 5.000000e+00
    endloop
  endfacet
  facet normal 0.000000e+00 -1.776357e-16 1.000000e+00
    outer loop
      vertex 4.000000e+00 -1.000000e+01 5.000000e+00
      vertex 0.000000e+00 -1.500000e+01 5.000000e+00
      vertex 4.000000e+00 -1.500000e+01 5.000000e+00
    endloop
  endfacet
  facet normal -1.000000e+00 0.000000e+00 0.000000e+00
    outer loop
      vertex 0.000000e+00 -2.500000e+01 -5.000000e+00
      vertex 0.000000e+00 -2.500000e+01 5.000000e+00
      vertex 0.000000e+00 -2.000000e+01 5.000000e+00
    endloop
  endfacet
  facet normal 0.000000e+00 0.000000e+00 1.000000e+00
    outer loop
      vertex 4.000000e+00 -2.000000e+01 5.000000e+00
      vertex 0.000000e+00 -2.000000e+01 5.000000e+00
      vertex 0.000000e+00 -2.500000e+01 5.000000e+00
    endloop
  endfacet
  facet normal -1.000000e+00 0.000000e+00 0.000000e+00
    outer loop
      vertex 0.000000e+00 -2.000000e+01 -5.000000e+00
      vertex 0.000000e+00 -2.500000e+01 -5.000000e+00
      vertex 0.000000e+00 -2.000000e+01 5.000000e+00
    endloop
  endfacet
  facet normal 0.000000e+00 1.776357e-16 1.000000e+00
    outer loop
      vertex 4.000000e+00 -1.500000e+01 5.000000e+00
      vertex 0.000000e+00 -2.000000e+01 5.000000e+00
      vertex 4.000000e+00 -2.000000e+01 5.000000e+00
    endloop
  endfacet
  facet normal -1.000000e+00 0.000000e+00 0.000000e+00
    outer loop
      vertex 0.000000e+00 -3.000000e+01 -5.000000e+00
      vertex 0.000000e+00 -3.000000e+01 5.000000e+00
      vertex 0.000000e+00 -2.500000e+01 5.000000e+00
    endloop
  endfacet
  facet normal 0.000000e+00 0.000000e+00 1.000000e+00
    outer loop
      vertex 4.000000e+00 -2.500000e+01 5.000000e+00
      vertex 0.000000e+00 -2.500000e+01 5.000000e+00
      vertex 0.000000e+00 -3.000000e+01 5.000000e+00
    endloop
  endfacet
  facet normal -1.000000e+00 0.000000e+00 0.000000e+00
    outer loop
      vertex 0.000000e+00 -2.500000e+01 -5.000000e+00
      vertex 0.000000e+00 -3.000000e+01 -5.000000e+00
      vertex 0.000000e+00 -2.500000e+01 5.000000e+00
    endloop
  endfacet
  facet normal 0.000000e+00 0.000000e+00 1.000000e+00
    outer loop
      vertex 4.000000e+00 -2.000000e+01 5.000000e+00
      vertex 0.000000e+00 -2.500000e+01 5.000000e+00
      vertex 4.000000e+00 -2.500000e+01 5.000000e+00
    endloop
  endfacet
  facet normal -1.000000e+00 0.000000e+00 0.000000e+00
    outer loop
      vertex 0.000000e+00 -3.500000e+01 -5.000000e+00
      vertex 0.000000e+00 -3.500000e+01 5.000000e+00
      vertex 0.000000e+00 -3.000000e+01 5.000000e+00
    endloop
  endfacet
  facet normal 0.000000e+00 0.000000e+00 1.000000e+00
    outer loop
      vertex 4.000000e+00 -3.000000e+01 5.000000e+00
      vertex 0.000000e+00 -3.000000e+01 5.000000e+00
      vertex 0.000000e+00 -3.500000e+01 5.000000e+00
    endloop
  endfacet
  facet normal -1.000000e+00 0.000000e+00 0.000000e+00
    outer loop
      vertex 0.000000e+00 -3.000000e+01 -5.000000e+00
      vertex 0.000000e+00 -3.500000e+01 -5.000000e+00
      vertex 0.000000e+00 -3.000000e+01 5.000000e+00
    endloop
  endfacet
  facet normal 0.000000e+00 0.000000e+00 1.000000e+00
    outer loop
      vertex 4.000000e+00 -2.500000e+01 5.000000e+00
      vertex 0.000000e+00 -3.000000e+01 5.000000e+00
      vertex 4.000000e+00 -3.000000e+01 5.000000e+00
    endloop
  endfacet
  facet normal -1.000000e+00 0.000000e+00 0.000000e+00
    outer loop
      vertex 0.000000e+00 -4.000000e+01 -5.000000e+00
      vertex 0.000000e+00 -4.000000e+01 5.000000e+00
      vertex 0.000000e+00 -3.500000e+01 5.000000e+00
    endloop
  endfacet
  facet normal 0.000000e+00 0.000000e+00 1.000000e+00
    outer loop
      vertex 4.000000e+00 -3.500000e+01 5.000000e+00
      vertex 0.000000e+00 -3.500000e+01 5.000000e+00
      vertex 0.000000e+00 -4.000000e+01 5.000000e+00
    endloop
  endfacet
  facet normal -1.000000e+00 0.000000e+00 0.000000e+00
    outer loop
      vertex 0.000000e+00 -3.500000e+01 -5.000000e+00
      vertex 0.000000e+00 -4.000000e+01 -5.000000e+00
      vertex 0.000000e+00 -3.500000e+01 5.000000e+00
    endloop
  endfacet
  facet normal 0.000000e+00 0.000000e+00 1.000000e+00
    outer loop
      vertex 4.000000e+00 -3.000000e+01 5.000000e+00
      vertex 0.000000e+00 -3.500000e+01 5.000000e+00
      vertex 4.000000e+00 -3.500000e+01 5.000000e+00
    endloop
  endfacet
  facet normal -1.000000e+00 0.000000e+00 0.000000e+00
    outer loop
      vertex 0.000000e+00 -4.500000e+01 -5.000000e+00
      vertex 0.000000e+00 -4.500000e+01 5.000000e+00
      vertex 0.000000e+00 -4.000000e+01 5.000000e+00
    endloop
  endfacet
  facet normal 0.000000e+00 0.000000e+00 1.000000e+00
    outer loop
      vertex 4.000000e+00 -4.000000e+01 5.000000e+00
      vertex 0.000000e+00 -4.000000e+01 5.000000e+00
      vertex 0.000000e+00 -4.500000e+01 5.000000e+00
    endloop
  endfacet
  facet normal -1.000000e+00 0.000000e+00 0.000000e+00
    outer loop
      vertex 0.000000e+00 -4.000000e+01 -5.000000e+00
      vertex 0.000000e+00 -4.500000e+01 -5.000000e+00
      vertex 0.000000e+00 -4.000000e+01 5.000000e+00
    endloop
  endfacet
  facet normal 0.000000e+00 0.000000e+00 1.000000e+00
    outer loop
      vertex 4.000000e+00 -3.500000e+01 5.000000e+00
      vertex 0.000000e+00 -4.000000e+01 5.000000e+00
      vertex 4.000000e+00 -4.000000e+01 5.000000e+00
    endloop
  endfacet
  facet normal -1.000000e+00 0.000000e+00 0.000000e+00
    outer loop
      vertex 0.000000e+00 -5.000000e+01 -5.000000e+00
      vertex 0.000000e+00 -5.000000e+01 5.000000e+00
      vertex 0.000000e+00 -4.500000e+01 5.000000e+00
    endloop
  endfacet
  facet normal 0.000000e+00 0.000000e+00 1.000000e+00
    outer loop
      vertex 4.000000e+00 -4.500000e+01 5.000000e+00
      vertex 0.000000e+00 -4.500000e+01 5.000000e+00
      vertex 0.000000e+00 -5.000000e+01 5.000000e+00
    endloop
  endfacet
  facet normal -1.000000e+00 0.000000e+00 0.000000e+00
    outer loop
      vertex 0.000000e+00 -4.500000e+01 -5.000000e+00
      vertex 0.000000e+00 -5.000000e+01 -5.000000e+00
      vertex 0.000000e+00 -4.500000e+01 5.000000e+00
    endloop
  endfacet
  facet normal 0.000000e+00 0.000000e+00 1.000000e+00
    outer loop
      vertex 4.000000e+00 -4.000000e+01 5.000000e+00
      vertex 0.000000e+00 -4.500000e+01 5.000000e+00
      vertex 4.000000e+00 -4.500000e+01 5.000000e+00
    endloop
  endfacet
  facet normal -1.000000e+00 0.000000e+00 0.000000e+00
    outer loop
      vertex 0.000000e+00 -5.500000e+01 -5.000000e+00
      vertex 0.000000e+00 -5.500000e+01 5.000000e+00
      vertex 0.000000e+00 -5.000000e+01 5.000000e+00
    endloop
  endfacet
  facet normal 0.000000e+00 0.000000e+00 1.000000e+00
    outer loop
      vertex 4.000000e+00 -5.000000e+01 5.000000e+00
      vertex 0.000000e+00 -5.000000e+01 5.000000e+00
      vertex 0.000000e+00 -5.500000e+01 5.000000e+00
    endloop
  endfacet
  facet normal -1.000000e+00 0.000000e+00 0.000000e+00
    outer loop
      vertex 0.000000e+00 -5.000000e+01 -5.000000e+00
      vertex 0.000000e+00 -5.500000e+01 -5.000000e+00
      vertex 0.000000e+00 -5.000000e+01 5.000000e+00
    endloop
  endfacet
  facet normal 0.000000e+00 0.000000e+00 1.000000e+00
    outer loop
      vertex 4.000000e+00 -4.500000e+01 5.000000e+00
      vertex 0.000000e+00 -5.000000e+01 5.000000e+00
      vertex 4.000000e+00 -5.000000e+01 5.000000e+00
    endloop
  endfacet
  facet normal -1.000000e+00 0.000000e+00 0.000000e+00
    outer loop
      vertex 0.000000e+00 -6.000000e+01 -5.000000e+00
      vertex 0.000000e+00 -6.000000e+01 5.000000e+00
      vertex 0.000000e+00 -5.500000e+01 5.000000e+00
    endloop
  endfacet
  facet normal 0.000000e+00 0.000000e+00 1.000000e+00
    outer loop
      vertex 4.000000e+00 -5.500000e+01 5.000000e+00
      vertex 0.000000e+00 -5.500000e+01 5.000000e+00
      vertex 0.000000e+00 -6.000000e+01 5.000000e+00
    endloop
  endfacet
  facet normal -1.000000e+00 0.000000e+00 0.000000e+00
    outer loop
      vertex 0.000000e+00 -5.500000e+01 -5.000000e+00
      vertex 0.000000e+00 -6.000000e+01 -5.000000e+00
      vertex 0.000000e+00 -5.500000e+01 5.000000e+00
    endloop
  endfacet
  facet normal 0.000000e+00 0.000000e+00 1.000000e+00
    outer loop
      vertex 4.000000e+00 -5.000000e+01 5.000000e+00
      vertex 0.000000e+00 -5.500000e+01 5.000000e+00
      vertex 4.000000e+00 -5.500000e+01 5.000000e+00
    endloop
  endfacet
  facet normal -1.000000e+00 0.000000e+00 0.000000e+00
    outer loop
      vertex 0.000000e+00 -6.500000e+01 -5.000000e+00
      vertex 0.000000e+00 -6.500000e+01 5.000000e+00
      vertex 0.000000e+00 -6.000000e+01 5.000000e+00
    endloop
  endfacet
  facet normal 0.000000e+00 0.000000e+00 1.000000e+00
    outer loop
      vertex 4.000000e+00 -6.000000e+01 5.000000e+00
      vertex 0.000000e+00 -6.000000e+01 5.000000e+00
      vertex 0.000000e+00 -6.500000e+01 5.000000e+00
    endloop
  endfacet
  facet normal -1.000000e+00 0.000000e+00 0.000000e+00
    outer loop
      vertex 0.000000e+00 -6.000000e+01 -5.000000e+00
      vertex 0.000000e+00 -6.500000e+01 -5.000000e+00
      vertex 0.000000e+00 -6.000000e+01 5.000000e+00
    endloop
  endfacet
  facet normal 0.000000e+00 0.000000e+00 1.000000e+00
    outer loop
      vertex 4.000000e+00 -5.500000e+01 5.000000e+00
      vertex 0.000000e+00 -6.000000e+01 5.000000e+00
      vertex 4.000000e+00 -6.000000e+01 5.000000e+00
    endloop
  endfacet
  facet normal -1.000000e+00 0.000000e+00 0.000000e+00
    outer loop
      vertex 0.000000e+00 -7.000000e+01 -5.000000e+00
      vertex 0.000000e+00 -7.000000e+01 5.000000e+00
      vertex 0.000000e+00 -6.500000e+01 5.000000e+00
    endloop
  endfacet
  facet normal 0.000000e+00 0.000000e+00 1.000000e+00
    outer loop
      vertex 4.000000e+00 -6.500000e+01 5.000000e+00
      vertex 0.000000e+00 -6.500000e+01 5.000000e+00
      vertex 0.000000e+00 -7.000000e+01 5.000000e+00
    endloop
  endfacet
  facet normal -1.000000e+00 0.000000e+00 0.000000e+00
    outer loop
      vertex 0.000000e+00 -6.500000e+01 -5.000000e+00
      vertex 0.000000e+00 -7.000000e+01 -5.000000e+00
      vertex 0.000000e+00 -6.500000e+01 5.000000e+00
    endloop
  endfacet
  facet normal 0.000000e+00 0.000000e+00 1.000000e+00
    outer loop
      vertex 4.000000e+00 -6.000000e+01 5.000000e+00
      vertex 0.000000e+00 -6.500000e+01 5.000000e+00
      vertex 4.000000e+00 -6.500000e+01 5.000000e+00
    endloop
  endfacet
  facet normal -1.000000e+00 0.000000e+00 0.000000e+00
    outer loop
      vertex 0.000000e+00 -7.500000e+01 -9.325873e-15
      vertex 0.000000e+00 -7.500000e+01 5.000000e+00
      vertex 0.000000e+00 -7.000000e+01 5.000000e+00
    endloop
  endfacet
  facet normal 0.000000e+00 0.000000e+00 1.000000e+00
    outer loop
      vertex 4.000000e+00 -7.000000e+01 5.000000e+00
      vertex 0.000000e+00 -7.000000e+01 5.000000e+00
      vertex 0.000000e+00 -7.500000e+01 5.000000e+00
    endloop
  endfacet
  facet normal -1.000000e+00 0.000000e+00 0.000000e+00
    outer loop
      vertex 0.000000e+00 -7.500000e+01 -5.000000e+00
      vertex 0.000000e+00 -7.500000e+01 -9.325873e-15
      vertex 0.000000e+00 -7.000000e+01 5.000000e+00
    endloop
  endfacet
  facet normal -1.000000e+00 0.000000e+00 0.000000e+00
    outer loop
      vertex 0.000000e+00 -7.000000e+01 -5.000000e+00
      vertex 0.000000e+00 -7.500000e+01 -5.000000e+00
      vertex 0.000000e+00 -7.000000e+01 5.000000e+00
    endloop
  endfacet
  facet normal 0.000000e+00 0.000000e+00 1.000000e+00
    outer loop
      vertex 4.000000e+00 -6.500000e+01 5.000000e+00
      vertex 0.000000e+00 -7.000000e+01 5.000000e+00
      vertex 4.000000e+00 -7.000000e+01 5.000000e+00
    endloop
  endfacet
  facet normal 0.000000e+00 -1.000000e+00 0.000000e+00
    outer loop
      vertex 4.000000e+00 -7.500000e+01 5.000000e+00
      vertex 0.000000e+00 -7.500000e+01 5.000000e+00
      vertex 0.000000e+00 -7.500000e+01 -9.325873e-15
    endloop
  endfacet
  facet normal 0.000000e+00 0.000000e+00 1.000000e+00
    outer loop
      vertex 4.000000e+00 -7.000000e+01 5.000000e+00
      vertex 0.000000e+00 -7.500000e+01 5.000000e+00
      vertex 4.000000e+00 -7.500000e+01 5.000000e+00
    endloop
  endfacet
  facet normal 0.000000e+00 -1.000000e+00 0.000000e+00
    outer loop
      vertex 4.000000e+00 -7.500000e+01 -9.325873e-15
      vertex 0.000000e+00 -7.500000e+01 -9.325873e-15
      vertex 0.000000e+00 -7.500000e+01 -5.000000e+00
    endloop
  endfacet
  facet normal 0.000000e+00 -1.000000e+00 0.000000e+00
    outer loop
      vertex 4.000000e+00 -7.500000e+01 5.000000e+00
      vertex 0.000000e+00 -7.500000e+01 -9.325873e-15
      vertex 4.000000e+00 -7.500000e+01 -9.325873e-15
    endloop
  endfacet
  facet normal 0.000000e+00 0.000000e+00 -1.000000e+00
    outer loop
      vertex 4.000000e+00 -7.500000e+01 -5.000000e+00
      vertex 0.000000e+00 -7.500000e+01 -5.000000e+00
      vertex 0.000000e+00 -7.000000e+01 -5.000000e+00
    endloop
  endfacet
  facet normal 0.000000e+00 -1.000000e+00 0.000000e+00
    outer loop
      vertex 4.000000e+00 -7.500000e+01 -9.325873e-15
      vertex 0.000000e+00 -7.500000e+01 -5.000000e+00
      vertex 4.000000e+00 -7.500000e+01 -5.000000e+00
    endloop
  endfacet
  facet normal 0.000000e+00 0.000000e+00 -1.000000e+00
    outer loop
      vertex 4.000000e+00 -7.000000e+01 -5.000000e+00
      vertex 0.000000e+00 -7.000000e+01 -5.000000e+00
      vertex 0.000000e+00 -6.500000e+01 -5.000000e+00
    endloop
  endfacet
  facet normal 0.000000e+00 0.000000e+00 -1.000000e+00
    outer loop
      vertex 4.000000e+00 -7.500000e+01 -5.000000e+00
      vertex 0.000000e+00 -7.000000e+01 -5.000000e+00
      vertex 4.000000e+00 -7.000000e+01 -5.000000e+00
    endloop
  endfacet
  facet normal 0.000000e+00 0.000000e+00 -1.000000e+00
    outer loop
      vertex 4.000000e+00 -6.500000e+01 -5.000000e+00
      vertex 0.000000e+00 -6.500000e+01 -5.000000e+00
      vertex 0.000000e+00 -6.000000e+01 -5.000000e+00
    endloop
  endfacet
  facet normal 0.000000e+00 0.000000e+00 -1.000000e+00
    outer loop
      vertex 4.000000e+00 -7.000000e+01 -5.000000e+00
      vertex 0.000000e+00 -6.500000e+01 -5.000000e+00
      vertex 4.000000e+00 -6.500000e+01 -5.000000e+00
    endloop
  endfacet
  facet normal 0.000000e+00 0.000000e+00 -1.000000e+00
    outer loop
      vertex 4.000000e+00 -6.000000e+01 -5.000000e+00
      vertex 0.000000e+00 -6.000000e+01 -5.000000e+00
      vertex 0.000000e+00 -5.500000e+01 -5.000000e+00
    endloop
  endfacet
  facet normal 0.000000e+00 0.000000e+00 -1.000000e+00
    outer loop
      vertex 4.000000e+00 -6.500000e+01 -5.000000e+00
      vertex 0.000000e+00 -6.000000e+01 -5.000000e+00
      vertex 4.000000e+00 -6.000000e+01 -5.000000e+00
    endloop
  endfacet
  facet normal 0.000000e+00 0.000000e+00 -1.000000e+00
    outer loop
      vertex 4.000000e+00 -5.500000e+01 -5.000000e+00
      vertex 0.000000e+00 -5.500000e+01 -5.000000e+00
      vertex 0.000000e+00 -5.000000e+01 -5.000000e+00
    endloop
  endfacet
  facet normal 0.000000e+00 0.000000e+00 -1.000000e+00
    outer loop
      vertex 4.000000e+00 -6.000000e+01 -5.000000e+00
      vertex 0.000000e+00 -5.500000e+01 -5.000000e+00
      vertex 4.000000e+00 -5.500000e+01 -5.000000e+00
    endloop
  endfacet
  facet normal 0.000000e+00 0.000000e+00 -1.000000e+00
    outer loop
      vertex 4.000000e+00 -5.000000e+01 -5.000000e+00
      vertex 0.000000e+00 -5.000000e+01 -5.000000e+00
      vertex 0.000000e+00 -4.500000e+01 -5.000000e+00
    endloop
  endfacet
  facet normal 0.000000e+00 0.000000e+00 -1.000000e+00
    outer loop
      vertex 4.000000e+00 -5.500000e+01 -5.000000e+00
      vertex 0.000000e+00 -5.000000e+01 -5.000000e+00
      vertex 4.000000e+00 -5.000000e+01 -5.000000e+00
    endloop
  endfacet
  facet normal 0.000000e+00 0.000000e+00 -1.000000e+00
    outer loop
      vertex 4.000000e+00 -4.500000e+01 -5.000000e+00
      vertex 0.000000e+00 -4.500000e+01 -5.000000e+00
      vertex 0.000000e+00 -4.000000e+01 -5.000000e+00
    endloop
  endfacet
  facet normal 0.000000e+00 0.000000e+00 -1.000000e+00
    outer loop
      vertex 4.000000e+00 -5.000000e+01 -5.000000e+00
      vertex 0.000000e+00 -4.500000e+01 -5.000000e+00
      vertex 4.000000e+00 -4.500000e+01 -5.000000e+00
    endloop
  endfacet
  facet normal 0.000000e+00 0.000000e+00 -1.000000e+00
    outer loop
      vertex 4.000000e+00 -4.000000e+01 -5.000000e+00
      vertex 0.000000e+00 -4.000000e+01 -5.000000e+00
      vertex 0.000000e+00 -3.500000e+01 -5.000000e+00
    endloop
  endfacet
  facet normal 0.000000e+00 0.000000e+00 -1.000000e+00
    outer loop
      vertex 4.000000e+00 -4.500000e+01 -5.000000e+00
      vertex 0.000000e+00 -4.000000e+01 -5.000000e+00
      vertex 4.000000e+00 -4.000000e+01 -5.000000e+00
    endloop
  endfacet
  facet normal 0.000000e+00 0.000000e+00 -1.000000e+00
    outer loop
      vertex 4.000000e+00 -3.500000e+01 -5.000000e+00
      vertex 0.000000e+00 -3.500000e+01 -5.000000e+00
      vertex 0.000000e+00 -3.000000e+01 -5.000000e+00
    endloop
  endfacet
  facet normal 0.000000e+00 0.000000e+00 -1.000000e+00
    outer loop
      vertex 4.000000e+00 -4.000000e+01 -5.000000e+00
      vertex 0.000000e+00 -3.500000e+01 -5.000000e+00
      vertex 4.000000e+00 -3.500000e+01 -5.000000e+00
    endloop
  endfacet
  facet normal 0.000000e+00 0.000000e+00 -1.000000e+00
    outer loop
      vertex 4.000000e+00 -3.000000e+01 -5.000000e+00
      vertex 0.000000e+00 -3.000000e+01 -5.000000e+00
      vertex 0.000000e+00 -2.500000e+01 -5.000000e+00
    endloop
  endfacet
  facet normal 0.000000e+00 0.000000e+00 -1.000000e+00
    outer loop
      vertex 4.000000e+00 -3.500000e+01 -5.000000e+00
      vertex 0.000000e+00 -3.000000e+01 -5.000000e+00
      vertex 4.000000e+00 -3.000000e+01 -5.000000e+00
    endloop
  endfacet
  facet normal 0.000000e+00 0.000000e+00 -1.000000e+00
    outer loop
      vertex 4.000000e+00 -2.500000e+01 -5.000000e+00
      vertex 0.000000e+00 -2.500000e+01 -5.000000e+00
      vertex 0.000000e+00 -2.000000e+01 -5.000000e+00
    endloop
  endfacet
  facet normal 0.000000e+00 0.000000e+00 -1.000000e+00
    outer loop
      vertex 4.000000e+00 -3.000000e+01 -5.000000e+00
      vertex 0.000000e+00 -2.500000e+01 -5.000000e+00
      vertex 4.000000e+00 -2.500000e+01 -5.000000e+00
    endloop
  endfacet
  facet normal 0.000000e+00 0.000000e+00 -1.000000e+00
    outer loop
      vertex 4.000000e+00 -2.000000e+01 -5.000000e+00
      vertex 0.000000e+00 -2.000000e+01 -5.000000e+00
      vertex 0.000000e+00 -1.500000e+01 -5.000000e+00
    endloop
  endfacet
  facet normal 0.000000e+00 0.000000e+00 -1.000000e+00
    outer loop
      vertex 4.000000e+00 -2.500000e+01 -5.000000e+00
      vertex 0.000000e+00 -2.000000e+01 -5.000000e+00
      vertex 4.000000e+00 -2.000000e+01 -5.000000e+00
    endloop
  endfacet
  facet normal 0.000000e+00 0.000000e+00 -1.000000e+00
    outer loop
      vertex 4.000000e+00 -1.500000e+01 -5.000000e+00
      vertex 0.000000e+00 -1.500000e+01 -5.000000e+00
      vertex 0.000000e+00 -1.000000e+01 -5.000000e+00
    endloop
  endfacet
  facet normal 0.000000e+00 0.000000e+00 -1.000000e+00
    outer loop
      vertex 4.000000e+00 -2.000000e+01 -5.000000e+00
      vertex 0.000000e+00 -1.500000e+01 -5.000000e+00
      vertex 4.000000e+00 -1.500000e+01 -5.000000e+00
    endloop
  endfacet
  facet normal 0.000000e+00 0.000000e+00 -1.000000e+00
    outer loop
      vertex 4.000000e+00 -1.000000e+01 -5.000000e+00
      vertex 0.000000e+00 -1.000000e+01 -5.000000e+00
      vertex 0.000000e+00 -5.000000e+00 -5.000000e+00
    endloop
  endfacet
  facet normal 0.000000e+00 0.000000e+00 -1.000000e+00
    outer loop
      vertex 4.000000e+00 -1.500000e+01 -5.000000e+00
      vertex 0.000000e+00 -1.000000e+01 -5.000000e+00
      vertex 4.000000e+00 -1.000000e+01 -5.000000e+00
    endloop
  endfacet
  facet normal 0.000000e+00 0.000000e+00 -1.000000e+00
    outer loop
      vertex 4.000000e+00 -5.000000e+00 -5.000000e+00
      vertex 0.000000e+00 -5.000000e+00 -5.000000e+00
      vertex 0.000000e+00 2.842171e-14 -5.000000e+00
    endloop
  endfacet
  facet normal 0.000000e+00 0.000000e+00 -1.000000e+00
    outer loop
      vertex 4.000000e+00 -1.000000e+01 -5.000000e+00
      vertex 0.000000e+00 -5.000000e+00 -5.000000e+00
      vertex 4.000000e+00 -5.000000e+00 -5.000000e+00
    endloop
  endfacet
  facet normal 0.000000e+00 0.000000e+00 -1.000000e+00
    outer loop
      vertex 4.000000e+00 2.842171e-14 -5.000000e+00
      vertex 0.000000e+00 2.842171e-14 -5.000000e+00
      vertex 0.000000e+00 5.000000e+00 -5.000000e+00
    endloop
  endfacet
  facet normal 0.000000e+00 0.000000e+00 -1.000000e+00
    outer loop
      vertex 4.000000e+00 -5.000000e+00 -5.000000e+00
      vertex 0.000000e+00 2.842171e-14 -5.000000e+00
      vertex 4.000000e+00 2.842171e-14 -5.000000e+00
    endloop
  endfacet
  facet normal 0.000000e+00 0.000000e+00 -1.000000e+00
    outer loop
      vertex 4.000000e+00 5.000000e+00 -5.000000e+00
      vertex 0.000000e+00 5.000000e+00 -5.000000e+00
      vertex 0.000000e+00 1.000000e+01 -5.000000e+00
    endloop
  endfacet
  facet normal 0.000000e+00 0.000000e+00 -1.000000e+00
    outer loop
      vertex 4.000000e+00 2.842171e-14 -5.000000e+00
      vertex 0.000000e+00 5.000000e+00 -5.000000e+00
      vertex 4.000000e+00 5.000000e+00 -5.000000e+00
    endloop
  endfacet
  facet normal 0.000000e+00 0.000000e+00 -1.000000e+00
    outer loop
      vertex 4.000000e+00 1.000000e+01 -5.000000e+00
      vertex 0.000000e+00 1.000000e+01 -5.000000e+00
      vertex 0.000000e+00 1.500000e+01 -5.000000e+00
    endloop
  endfacet
  facet normal 0.000000e+00 0.000000e+00 -1.000000e+00
    outer loop
      vertex 4.000000e+00 5.000000e+00 -5.000000e+00
      vertex 0.000000e+00 1.000000e+01 -5.000000e+00
      vertex 4.000000e+00 1.000000e+01 -5.000000e+00
    endloop
  endfacet
  facet normal 0.000000e+00 0.000000e+00 -1.000000e+00
    outer loop
      vertex 4.000000e+00 1.500000e+01 -5.000000e+00
      vertex 0.000000e+00 1.500000e+01 -5.000000e+00
      vertex 0.000000e+00 2.000000e+01 -5.000000e+00
    endloop
  endfacet
  facet normal 0.000000e+00 0.000000e+00 -1.000000e+00
    outer loop
      vertex 4.000000e+00 1.000000e+01 -5.000000e+00
      vertex 0.000000e+00 1.500000e+01 -5.000000e+00
      vertex 4.000000e+00 1.500000e+01 -5.000000e+00
    endloop
  endfacet
  facet normal 0.000000e+00 0.000000e+00 -1.000000e+00
    outer loop
      vertex 4.000000e+00 2.000000e+01 -5.000000e+00
      vertex 0.000000e+00 2.000000e+01 -5.000000e+00
      vertex 0.000000e+00 2.500000e+01 -5.000000e+00
    endloop
  endfacet
  facet normal 0.000000e+00 0.000000e+00 -1.000000e+00
    outer loop
      vertex 4.000000e+00 1.500000e+01 -5.000000e+00
      vertex 0.000000e+00 2.000000e+01 -5.000000e+00
      vertex 4.000000e+00 2.000000e+01 -5.000000e+00
    endloop
  endfacet
  facet normal 0.000000e+00 0.000000e+00 -1.000000e+00
    outer loop
      vertex 4.000000e+00 2.500000e+01 -5.000000e+00
      vertex 0.000000e+00 2.500000e+01 -5.000000e+00
      vertex 0.000000e+00 3.000000e+01 -5.000000e+00
    endloop
  endfacet
  facet normal 0.000000e+00 0.000000e+00 -1.000000e+00
    outer loop
      vertex 4.000000e+00 2.000000e+01 -5.000000e+00
      vertex 0.000000e+00 2.500000e+01 -5.000000e+00
      vertex 4.000000e+00 2.500000e+01 -5.000000e+00
    endloop
  endfacet
  facet normal 0.000000e+00 0.000000e+00 -1.000000e+00
    outer loop
      vertex 4.000000e+00 3.000000e+01 -5.000000e+00
      vertex 0.000000e+00 3.000000e+01 -5.000000e+00
      vertex 0.000000e+00 3.500000e+01 -5.000000e+00
    endloop
  endfacet
  facet normal 0.000000e+00 0.000000e+00 -1.000000e+00
    outer loop
      vertex 4.000000e+00 2.500000e+01 -5.000000e+00
      vertex 0.000000e+00 3.000000e+01 -5.000000e+00
      vertex 4.000000e+00 3.000000e+01 -5.000000e+00
    endloop
  endfacet
  facet normal 0.000000e+00 0.000000e+00 -1.000000e+00
    outer loop
      vertex 4.000000e+00 3.500000e+01 -5.000000e+00
      vertex 0.000000e+00 3.500000e+01 -5.000000e+00
      vertex 0.000000e+00 4.000000e+01 -5.000000e+00
    endloop
  endfacet
  facet normal 0.000000e+00 0.000000e+00 -1.000000e+00
    outer loop
      vertex 4.000000e+00 3.000000e+01 -5.000000e+00
      vertex 0.000000e+00 3.500000e+01 -5.000000e+00
      vertex 4.000000e+00 3.500000e+01 -5.000000e+00
    endloop
  endfacet
  facet normal 0.000000e+00 0.000000e+00 -1.000000e+00
    outer loop
      vertex 4.000000e+00 4.000000e+01 -5.000000e+00
      vertex 0.000000e+00 4.000000e+01 -5.000000e+00
      vertex 0.000000e+00 4.500000e+01 -5.000000e+00
    endloop
  endfacet
  facet normal 0.000000e+00 0.000000e+00 -1.000000e+00
    outer loop
      vertex 4.000000e+00 3.500000e+01 -5.000000e+00
      vertex 0.000000e+00 4.000000e+01 -5.000000e+00
      vertex 4.000000e+00 4.000000e+01 -5.000000e+00
    endloop
  endfacet
  facet normal 0.000000e+00 0.000000e+00 -1.000000e+00
    outer loop
      vertex 4.000000e+00 4.500000e+01 -5.000000e+00
      vertex 0.000000e+00 4.500000e+01 -5.000000e+00
      vertex 0.000000e+00 5.000000e+01 -5.000000e+00
    endloop
  endfacet
  facet normal 0.000000e+00 0.000000e+00 -1.000000e+00
    outer loop
      vertex 4.000000e+00 4.000000e+01 -5.000000e+00
      vertex 0.000000e+00 4.500000e+01 -5.000000e+00
      vertex 4.000000e+00 4.500000e+01 -5.000000e+00
    endloop
  endfacet
  facet normal 0.000000e+00 0.000000e+00 -1.000000e+00
    outer loop
      vertex 4.000000e+00 5.000000e+01 -5.000000e+00
      vertex 0.000000e+00 5.000000e+01 -5.000000e+00
      vertex 0.000000e+00 5.500000e+01 -5.000000e+00
    endloop
  endfacet
  facet normal 0.000000e+00 0.000000e+00 -1.000000e+00
    outer loop
      vertex 4.000000e+00 4.500000e+01 -5.000000e+00
      vertex 0.000000e+00 5.000000e+01 -5.000000e+00
      vertex 4.000000e+00 5.000000e+01 -5.000000e+00
    endloop
  endfacet
  facet normal 0.000000e+00 0.000000e+00 -1.000000e+00
    outer loop
      vertex 4.000000e+00 5.500000e+01 -5.000000e+00
      vertex 0.000000e+00 5.500000e+01 -5.000000e+00
      vertex 0.000000e+00 6.000000e+01 -5.000000e+00
    endloop
  endfacet
  facet normal 0.000000e+00 0.000000e+00 -1.000000e+00
    outer loop
      vertex 4.000000e+00 5.000000e+01 -5.000000e+00
      vertex 0.000000e+00 5.500000e+01 -5.000000e+00
      vertex 4.000000e+00 5.500000e+01 -5.000000e+00
    endloop
  endfacet
  facet normal 0.000000e+00 0.000000e+00 -1.000000e+00
    outer loop
      vertex 4.000000e+00 6.000000e+01 -5.000000e+00
      vertex 0.000000e+00 6.000000e+01 -5.000000e+00
      vertex 0.000000e+00 6.500000e+01 -5.000000e+00
    endloop
  endfacet
  facet normal 0.000000e+00 0.000000e+00 -1.000000e+00
    outer loop
      vertex 4.000000e+00 5.500000e+01 -5.000000e+00
      vertex 0.000000e+00 6.000000e+01 -5.000000e+00
      vertex 4.000000e+00 6.000000e+01 -5.000000e+00
    endloop
  endfacet
  facet normal 0.000000e+00 0.000000e+00 -1.000000e+00
    outer loop
      vertex 4.000000e+00 6.500000e+01 -5.000000e+00
      vertex 0.000000e+00 6.500000e+01 -5.000000e+00
      vertex 0.000000e+00 7.000000e+01 -5.000000e+00
    endloop
  endfacet
  facet normal 0.000000e+00 0.000000e+00 -1.000000e+00
    outer loop
      vertex 4.000000e+00 6.000000e+01 -5.000000e+00
      vertex 0.000000e+00 6.500000e+01 -5.000000e+00
      vertex 4.000000e+00 6.500000e+01 -5.000000e+00
    endloop
  endfacet
  facet normal -1.000000e+00 0.000000e+00 0.000000e+00
    outer loop
      vertex 0.000000e+00 7.500000e+01 -9.325873e-15
      vertex 0.000000e+00 7.500000e+01 -5.000000e+00
      vertex 0.000000e+00 7.000000e+01 -5.000000e+00
    endloop
  endfacet
  facet normal 0.000000e+00 0.000000e+00 -1.000000e+00
    outer loop
      vertex 4.000000e+00 7.000000e+01 -5.000000e+00
      vertex 0.000000e+00 7.000000e+01 -5.000000e+00
      vertex 0.000000e+00 7.500000e+01 -5.000000e+00
    endloop
  endfacet
  facet normal 0.000000e+00 0.000000e+00 -1.000000e+00
    outer loop
      vertex 4.000000e+00 6.500000e+01 -5.000000e+00
      vertex 0.000000e+00 7.000000e+01 -5.000000e+00
      vertex 4.000000e+00 7.000000e+01 -5.000000e+00
    endloop
  endfacet
  facet normal 0.000000e+00 1.000000e+00 0.000000e+00
    outer loop
      vertex 4.000000e+00 7.500000e+01 -5.000000e+00
      vertex 0.000000e+00 7.500000e+01 -5.000000e+00
      vertex 0.000000e+00 7.500000e+01 -9.325873e-15
    endloop
  endfacet
  facet normal 0.000000e+00 0.000000e+00 -1.000000e+00
    outer loop
      vertex 4.000000e+00 7.000000e+01 -5.000000e+00
      vertex 0.000000e+00 7.500000e+01 -5.000000e+00
      vertex 4.000000e+00 7.500000e+01 -5.000000e+00
    endloop
  endfacet
  facet normal 0.000000e+00 1.000000e+00 0.000000e+00
    outer loop
      vertex 4.000000e+00 7.500000e+01 -5.000000e+00
      vertex 0.000000e+00 7.500000e+01 -9.325873e-15
      vertex 4.000000e+00 7.500000e+01 -9.325873e-15
    endloop
  endfacet
  facet normal 1.000000e+00 0.000000e+00 0.000000e+00
    outer loop
      vertex 4.000000e+00 7.000000e+01 5.000000e+00
      vertex 4.000000e+00 7.500000e+01 -9.325873e-15
      vertex 4.000000e+00 7.500000e+01 5.000000e+00
    endloop
  endfacet
  facet normal 1.000000e+00 0.000000e+00 0.000000e+00
    outer loop
      vertex 4.000000e+00 7.000000e+01 5.000000e+00
      vertex 4.000000e+00 7.500000e+01 -5.000000e+00
      vertex 4.000000e+00 7.500000e+01 -9.325873e-15
    endloop
  endfacet
  facet normal 1.000000e+00 0.000000e+00 0.000000e+00
    outer loop
      vertex 4.000000e+00 7.000000e+01 5.000000e+00
      vertex 4.000000e+00 7.000000e+01 -5.000000e+00
      vertex 4.000000e+00 7.500000e+01 -5.000000e+00
    endloop
  endfacet
  facet normal 1.000000e+00 0.000000e+00 0.000000e+00
    outer loop
      vertex 4.000000e+00 6.500000e+01 5.000000e+00
      vertex 4.000000e+00 6.500000e+01 -5.000000e+00
      vertex 4.000000e+00 7.000000e+01 -5.000000e+00
    endloop
  endfacet
  facet normal 1.000000e+00 0.000000e+00 0.000000e+00
    outer loop
      vertex 4.000000e+00 7.000000e+01 5.000000e+00
      vertex 4.000000e+00 6.500000e+01 5.000000e+00
      vertex 4.000000e+00 7.000000e+01 -5.000000e+00
    endloop
  endfacet
  facet normal 1.000000e+00 0.000000e+00 0.000000e+00
    outer loop
      vertex 4.000000e+00 6.000000e+01 5.000000e+00
      vertex 4.000000e+00 6.000000e+01 -5.000000e+00
      vertex 4.000000e+00 6.500000e+01 -5.000000e+00
    endloop
  endfacet
  facet normal 1.000000e+00 0.000000e+00 0.000000e+00
    outer loop
      vertex 4.000000e+00 6.500000e+01 5.000000e+00
      vertex 4.000000e+00 6.000000e+01 5.000000e+00
      vertex 4.000000e+00 6.500000e+01 -5.000000e+00
    endloop
  endfacet
  facet normal 1.000000e+00 0.000000e+00 0.000000e+00
    outer loop
      vertex 4.000000e+00 5.500000e+01 5.000000e+00
      vertex 4.000000e+00 5.500000e+01 -5.000000e+00
      vertex 4.000000e+00 6.000000e+01 -5.000000e+00
    endloop
  endfacet
  facet normal 1.000000e+00 0.000000e+00 0.000000e+00
    outer loop
      vertex 4.000000e+00 6.000000e+01 5.000000e+00
      vertex 4.000000e+00 5.500000e+01 5.000000e+00
      vertex 4.000000e+00 6.000000e+01 -5.000000e+00
    endloop
  endfacet
  facet normal 1.000000e+00 0.000000e+00 0.000000e+00
    outer loop
      vertex 4.000000e+00 5.000000e+01 5.000000e+00
      vertex 4.000000e+00 5.000000e+01 -5.000000e+00
      vertex 4.000000e+00 5.500000e+01 -5.000000e+00
    endloop
  endfacet
  facet normal 1.000000e+00 0.000000e+00 0.000000e+00
    outer loop
      vertex 4.000000e+00 5.500000e+01 5.000000e+00
      vertex 4.000000e+00 5.000000e+01 5.000000e+00
      vertex 4.000000e+00 5.500000e+01 -5.000000e+00
    endloop
  endfacet
  facet normal 1.000000e+00 0.000000e+00 0.000000e+00
    outer loop
      vertex 4.000000e+00 4.500000e+01 5.000000e+00
      vertex 4.000000e+00 4.500000e+01 -5.000000e+00
      vertex 4.000000e+00 5.000000e+01 -5.000000e+00
    endloop
  endfacet
  facet normal 1.000000e+00 0.000000e+00 0.000000e+00
    outer loop
      vertex 4.000000e+00 5.000000e+01 5.000000e+00
      vertex 4.000000e+00 4.500000e+01 5.000000e+00
      vertex 4.000000e+00 5.000000e+01 -5.000000e+00
    endloop
  endfacet
  facet normal 1.000000e+00 0.000000e+00 0.000000e+00
    outer loop
      vertex 4.000000e+00 4.000000e+01 5.000000e+00
      vertex 4.000000e+00 4.000000e+01 -5.000000e+00
      vertex 4.000000e+00 4.500000e+01 -5.000000e+00
    endloop
  endfacet
  facet normal 1.000000e+00 0.000000e+00 0.000000e+00
    outer loop
      vertex 4.000000e+00 4.500000e+01 5.000000e+00
      vertex 4.000000e+00 4.000000e+01 5.000000e+00
      vertex 4.000000e+00 4.500000e+01 -5.000000e+00
    endloop
  endfacet
  facet normal 1.000000e+00 0.000000e+00 0.000000e+00
    outer loop
      vertex 4.000000e+00 3.500000e+01 5.000000e+00
      vertex 4.000000e+00 3.500000e+01 -5.000000e+00
      vertex 4.000000e+00 4.000000e+01 -5.000000e+00
    endloop
  endfacet
  facet normal 1.000000e+00 0.000000e+00 0.000000e+00
    outer loop
      vertex 4.000000e+00 4.000000e+01 5.000000e+00
      vertex 4.000000e+00 3.500000e+01 5.000000e+00
      vertex 4.000000e+00 4.000000e+01 -5.000000e+00
    endloop
  endfacet
  facet normal 1.000000e+00 0.000000e+00 0.000000e+00
    outer loop
      vertex 4.000000e+00 3.000000e+01 5.000000e+00
      vertex 4.000000e+00 3.000000e+01 -5.000000e+00
      vertex 4.000000e+00 3.500000e+01 -5.000000e+00
    endloop
  endfacet
  facet normal 1.000000e+00 0.000000e+00 0.000000e+00
    outer loop
      vertex 4.000000e+00 3.500000e+01 5.000000e+00
      vertex 4.000000e+00 3.000000e+01 5.000000e+00
      vertex 4.000000e+00 3.500000e+01 -5.000000e+00
    endloop
  endfacet
  facet normal 1.000000e+00 0.000000e+00 0.000000e+00
    outer loop
      vertex 4.000000e+00 2.500000e+01 5.000000e+00
      vertex 4.000000e+00 2.500000e+01 -5.000000e+00
      vertex 4.000000e+00 3.000000e+01 -5.000000e+00
    endloop
  endfacet
  facet normal 1.000000e+00 0.000000e+00 0.000000e+00
    outer loop
      vertex 4.000000e+00 3.000000e+01 5.000000e+00
      vertex 4.000000e+00 2.500000e+01 5.000000e+00
      vertex 4.000000e+00 3.000000e+01 -5.000000e+00
    endloop
  endfacet
  facet normal 1.000000e+00 0.000000e+00 0.000000e+00
    outer loop
      vertex 4.000000e+00 2.000000e+01 5.000000e+00
      vertex 4.000000e+00 2.000000e+01 -5.000000e+00
      vertex 4.000000e+00 2.500000e+01 -5.000000e+00
    endloop
  endfacet
  facet normal 1.000000e+00 0.000000e+00 0.000000e+00
    outer loop
      vertex 4.000000e+00 2.500000e+01 5.000000e+00
      vertex 4.000000e+00 2.000000e+01 5.000000e+00
      vertex 4.000000e+00 2.500000e+01 -5.000000e+00
    endloop
  endfacet
  facet normal 1.000000e+00 0.000000e+00 0.000000e+00
    outer loop
      vertex 4.000000e+00 1.500000e+01 5.000000e+00
      vertex 4.000000e+00 1.500000e+01 -5.000000e+00
      vertex 4.000000e+00 2.000000e+01 -5.000000e+00
    endloop
  endfacet
  facet normal 1.000000e+00 0.000000e+00 0.000000e+00
    outer loop
      vertex 4.000000e+00 2.000000e+01 5.000000e+00
      vertex 4.000000e+00 1.500000e+01 5.000000e+00
      vertex 4.000000e+00 2.000000e+01 -5.000000e+00
    endloop
  endfacet
  facet normal 1.000000e+00 0.000000e+00 0.000000e+00
    outer loop
      vertex 4.000000e+00 1.000000e+01 5.000000e+00
      vertex 4.000000e+00 1.000000e+01 -5.000000e+00
      vertex 4.000000e+00 1.500000e+01 -5.000000e+00
    endloop
  endfacet
  facet normal 1.000000e+00 0.000000e+00 0.000000e+00
    outer loop
      vertex 4.000000e+00 1.500000e+01 5.000000e+00
      vertex 4.000000e+00 1.000000e+01 5.000000e+00
      vertex 4.000000e+00 1.500000e+01 -5.000000e+00
    endloop
  endfacet
  facet normal 1.000000e+00 0.000000e+00 0.000000e+00
    outer loop
      vertex 4.000000e+00 5.000000e+00 5.000000e+00
      vertex 4.000000e+00 5.000000e+00 -5.000000e+00
      vertex 4.000000e+00 1.000000e+01 -5.000000e+00
    endloop
  endfacet
  facet normal 1.000000e+00 0.000000e+00 0.000000e+00
    outer loop
      vertex 4.000000e+00 1.000000e+01 5.000000e+00
      vertex 4.000000e+00 5.000000e+00 5.000000e+00
      vertex 4.000000e+00 1.000000e+01 -5.000000e+00
    endloop
  endfacet
  facet normal 1.000000e+00 0.000000e+00 0.000000e+00
    outer loop
      vertex 4.000000e+00 2.842171e-14 5.000000e+00
      vertex 4.000000e+00 2.842171e-14 -5.000000e+00
      vertex 4.000000e+00 5.000000e+00 -5.000000e+00
    endloop
  endfacet
  facet normal 1.000000e+00 0.000000e+00 0.000000e+00
    outer loop
      vertex 4.000000e+00 5.000000e+00 5.000000e+00
      vertex 4.000000e+00 2.842171e-14 5.000000e+00
      vertex 4.000000e+00 5.000000e+00 -5.000000e+00
    endloop
  endfacet
  facet normal 1.000000e+00 0.000000e+00 0.000000e+00
    outer loop
      vertex 4.000000e+00 -5.000000e+00 5.000000e+00
      vertex 4.000000e+00 -5.000000e+00 -5.000000e+00
      vertex 4.000000e+00 2.842171e-14 -5.000000e+00
    endloop
  endfacet
  facet normal 1.000000e+00 0.000000e+00 0.000000e+00
    outer loop
      vertex 4.000000e+00 2.842171e-14 5.000000e+00
      vertex 4.000000e+00 -5.000000e+00 5.000000e+00
      vertex 4.000000e+00 2.842171e-14 -5.000000e+00
    endloop
  endfacet
  facet normal 1.000000e+00 0.000000e+00 0.000000e+00
    outer loop
      vertex 4.000000e+00 -1.000000e+01 5.000000e+00
      vertex 4.000000e+00 -1.000000e+01 -5.000000e+00
      vertex 4.000000e+00 -5.000000e+00 -5.000000e+00
    endloop
  endfacet
  facet normal 1.000000e+00 0.000000e+00 0.000000e+00
    outer loop
      vertex 4.000000e+00 -5.000000e+00 5.000000e+00
      vertex 4.000000e+00 -1.000000e+01 5.000000e+00
      vertex 4.000000e+00 -5.000000e+00 -5.000000e+00
    endloop
  endfacet
  facet normal 1.000000e+00 0.000000e+00 0.000000e+00
    outer loop
      vertex 4.000000e+00 -1.500000e+01 5.000000e+00
      vertex 4.000000e+00 -1.500000e+01 -5.000000e+00
      vertex 4.000000e+00 -1.000000e+01 -5.000000e+00
    endloop
  endfacet
  facet normal 1.000000e+00 0.000000e+00 0.000000e+00
    outer loop
      vertex 4.000000e+00 -1.000000e+01 5.000000e+00
      vertex 4.000000e+00 -1.500000e+01 5.000000e+00
      vertex 4.000000e+00 -1.000000e+01 -5.000000e+00
    endloop
  endfacet
  facet normal 1.000000e+00 0.000000e+00 0.000000e+00
    outer loop
      vertex 4.000000e+00 -2.000000e+01 5.000000e+00
      vertex 4.000000e+00 -2.000000e+01 -5.000000e+00
      vertex 4.000000e+00 -1.500000e+01 -5.000000e+00
    endloop
  endfacet
  facet normal 1.000000e+00 0.000000e+00 0.000000e+00
    outer loop
      vertex 4.000000e+00 -1.500000e+01 5.000000e+00
      vertex 4.000000e+00 -2.000000e+01 5.000000e+00
      vertex 4.000000e+00 -1.500000e+01 -5.000000e+00
    endloop
  endfacet
  facet normal 1.000000e+00 0.000000e+00 0.000000e+00
    outer loop
      vertex 4.000000e+00 -2.500000e+01 5.000000e+00
      vertex 4.000000e+00 -2.500000e+01 -5.000000e+00
      vertex 4.000000e+00 -2.000000e+01 -5.000000e+00
    endloop
  endfacet
  facet normal 1.000000e+00 0.000000e+00 0.000000e+00
    outer loop
      vertex 4.000000e+00 -2.000000e+01 5.000000e+00
      vertex 4.000000e+00 -2.500000e+01 5.000000e+00
      vertex 4.000000e+00 -2.000000e+01 -5.000000e+00
    endloop
  endfacet
  facet normal 1.000000e+00 0.000000e+00 0.000000e+00
    outer loop
      vertex 4.000000e+00 -3.000000e+01 5.000000e+00
      vertex 4.000000e+00 -3.000000e+01 -5.000000e+00
      vertex 4.000000e+00 -2.500000e+01 -5.000000e+00
    endloop
  endfacet
  facet normal 1.000000e+00 0.000000e+00 0.000000e+00
    outer loop
      vertex 4.000000e+00 -2.500000e+01 5.000000e+00
      vertex 4.000000e+00 -3.000000e+01 5.000000e+00
      vertex 4.000000e+00 -2.500000e+01 -5.000000e+00
    endloop
  endfacet
  facet normal 1.000000e+00 0.000000e+00 0.000000e+00
    outer loop
      vertex 4.000000e+00 -3.500000e+01 5.000000e+00
      vertex 4.000000e+00 -3.500000e+01 -5.000000e+00
      vertex 4.000000e+00 -3.000000e+01 -5.000000e+00
    endloop
  endfacet
  facet normal 1.000000e+00 0.000000e+00 0.000000e+00
    outer loop
      vertex 4.000000e+00 -3.000000e+01 5.000000e+00
      vertex 4.000000e+00 -3.500000e+01 5.000000e+00
      vertex 4.000000e+00 -3.000000e+01 -5.000000e+00
    endloop
  endfacet
  facet normal 1.000000e+00 0.000000e+00 0.000000e+00
    outer loop
      vertex 4.000000e+00 -4.000000e+01 5.000000e+00
      vertex 4.000000e+00 -4.000000e+01 -5.000000e+00
      vertex 4.000000e+00 -3.500000e+01 -5.000000e+00
    endloop
  endfacet
  facet normal 1.000000e+00 0.000000e+00 0.000000e+00
    outer loop
      vertex 4.000000e+00 -3.500000e+01 5.000000e+00
      vertex 4.000000e+00 -4.000000e+01 5.000000e+00
      vertex 4.000000e+00 -3.500000e+01 -5.000000e+00
    endloop
  endfacet
  facet normal 1.000000e+00 0.000000e+00 0.000000e+00
    outer loop
      vertex 4.000000e+00 -4.500000e+01 5.000000e+00
      vertex 4.000000e+00 -4.500000e+01 -5.000000e+00
      vertex 4.000000e+00 -4.000000e+01 -5.000000e+00
    endloop
  endfacet
  facet normal 1.000000e+00 0.000000e+00 0.000000e+00
    outer loop
      vertex 4.000000e+00 -4.000000e+01 5.000000e+00
      vertex 4.000000e+00 -4.500000e+01 5.000000e+00
      vertex 4.000000e+00 -4.000000e+01 -5.000000e+00
    endloop
  endfacet
  facet normal 1.000000e+00 0.000000e+00 0.000000e+00
    outer loop
      vertex 4.000000e+00 -5.000000e+01 5.000000e+00
      vertex 4.000000e+00 -5.000000e+01 -5.000000e+00
      vertex 4.000000e+00 -4.500000e+01 -5.000000e+00
    endloop
  endfacet
  facet normal 1.000000e+00 0.000000e+00 0.000000e+00
    outer loop
      vertex 4.000000e+00 -4.500000e+01 5.000000e+00
      vertex 4.000000e+00 -5.000000e+01 5.000000e+00
      vertex 4.000000e+00 -4.500000e+01 -5.000000e+00
    endloop
  endfacet
  facet normal 1.000000e+00 0.000000e+00 0.000000e+00
    outer loop
      vertex 4.000000e+00 -5.500000e+01 5.000000e+00
      vertex 4.000000e+00 -5.500000e+01 -5.000000e+00
      vertex 4.000000e+00 -5.000000e+01 -5.000000e+00
    endloop
  endfacet
  facet normal 1.000000e+00 0.000000e+00 0.000000e+00
    outer loop
      vertex 4.000000e+00 -5.000000e+01 5.000000e+00
      vertex 4.000000e+00 -5.500000e+01 5.000000e+00
      vertex 4.000000e+00 -5.000000e+01 -5.000000e+00
    endloop
  endfacet
  facet normal 1.000000e+00 0.000000e+00 0.000000e+00
    outer loop
      vertex 4.000000e+00 -6.000000e+01 5.000000e+00
      vertex 4.000000e+00 -6.000000e+01 -5.000000e+00
      vertex 4.000000e+00 -5.500000e+01 -5.000000e+00
    endloop
  endfacet
  facet normal 1.000000e+00 0.000000e+00 0.000000e+00
    outer loop
      vertex 4.000000e+00 -5.500000e+01 5.000000e+00
      vertex 4.000000e+00 -6.000000e+01 5.000000e+00
      vertex 4.000000e+00 -5.500000e+01 -5.000000e+00
    endloop
  endfacet
  facet normal 1.000000e+00 0.000000e+00 0.000000e+00
    outer loop
      vertex 4.000000e+00 -6.500000e+01 5.000000e+00
      vertex 4.000000e+00 -6.500000e+01 -5.000000e+00
      vertex 4.000000e+00 -6.000000e+01 -5.000000e+00
    endloop
  endfacet
  facet normal 1.000000e+00 0.000000e+00 0.000000e+00
    outer loop
      vertex 4.000000e+00 -6.000000e+01 5.000000e+00
      vertex 4.000000e+00 -6.500000e+01 5.000000e+00
      vertex 4.000000e+00 -6.000000e+01 -5.000000e+00
    endloop
  endfacet
  facet normal 1.000000e+00 0.000000e+00 0.000000e+00
    outer loop
      vertex 4.000000e+00 -7.000000e+01 5.000000e+00
      vertex 4.000000e+00 -7.000000e+01 -5.000000e+00
      vertex 4.000000e+00 -6.500000e+01 -5.000000e+00
    endloop
  endfacet
  facet normal 1.000000e+00 0.000000e+00 0.000000e+00
    outer loop
      vertex 4.000000e+00 -6.500000e+01 5.000000e+00
      vertex 4.000000e+00 -7.000000e+01 5.000000e+00
      vertex 4.000000e+00 -6.500000e+01 -5.000000e+00
    endloop
  endfacet
  facet normal 1.000000e+00 0.000000e+00 0.000000e+00
    outer loop
      vertex 4.000000e+00 -7.500000e+01 -9.325873e-15
      vertex 4.000000e+00 -7.500000e+01 -5.000000e+00
      vertex 4.000000e+00 -7.000000e+01 -5.000000e+00
    endloop
  endfacet
  facet normal 1.000000e+00 0.000000e+00 0.000000e+00
    outer loop
      vertex 4.000000e+00 -7.500000e+01 5.000000e+00
      vertex 4.000000e+00 -7.500000e+01 -9.325873e-15
      vertex 4.000000e+00 -7.000000e+01 -5.000000e+00
    endloop
  endfacet
  facet normal 1.000000e+00 0.000000e+00 0.000000e+00
    outer loop
      vertex 4.000000e+00 -7.000000e+01 5.000000e+00
      vertex 4.000000e+00 -7.500000e+01 5.000000e+00
      vertex 4.000000e+00 -7.000000e+01 -5.000000e+00
    endloop
  endfacet
endsolid RECHTECK_DIREKT
