<?xml version="1.0" encoding="UTF-8" standalone="no"?>
<!-- Created with Inkscape (http://www.inkscape.org/) -->

<svg
   width="196.95872mm"
   height="102.23494mm"
   viewBox="0 0 196.95872 102.23494"
   version="1.1"
   id="svg5"
   inkscape:version="1.3.2 (091e20e, 2023-11-25, custom)"
   sodipodi:docname="trapezoid_profile.svg"
   xmlns:inkscape="http://www.inkscape.org/namespaces/inkscape"
   xmlns:sodipodi="http://sodipodi.sourceforge.net/DTD/sodipodi-0.dtd"
   xmlns="http://www.w3.org/2000/svg"
   xmlns:svg="http://www.w3.org/2000/svg">
  <sodipodi:namedview
     id="namedview7"
     pagecolor="#ffffff"
     bordercolor="#666666"
     borderopacity="1.0"
     inkscape:showpageshadow="2"
     inkscape:pageopacity="0.0"
     inkscape:pagecheckerboard="0"
     inkscape:deskcolor="#d1d1d1"
     inkscape:document-units="mm"
     showgrid="false"
     inkscape:zoom="2.1089996"
     inkscape:cx="383.35712"
     inkscape:cy="233.9972"
     inkscape:window-width="2560"
     inkscape:window-height="1377"
     inkscape:window-x="2552"
     inkscape:window-y="-8"
     inkscape:window-maximized="1"
     inkscape:current-layer="g772"
     showguides="true"
     inkscape:lockguides="true">
    <sodipodi:guide
       position="21.468428,29.165669"
       orientation="-0.8660254,0.5"
       id="guide3420"
       inkscape:locked="true"
       inkscape:label=""
       inkscape:color="rgb(0,134,229)" />
    <sodipodi:guide
       position="159.75069,58.35115"
       orientation="-0.86332269,-0.50465229"
       id="guide3422"
       inkscape:locked="true" />
    <sodipodi:guide
       position="21.468428,81.044699"
       orientation="0,-1"
       id="guide3623"
       inkscape:locked="true" />
  </sodipodi:namedview>
  <defs
     id="defs2">
    <marker
       style="overflow:visible"
       id="Arrow2"
       refX="0"
       refY="0"
       orient="auto-start-reverse"
       inkscape:stockid="Arrow2"
       markerWidth="7.6999998"
       markerHeight="5.5999999"
       viewBox="0 0 7.7 5.6"
       inkscape:isstock="true"
       inkscape:collect="always"
       preserveAspectRatio="xMidYMid">
      <path
         transform="scale(0.7)"
         d="M -2,-4 9,0 -2,4 c 2,-2.33 2,-5.66 0,-8 z"
         style="fill:context-stroke;fill-rule:evenodd;stroke:none"
         id="arrow2L" />
    </marker>
    <clipPath
       id="clipPath8521">
      <path
         clip-rule="nonzero"
         d="M 3,17 H 16 V 30.066406 H 3 Z m 0,0"
         id="path4245" />
    </clipPath>
    <clipPath
       id="clipPath2236">
      <path
         clip-rule="nonzero"
         d="m 16,19 h 6 v 11.066406 h -6 z m 0,0"
         id="path7400" />
    </clipPath>
    <clipPath
       id="clipPath3362">
      <path
         clip-rule="nonzero"
         d="M 57,10 H 68.804688 V 22 H 57 Z m 0,0"
         id="path7512" />
    </clipPath>
  </defs>
  <g
     inkscape:label="Ebene 1"
     inkscape:groupmode="layer"
     id="layer1"
     transform="translate(-3.72512, -65.8501)">
    <path
       style="fill:none;stroke:#000000;stroke-width:1;stroke-linecap:butt;stroke-linejoin:miter;stroke-dasharray:none;stroke-opacity:1;marker-start:url(#Arrow2);marker-end:url(#Arrow2)"
       d="M 25.221637,75.561634 V 155.83288 H 194.38384"
       id="path236" />
    <path
       style="fill:none;stroke:#000000;stroke-width:0.65;stroke-linecap:butt;stroke-linejoin:miter;stroke-dasharray:none;stroke-opacity:1"
       d="m 25.193548,138.91935 29.717743,-51.629028 95.320389,0.21414 19.07152,32.198508"
       id="path1363"
       sodipodi:nodetypes="cccc" />
    <path
       style="fill:none;stroke:#000000;stroke-width:0.5;stroke-linecap:butt;stroke-linejoin:miter;stroke-dasharray:0.5, 1;stroke-dashoffset:0;stroke-opacity:1"
       d="M 54.911289,87.201612 V 155.33064"
       id="path1367" />
    <path
       style="fill:none;stroke:#000000;stroke-width:0.5;stroke-linecap:butt;stroke-linejoin:miter;stroke-dasharray:0.5, 1;stroke-dashoffset:0;stroke-opacity:1"
       d="M 150.23168,87.504462 V 156.06531"
       id="path1371" />
    <path
       style="fill:none;stroke:#000000;stroke-width:0.5;stroke-linecap:butt;stroke-linejoin:miter;stroke-dasharray:0.5, 1;stroke-dashoffset:0;stroke-opacity:1"
       d="m 169.3032,119.70297 0.27963,36.36234"
       id="path1373"
       sodipodi:nodetypes="cc" />
    <path
       style="fill:none;stroke:#000000;stroke-width:0.5;stroke-linecap:butt;stroke-linejoin:miter;stroke-dasharray:0.5, 1;stroke-dashoffset:0;stroke-opacity:1"
       d="M 54.911291,87.290322 H 25.193548"
       id="path2125" />
    <path
       style="fill:none;stroke:#000000;stroke-width:0.5;stroke-linecap:butt;stroke-linejoin:miter;stroke-dasharray:0.5, 1;stroke-dashoffset:0;stroke-opacity:1"
       d="m 169.3032,119.70297 -144.391323,-0.002"
       id="path2127"
       sodipodi:nodetypes="cc" />
    <text
       xml:space="preserve"
       style="font-style:normal;font-weight:normal;font-size:10.5833px;line-height:1.25;font-family:sans-serif;fill:#000000;fill-opacity:1;stroke:none;stroke-width:0.264583"
       x="195.87097"
       y="166.95161"
       id="text2196"><tspan
         sodipodi:role="line"
         id="tspan2194"
         style="font-style:italic;font-variant:normal;font-weight:500;font-stretch:normal;font-family:'CMU Serif';-inkscape-font-specification:'CMU Serif Medium Italic';stroke-width:0.264583"
         x="195.87097"
         y="166.95161">t</tspan></text>
    <text
       xml:space="preserve"
       style="font-style:normal;font-variant:normal;font-weight:normal;font-stretch:normal;font-size:10.5833px;line-height:1.25;font-family:'Cambria Math';-inkscape-font-specification:'Cambria Math';fill:#000000;fill-opacity:1;stroke:none;stroke-width:0.264583"
       x="16.67742"
       y="70.790329"
       id="text2200"><tspan
         sodipodi:role="line"
         id="tspan2198"
         style="font-style:italic;font-variant:normal;font-weight:500;font-stretch:normal;font-family:'CMU Serif';-inkscape-font-specification:'CMU Serif Medium Italic';stroke-width:0.264583"
         x="16.67742"
         y="70.790329">v</tspan></text>
    <text
       xml:space="preserve"
       style="font-style:normal;font-variant:normal;font-weight:500;font-stretch:normal;font-size:8.46667px;line-height:1.25;font-family:'CMU Serif';-inkscape-font-specification:'CMU Serif Medium';fill:#000000;fill-opacity:1;stroke:none;stroke-width:0.264583"
       x="5.2340727"
       y="88.072845"
       id="text2965"><tspan
         sodipodi:role="line"
         id="tspan2963"
         style="font-style:normal;font-variant:normal;font-weight:500;font-stretch:normal;font-size:8.46667px;font-family:'CMU Serif';-inkscape-font-specification:'CMU Serif Medium';stroke-width:0.264583"
         x="5.2340727"
         y="88.072845"><tspan
           style="font-style:italic;font-variant:normal;font-weight:500;font-stretch:normal;font-family:'CMU Serif';-inkscape-font-specification:'CMU Serif Medium Italic'"
           id="tspan2">v</tspan><tspan
           style="font-style:normal;font-variant:normal;font-weight:500;font-stretch:normal;font-size:65%;font-family:'CMU Serif';-inkscape-font-specification:'CMU Serif Medium';baseline-shift:sub"
           id="tspan3051">const</tspan></tspan></text>
    <text
       xml:space="preserve"
       style="font-style:normal;font-variant:normal;font-weight:500;font-stretch:normal;font-size:8.46667px;line-height:1.25;font-family:'CMU Serif';-inkscape-font-specification:'CMU Serif Medium';font-variant-ligatures:normal;font-variant-caps:normal;font-variant-numeric:normal;font-variant-east-asian:normal;fill:#000000;fill-opacity:1;stroke:none;stroke-width:0.264583"
       x="15.255893"
       y="120.58041"
       id="text2965-3"><tspan
         sodipodi:role="line"
         id="tspan2963-5"
         style="font-style:normal;font-variant:normal;font-weight:500;font-stretch:normal;font-size:8.46667px;font-family:'CMU Serif';-inkscape-font-specification:'CMU Serif Medium';font-variant-ligatures:normal;font-variant-caps:normal;font-variant-numeric:normal;font-variant-east-asian:normal;stroke-width:0.264583"
         x="15.255893"
         y="120.58041"><tspan
           style="font-style:italic;font-variant:normal;font-weight:500;font-stretch:normal;font-family:'CMU Serif';-inkscape-font-specification:'CMU Serif Medium Italic'"
           id="tspan1">v</tspan><tspan
           style="font-style:normal;font-variant:normal;font-weight:500;font-stretch:normal;font-size:65%;font-family:'CMU Serif';-inkscape-font-specification:'CMU Serif Medium';baseline-shift:sub"
           id="tspan776">1</tspan></tspan></text>
    <text
       xml:space="preserve"
       style="font-style:normal;font-variant:normal;font-weight:500;font-stretch:normal;font-size:8.46667px;line-height:1.25;font-family:'CMU Serif';-inkscape-font-specification:'CMU Serif Medium';font-variant-ligatures:normal;font-variant-caps:normal;font-variant-numeric:normal;font-variant-east-asian:normal;fill:#000000;fill-opacity:1;stroke:none;stroke-width:0.264583"
       x="15.214242"
       y="138.65694"
       id="text2965-3-7"><tspan
         sodipodi:role="line"
         id="tspan2963-5-4"
         style="font-style:normal;font-variant:normal;font-weight:500;font-stretch:normal;font-size:8.46667px;font-family:'CMU Serif';-inkscape-font-specification:'CMU Serif Medium';font-variant-ligatures:normal;font-variant-caps:normal;font-variant-numeric:normal;font-variant-east-asian:normal;stroke-width:0.264583"
         x="15.214242"
         y="138.65694"><tspan
           style="font-style:italic;font-variant:normal;font-weight:500;font-stretch:normal;font-family:'CMU Serif';-inkscape-font-specification:'CMU Serif Medium Italic'"
           id="tspan3">v</tspan><tspan
           style="font-style:normal;font-variant:normal;font-weight:500;font-stretch:normal;font-size:65%;font-family:'CMU Serif';-inkscape-font-specification:'CMU Serif Medium';baseline-shift:sub"
           id="tspan774">0</tspan></tspan></text>
    <text
       xml:space="preserve"
       style="font-style:normal;font-variant:normal;font-weight:500;font-stretch:normal;font-size:10.5833px;line-height:1.25;font-family:'CMU Serif';-inkscape-font-specification:'CMU Serif Medium';fill:#000000;fill-opacity:1;stroke:none;stroke-width:0.264583"
       x="33.708992"
       y="165.6799"
       id="text3153"><tspan
         sodipodi:role="line"
         id="tspan3151"
         style="font-style:normal;font-variant:normal;font-weight:500;font-stretch:normal;font-family:'CMU Serif';-inkscape-font-specification:'CMU Serif Medium';stroke-width:0.264583"
         x="33.708992"
         y="165.6799"><tspan
           style="font-style:italic;font-variant:normal;font-weight:500;font-stretch:normal;font-family:'CMU Serif';-inkscape-font-specification:'CMU Serif Medium Italic'"
           id="tspan7">t</tspan><tspan
           style="font-style:normal;font-variant:normal;font-weight:500;font-stretch:normal;font-size:65%;font-family:'CMU Serif';-inkscape-font-specification:'CMU Serif Medium';baseline-shift:sub"
           id="tspan3155">acc</tspan></tspan></text>
    <text
       xml:space="preserve"
       style="font-style:normal;font-variant:normal;font-weight:500;font-stretch:normal;font-size:10.5833px;line-height:1.25;font-family:'CMU Serif';-inkscape-font-specification:'CMU Serif Medium';fill:#000000;fill-opacity:1;stroke:none;stroke-width:0.264583"
       x="92.555466"
       y="165.6799"
       id="text3153-6"><tspan
         sodipodi:role="line"
         id="tspan3151-6"
         style="font-style:normal;font-variant:normal;font-weight:500;font-stretch:normal;font-family:'CMU Serif';-inkscape-font-specification:'CMU Serif Medium';stroke-width:0.264583"
         x="92.555466"
         y="165.6799"><tspan
           style="font-style:italic;font-variant:normal;font-weight:500;font-stretch:normal;font-family:'CMU Serif';-inkscape-font-specification:'CMU Serif Medium Italic'"
           id="tspan8">t</tspan><tspan
           style="font-style:normal;font-variant:normal;font-weight:500;font-stretch:normal;font-size:65%;font-family:'CMU Serif';-inkscape-font-specification:'CMU Serif Medium';baseline-shift:sub"
           id="tspan3155-4">const</tspan></tspan></text>
    <text
       xml:space="preserve"
       style="font-style:normal;font-variant:normal;font-weight:500;font-stretch:normal;font-size:10.5833px;line-height:1.25;font-family:'CMU Serif';-inkscape-font-specification:'CMU Serif Medium';fill:#000000;fill-opacity:1;stroke:none;stroke-width:0.264583"
       x="152.75098"
       y="165.6799"
       id="text3153-68"><tspan
         sodipodi:role="line"
         id="tspan3151-5"
         style="font-style:normal;font-variant:normal;font-weight:500;font-stretch:normal;font-family:'CMU Serif';-inkscape-font-specification:'CMU Serif Medium';stroke-width:0.264583"
         x="152.75098"
         y="165.6799"><tspan
           style="font-style:italic;font-variant:normal;font-weight:500;font-stretch:normal;font-family:'CMU Serif';-inkscape-font-specification:'CMU Serif Medium Italic'"
           id="tspan9">t</tspan><tspan
           style="font-style:normal;font-variant:normal;font-weight:500;font-stretch:normal;font-size:65%;font-family:'CMU Serif';-inkscape-font-specification:'CMU Serif Medium';baseline-shift:sub"
           id="tspan3155-9">dec</tspan></tspan></text>
    <text
       xml:space="preserve"
       style="font-style:normal;font-variant:normal;font-weight:500;font-stretch:normal;font-size:8.46667px;line-height:1.25;font-family:'CMU Serif';-inkscape-font-specification:'CMU Serif Medium';font-variant-ligatures:normal;font-variant-caps:normal;font-variant-numeric:normal;font-variant-east-asian:normal;fill:#000000;fill-opacity:1;stroke:none;stroke-width:0.264583"
       x="31.89609"
       y="142.14041"
       id="text3253"><tspan
         sodipodi:role="line"
         id="tspan3251"
         style="font-style:normal;font-variant:normal;font-weight:500;font-stretch:normal;font-size:8.46667px;font-family:'CMU Serif';-inkscape-font-specification:'CMU Serif Medium';font-variant-ligatures:normal;font-variant-caps:normal;font-variant-numeric:normal;font-variant-east-asian:normal;stroke-width:0.264583"
         x="31.89609"
         y="142.14041"><tspan
           style="font-style:italic;font-variant:normal;font-weight:500;font-stretch:normal;font-family:'CMU Serif';-inkscape-font-specification:'CMU Serif Medium Italic'"
           id="tspan4">S</tspan><tspan
           style="font-style:normal;font-variant:normal;font-weight:500;font-stretch:normal;font-size:65%;font-family:'CMU Serif';-inkscape-font-specification:'CMU Serif Medium';baseline-shift:sub"
           id="tspan778">acc</tspan></tspan></text>
    <text
       xml:space="preserve"
       style="font-style:normal;font-variant:normal;font-weight:500;font-stretch:normal;font-size:8.46667px;line-height:1.25;font-family:'CMU Serif';-inkscape-font-specification:'CMU Serif Medium';font-variant-ligatures:normal;font-variant-caps:normal;font-variant-numeric:normal;font-variant-east-asian:normal;fill:#000000;fill-opacity:1;stroke:none;stroke-width:0.264583"
       x="93.655334"
       y="142.14041"
       id="text3253-8"><tspan
         sodipodi:role="line"
         id="tspan3251-7"
         style="font-style:normal;font-variant:normal;font-weight:500;font-stretch:normal;font-size:8.46667px;font-family:'CMU Serif';-inkscape-font-specification:'CMU Serif Medium';font-variant-ligatures:normal;font-variant-caps:normal;font-variant-numeric:normal;font-variant-east-asian:normal;stroke-width:0.264583"
         x="93.655334"
         y="142.14041"><tspan
           style="font-style:italic;font-variant:normal;font-weight:500;font-stretch:normal;font-family:'CMU Serif';-inkscape-font-specification:'CMU Serif Medium Italic'"
           id="tspan5">S</tspan><tspan
           style="font-style:normal;font-variant:normal;font-weight:500;font-stretch:normal;font-size:65%;font-family:'CMU Serif';-inkscape-font-specification:'CMU Serif Medium';baseline-shift:sub"
           id="tspan780">const</tspan></tspan></text>
    <text
       xml:space="preserve"
       style="font-style:normal;font-variant:normal;font-weight:500;font-stretch:normal;font-size:8.46667px;line-height:1.25;font-family:'CMU Serif';-inkscape-font-specification:'CMU Serif Medium';font-variant-ligatures:normal;font-variant-caps:normal;font-variant-numeric:normal;font-variant-east-asian:normal;fill:#000000;fill-opacity:1;stroke:none;stroke-width:0.264583"
       x="153.25095"
       y="142.14041"
       id="text3253-2"><tspan
         sodipodi:role="line"
         id="tspan3251-8"
         style="font-style:normal;font-variant:normal;font-weight:500;font-stretch:normal;font-size:8.46667px;font-family:'CMU Serif';-inkscape-font-specification:'CMU Serif Medium';font-variant-ligatures:normal;font-variant-caps:normal;font-variant-numeric:normal;font-variant-east-asian:normal;stroke-width:0.264583"
         x="153.25095"
         y="142.14041"><tspan
           style="font-style:italic;font-variant:normal;font-weight:500;font-stretch:normal;font-family:'CMU Serif';-inkscape-font-specification:'CMU Serif Medium Italic'"
           id="tspan6">S</tspan><tspan
           style="font-style:normal;font-variant:normal;font-weight:500;font-stretch:normal;font-size:65%;font-family:'CMU Serif';-inkscape-font-specification:'CMU Serif Medium';baseline-shift:sub"
           id="tspan782">dec</tspan></tspan></text>
    <path
       style="fill:none;stroke:#000000;stroke-width:0.565;stroke-linecap:butt;stroke-linejoin:miter;stroke-dasharray:none;stroke-opacity:1"
       d="m 45.224844,104.11871 v 8.98613 l -5.172425,0"
       id="path506"
       sodipodi:nodetypes="ccc" />
    <g
       id="g766"
       transform="translate(-0.89680667,1.9590585)">
      <text
         xml:space="preserve"
         style="font-size:6.35px;line-height:1.25;font-family:sans-serif;stroke-width:0.264583"
         x="51.219223"
         y="109.13926"
         id="text2752-1"><tspan
           sodipodi:role="line"
           id="tspan2750-8"
           style="font-style:italic;font-variant:normal;font-weight:500;font-stretch:normal;font-family:'CMU Serif';-inkscape-font-specification:'CMU Serif Medium Italic';stroke-width:0.264583"
           x="51.219223"
           y="109.13926">v</tspan></text>
      <g
         id="use34-2"
         transform="matrix(0.352778,0,0,0.352778,47.508753,109.18956)"
         style="fill:#000000;fill-opacity:1">
        <path
           d="m 6.984375,-11.875 c -0.125,-0.296875 -0.203125,-0.296875 -0.34375,-0.296875 -0.203125,0 -0.21875,0.03125 -0.34375,0.28125 L 0.71875,-0.296875 C 0.703125,-0.265625 0.640625,-0.109375 0.640625,-0.09375 0.640625,-0.015625 0.65625,0 0.96875,0 H 12.3125 c 0.3125,0 0.328125,-0.015625 0.328125,-0.09375 0,-0.015625 -0.07813,-0.171875 -0.09375,-0.203125 z m -0.765625,1.015625 4.765625,9.890625 h -9.5625 z m 0,0"
           id="path70-5" />
      </g>
    </g>
    <g
       id="g772"
       transform="translate(-0.79205083,0.07817986)">
      <text
         xml:space="preserve"
         style="font-size:6.35px;line-height:1.25;font-family:sans-serif;stroke-width:0.264583"
         x="44.577557"
         y="118.38323"
         id="text2752"><tspan
           sodipodi:role="line"
           id="tspan2750"
           style="font-style:italic;font-variant:normal;font-weight:500;font-stretch:normal;font-family:'CMU Serif';-inkscape-font-specification:'CMU Serif Medium Italic';stroke-width:0.264583"
           x="44.577557"
           y="118.38323">t</tspan></text>
      <g
         id="use34-2-6"
         transform="matrix(0.352778,0,0,0.352778,40.151296,118.48796)"
         style="fill:#000000;fill-opacity:1">
        <path
           d="m 6.984375,-11.875 c -0.125,-0.296875 -0.203125,-0.296875 -0.34375,-0.296875 -0.203125,0 -0.21875,0.03125 -0.34375,0.28125 L 0.71875,-0.296875 C 0.703125,-0.265625 0.640625,-0.109375 0.640625,-0.09375 0.640625,-0.015625 0.65625,0 0.96875,0 H 12.3125 c 0.3125,0 0.328125,-0.015625 0.328125,-0.09375 0,-0.015625 -0.07813,-0.171875 -0.09375,-0.203125 z m -0.765625,1.015625 4.765625,9.890625 h -9.5625 z m 0,0"
           id="path70-5-9" />
      </g>
      <g
         id="use34-2-6-9"
         transform="matrix(0.4340952,0,0,0.4340952,29.203611,165.49308)"
         style="fill:#000000;fill-opacity:1;stroke-width:0.812674">
        <path
           d="m 6.984375,-11.875 c -0.125,-0.296875 -0.203125,-0.296875 -0.34375,-0.296875 -0.203125,0 -0.21875,0.03125 -0.34375,0.28125 L 0.71875,-0.296875 C 0.703125,-0.265625 0.640625,-0.109375 0.640625,-0.09375 0.640625,-0.015625 0.65625,0 0.96875,0 H 12.3125 c 0.3125,0 0.328125,-0.015625 0.328125,-0.09375 0,-0.015625 -0.07813,-0.171875 -0.09375,-0.203125 z m -0.765625,1.015625 4.765625,9.890625 h -9.5625 z m 0,0"
           id="path70-5-9-4"
           style="stroke-width:0.812674" />
      </g>
      <g
         id="use34-2-6-9-8"
         transform="matrix(0.4340952,0,0,0.4340952,87.411981,165.49308)"
         style="fill:#000000;fill-opacity:1;stroke-width:0.812674">
        <path
           d="m 6.984375,-11.875 c -0.125,-0.296875 -0.203125,-0.296875 -0.34375,-0.296875 -0.203125,0 -0.21875,0.03125 -0.34375,0.28125 L 0.71875,-0.296875 C 0.703125,-0.265625 0.640625,-0.109375 0.640625,-0.09375 0.640625,-0.015625 0.65625,0 0.96875,0 H 12.3125 c 0.3125,0 0.328125,-0.015625 0.328125,-0.09375 0,-0.015625 -0.07813,-0.171875 -0.09375,-0.203125 z m -0.765625,1.015625 4.765625,9.890625 h -9.5625 z m 0,0"
           id="path70-5-9-4-8"
           style="stroke-width:0.812674" />
      </g>
      <g
         id="use34-2-6-9-8-0"
         transform="matrix(0.4340952,0,0,0.4340952,147.8619,165.49308)"
         style="fill:#000000;fill-opacity:1;stroke-width:0.812674">
        <path
           d="m 6.984375,-11.875 c -0.125,-0.296875 -0.203125,-0.296875 -0.34375,-0.296875 -0.203125,0 -0.21875,0.03125 -0.34375,0.28125 L 0.71875,-0.296875 C 0.703125,-0.265625 0.640625,-0.109375 0.640625,-0.09375 0.640625,-0.015625 0.65625,0 0.96875,0 H 12.3125 c 0.3125,0 0.328125,-0.015625 0.328125,-0.09375 0,-0.015625 -0.07813,-0.171875 -0.09375,-0.203125 z m -0.765625,1.015625 4.765625,9.890625 h -9.5625 z m 0,0"
           id="path70-5-9-4-8-4"
           style="stroke-width:0.812674" />
      </g>
    </g>
    <g
       id="g600"
       transform="translate(62.251285,103.97969)">
      <g
         fill="#000000"
         fill-opacity="1"
         id="g36"
         transform="matrix(0.352778,0,0,0.352778,-0.42168,0.144948)">
        <g
           id="use34"
           transform="translate(1.196,11.761)">
          <path
             d="m 6.984375,-11.875 c -0.125,-0.296875 -0.203125,-0.296875 -0.34375,-0.296875 -0.203125,0 -0.21875,0.03125 -0.34375,0.28125 L 0.71875,-0.296875 C 0.703125,-0.265625 0.640625,-0.109375 0.640625,-0.09375 0.640625,-0.015625 0.65625,0 0.96875,0 H 12.3125 c 0.3125,0 0.328125,-0.015625 0.328125,-0.09375 0,-0.015625 -0.07813,-0.171875 -0.09375,-0.203125 z m -0.765625,1.015625 4.765625,9.890625 h -9.5625 z m 0,0"
             id="path70" />
        </g>
      </g>
      <g
         fill="#000000"
         fill-opacity="1"
         id="g40"
         transform="matrix(0.352778,0,0,0.352778,-0.42168,0.144948)">
        <g
           id="use38"
           transform="translate(14.487,11.761)">
          <path
             d="m 7.875,-6.4375 c 0,-1.09375 -0.5625,-1.15625 -0.6875,-1.15625 -0.421875,0 -0.796875,0.40625 -0.796875,0.765625 0,0.203125 0.125,0.3125 0.1875,0.390625 0.171875,0.15625 0.625,0.625 0.625,1.515625 0,0.71875 -1.03125,4.75 -3.109375,4.75 -1.046875,0 -1.25,-0.875 -1.25,-1.515625 0,-0.859375 0.390625,-2.0625 0.859375,-3.3125 0.28125,-0.703125 0.34375,-0.875 0.34375,-1.21875 0,-0.71875 -0.515625,-1.375 -1.359375,-1.375 -1.578125,0 -2.21875,2.5 -2.21875,2.640625 0,0.0625 0.0625,0.15625 0.1875,0.15625 0.15625,0 0.171875,-0.078125 0.234375,-0.3125 C 1.3125,-6.59375 1.984375,-7.25 2.640625,-7.25 c 0.15625,0 0.4375,0 0.4375,0.5625 0,0.453125 -0.1875,0.953125 -0.4375,1.609375 C 1.8125,-2.875 1.8125,-2.34375 1.8125,-1.921875 c 0,0.375 0.046875,1.078125 0.578125,1.5625 0.625,0.53125 1.484375,0.53125 1.640625,0.53125 2.859375,0 3.84375,-5.625 3.84375,-6.609375 z m 0,0"
             id="path74" />
        </g>
      </g>
      <path
         fill="none"
         stroke-width="0.956"
         stroke-linecap="butt"
         stroke-linejoin="miter"
         stroke="#000000"
         stroke-opacity="1"
         stroke-miterlimit="10"
         d="M 0,15.735094 H 22.058593"
         id="path42"
         transform="scale(0.352778)" />
      <g
         clip-path="url(#clipPath8521)"
         id="g48"
         transform="matrix(0.352778,0,0,0.352778,-0.42168,0.144948)">
        <g
           fill="#000000"
           fill-opacity="1"
           id="g46">
          <g
             id="use44"
             transform="translate(2.5350001,30.068001)">
            <path
               d="m 6.984375,-11.875 c -0.125,-0.296875 -0.203125,-0.296875 -0.34375,-0.296875 -0.203125,0 -0.21875,0.03125 -0.34375,0.28125 L 0.71875,-0.296875 C 0.703125,-0.265625 0.640625,-0.109375 0.640625,-0.09375 0.640625,-0.015625 0.65625,0 0.96875,0 H 12.3125 c 0.3125,0 0.328125,-0.015625 0.328125,-0.09375 0,-0.015625 -0.07813,-0.171875 -0.09375,-0.203125 z m -0.765625,1.015625 4.765625,9.890625 h -9.5625 z m 0,0"
               id="path78" />
          </g>
        </g>
      </g>
      <g
         clip-path="url(#clipPath2236)"
         id="g54"
         transform="matrix(0.352778,0,0,0.352778,-0.42168,0.144948)">
        <g
           fill="#000000"
           fill-opacity="1"
           id="g52">
          <g
             id="use50"
             transform="translate(15.827,30.068001)">
            <path
               d="m 3.46875,-6.921875 h 1.578125 c 0.328125,0 0.5,0 0.5,-0.3125 0,-0.1875 -0.109375,-0.1875 -0.453125,-0.1875 H 3.578125 L 4.21875,-9.9375 c 0.0625,-0.234375 0.0625,-0.265625 0.0625,-0.390625 0,-0.28125 -0.21875,-0.4375 -0.4375,-0.4375 -0.140625,0 -0.53125,0.0625 -0.671875,0.609375 L 2.5,-7.421875 H 0.875 c -0.34375,0 -0.5,0 -0.5,0.328125 0,0.171875 0.125,0.171875 0.453125,0.171875 h 1.53125 L 1.21875,-2.375 c -0.140625,0.59375 -0.1875,0.78125 -0.1875,1 0,0.8125 0.5625,1.546875 1.53125,1.546875 1.75,0 2.671875,-2.515625 2.671875,-2.640625 0,-0.09375 -0.0625,-0.15625 -0.171875,-0.15625 -0.03125,0 -0.109375,0 -0.140625,0.078125 -0.015625,0.015625 -0.03125,0.03125 -0.15625,0.3125 -0.359375,0.859375 -1.15625,2.0625 -2.140625,2.0625 -0.53125,0 -0.5625,-0.4375 -0.5625,-0.8125 0,-0.015625 0,-0.34375 0.0625,-0.546875 z m 0,0"
               id="path82" />
          </g>
        </g>
      </g>
      <g
         fill="#000000"
         fill-opacity="1"
         id="g58"
         transform="matrix(0.352778,0,0,0.352778,-0.42168,0.144948)">
        <g
           id="use56"
           transform="translate(31.334999,21.52)">
          <path
             d="m 15.9375,-7.953125 c 0.375,0 0.734375,0 0.734375,-0.421875 0,-0.453125 -0.421875,-0.453125 -0.84375,-0.453125 H 1.984375 c -0.421875,0 -0.84375,0 -0.84375,0.453125 0,0.421875 0.375,0.421875 0.75,0.421875 z m -0.109375,4.40625 c 0.421875,0 0.84375,0 0.84375,-0.4375 0,-0.421875 -0.359375,-0.421875 -0.734375,-0.421875 H 1.890625 c -0.375,0 -0.75,0 -0.75,0.421875 0,0.4375 0.421875,0.4375 0.84375,0.4375 z m 0,0"
             id="path86" />
        </g>
      </g>
      <g
         clip-path="url(#clipPath3362)"
         id="g64"
         transform="matrix(0.352778,0,0,0.352778,-0.42168,0.144948)">
        <g
           fill="#000000"
           fill-opacity="1"
           id="g62">
          <g
             id="use60"
             transform="translate(56.063,21.52)">
            <path
               d="m 7.453125,-2.953125 c -0.125,0.421875 -0.125,0.46875 -0.46875,0.953125 -0.546875,0.6875 -1.625,1.75 -2.796875,1.75 -1.015625,0 -1.578125,-0.921875 -1.578125,-2.375 0,-1.359375 0.765625,-4.140625 1.234375,-5.1875 0.84375,-1.734375 2,-2.625 2.96875,-2.625 1.640625,0 1.953125,2.03125 1.953125,2.234375 0,0.03125 -0.0625,0.34375 -0.09375,0.390625 z m 1.59375,-6.34375 c -0.28125,-0.640625 -0.9375,-1.625 -2.234375,-1.625 -2.796875,0 -5.828125,3.609375 -5.828125,7.28125 0,2.453125 1.4375,3.890625 3.125,3.890625 1.375,0 2.53125,-1.0625 3.21875,-1.890625 C 7.578125,-0.171875 8.75,0.25 9.484375,0.25 c 0.75,0 1.34375,-0.453125 1.796875,-1.34375 0.390625,-0.84375 0.734375,-2.34375 0.734375,-2.453125 0,-0.125 -0.09375,-0.21875 -0.25,-0.21875 -0.21875,0 -0.25,0.125 -0.34375,0.5 C 11.046875,-1.8125 10.578125,-0.25 9.5625,-0.25 c -0.71875,0 -0.765625,-0.640625 -0.765625,-1.140625 0,-0.5625 0.078125,-0.84375 0.296875,-1.8125 0.171875,-0.609375 0.296875,-1.15625 0.5,-1.875 0.90625,-3.71875 1.140625,-4.609375 1.140625,-4.765625 0,-0.34375 -0.28125,-0.609375 -0.640625,-0.609375 -0.796875,0 -1,0.859375 -1.046875,1.15625 z m 0,0"
               id="path90" />
          </g>
        </g>
      </g>
    </g>
  </g>
</svg>
