<?xml version="1.0" encoding="UTF-8" standalone="no"?>
<!-- Created with Inkscape (http://www.inkscape.org/) -->

<svg
   width="196.95872mm"
   height="102.23494mm"
   viewBox="0 0 196.95872 102.23494"
   version="1.1"
   id="svg5"
   inkscape:version="1.2.1 (9c6d41e410, 2022-07-14)"
   sodipodi:docname="trapezoid_profile_render.svg"
   xmlns:inkscape="http://www.inkscape.org/namespaces/inkscape"
   xmlns:sodipodi="http://sodipodi.sourceforge.net/DTD/sodipodi-0.dtd"
   xmlns="http://www.w3.org/2000/svg"
   xmlns:svg="http://www.w3.org/2000/svg">
  <sodipodi:namedview
     id="namedview7"
     pagecolor="#ffffff"
     bordercolor="#666666"
     borderopacity="1.0"
     inkscape:showpageshadow="2"
     inkscape:pageopacity="0.0"
     inkscape:pagecheckerboard="0"
     inkscape:deskcolor="#d1d1d1"
     inkscape:document-units="mm"
     showgrid="false"
     inkscape:zoom="1.4912879"
     inkscape:cx="309.79934"
     inkscape:cy="235.36703"
     inkscape:window-width="1920"
     inkscape:window-height="1017"
     inkscape:window-x="1912"
     inkscape:window-y="-8"
     inkscape:window-maximized="1"
     inkscape:current-layer="layer1"
     showguides="true"
     inkscape:lockguides="true">
    <sodipodi:guide
       position="21.468428,29.165669"
       orientation="-0.8660254,0.5"
       id="guide3420"
       inkscape:locked="true"
       inkscape:label=""
       inkscape:color="rgb(0,134,229)" />
    <sodipodi:guide
       position="159.75069,58.35115"
       orientation="-0.86332269,-0.50465229"
       id="guide3422"
       inkscape:locked="true" />
    <sodipodi:guide
       position="21.468428,81.044699"
       orientation="0,-1"
       id="guide3623"
       inkscape:locked="true" />
  </sodipodi:namedview>
  <defs
     id="defs2">
    <marker
       style="overflow:visible"
       id="Arrow2"
       refX="0"
       refY="0"
       orient="auto-start-reverse"
       inkscape:stockid="Arrow2"
       markerWidth="7.6999998"
       markerHeight="5.5999999"
       viewBox="0 0 7.7 5.6"
       inkscape:isstock="true"
       inkscape:collect="always"
       preserveAspectRatio="xMidYMid">
      <path
         transform="scale(0.7)"
         d="M -2,-4 9,0 -2,4 c 2,-2.33 2,-5.66 0,-8 z"
         style="fill:context-stroke;fill-rule:evenodd;stroke:none"
         id="arrow2L" />
    </marker>
    <clipPath
       id="clipPath8521">
      <path
         clip-rule="nonzero"
         d="M 3,17 H 16 V 30.066406 H 3 Z m 0,0"
         id="path4245" />
    </clipPath>
    <clipPath
       id="clipPath2236">
      <path
         clip-rule="nonzero"
         d="m 16,19 h 6 v 11.066406 h -6 z m 0,0"
         id="path7400" />
    </clipPath>
    <clipPath
       id="clipPath3362">
      <path
         clip-rule="nonzero"
         d="M 57,10 H 68.804688 V 22 H 57 Z m 0,0"
         id="path7512" />
    </clipPath>
  </defs>
  <g
     inkscape:label="Ebene 1"
     inkscape:groupmode="layer"
     id="layer1"
     transform="translate(-3.72512, -65.8501)">
    <path
       style="fill:none;stroke:#000000;stroke-width:1;stroke-linecap:butt;stroke-linejoin:miter;stroke-dasharray:none;stroke-opacity:1;marker-start:url(#Arrow2);marker-end:url(#Arrow2)"
       d="M 25.221637,75.561634 V 155.83288 H 194.38384"
       id="path236" />
    <path
       style="fill:none;stroke:#000000;stroke-width:0.65;stroke-linecap:butt;stroke-linejoin:miter;stroke-dasharray:none;stroke-opacity:1"
       d="m 25.193548,138.91935 29.717743,-51.629028 95.320389,0.21414 19.07152,32.198508"
       id="path1363"
       sodipodi:nodetypes="cccc" />
    <path
       style="fill:none;stroke:#000000;stroke-width:0.5;stroke-linecap:butt;stroke-linejoin:miter;stroke-dasharray:0.5, 1;stroke-dashoffset:0;stroke-opacity:1"
       d="M 54.911289,87.201612 V 155.33064"
       id="path1367" />
    <path
       style="fill:none;stroke:#000000;stroke-width:0.5;stroke-linecap:butt;stroke-linejoin:miter;stroke-dasharray:0.5, 1;stroke-dashoffset:0;stroke-opacity:1"
       d="M 150.23168,87.504462 V 156.06531"
       id="path1371" />
    <path
       style="fill:none;stroke:#000000;stroke-width:0.5;stroke-linecap:butt;stroke-linejoin:miter;stroke-dasharray:0.5, 1;stroke-dashoffset:0;stroke-opacity:1"
       d="m 169.3032,119.70297 0.27963,36.36234"
       id="path1373"
       sodipodi:nodetypes="cc" />
    <path
       style="fill:none;stroke:#000000;stroke-width:0.5;stroke-linecap:butt;stroke-linejoin:miter;stroke-dasharray:0.5, 1;stroke-dashoffset:0;stroke-opacity:1"
       d="M 54.911291,87.290322 H 25.193548"
       id="path2125" />
    <path
       style="fill:none;stroke:#000000;stroke-width:0.5;stroke-linecap:butt;stroke-linejoin:miter;stroke-dasharray:0.5, 1;stroke-dashoffset:0;stroke-opacity:1"
       d="m 169.3032,119.70297 -144.391323,-0.002"
       id="path2127"
       sodipodi:nodetypes="cc" />
    <g
       aria-label="t"
       id="text2196"
       style="font-size:10.5833px;line-height:1.25;stroke-width:0.264583">
      <path
         d="m 196.83215,162.59014 q 0,-0.13953 0.0672,-0.17053 0.0724,-0.031 0.23254,-0.031 h 0.89917 l 0.41341,-1.67948 q 0.10335,-0.3824 0.41341,-0.3824 0.28422,0 0.28422,0.27388 0,0.0724 -0.0413,0.22221 l -0.39274,1.56579 h 0.84749 q 0.10335,0 0.14469,0.005 0.0465,0.005 0.0827,0.0362 0.0362,0.0258 0.0362,0.0879 0,0.13953 -0.0724,0.17053 -0.0672,0.031 -0.22221,0.031 h -0.90433 l -0.78031,3.14192 q -0.0724,0.29455 -0.0724,0.5426 0,0.42891 0.27905,0.42891 0,0 0.005,0 0.40308,0 0.71313,-0.39791 0.31523,-0.40307 0.50126,-0.89917 0.062,-0.14986 0.0879,-0.17569 0.031,-0.0258 0.12403,-0.0258 0.16019,0 0.16019,0.10335 0,0.031 -0.062,0.1912 -0.062,0.1602 -0.20154,0.40824 -0.13952,0.24805 -0.32039,0.47543 -0.1757,0.22737 -0.45475,0.39274 -0.27389,0.16536 -0.56844,0.16536 -0.40308,0 -0.65112,-0.27388 -0.24805,-0.27906 -0.24805,-0.68213 0,-0.14986 0.0517,-0.35657 l 0.75964,-3.03856 h -0.84232 q -0.10336,0 -0.14986,-0.005 -0.0413,-0.005 -0.0827,-0.031 -0.0362,-0.031 -0.0362,-0.093 z"
         style="font-family:'CMU Serif';-inkscape-font-specification:'CMU Serif'"
         id="path415" />
    </g>
    <g
       aria-label="v"
       id="text2200"
       style="font-size:10.5833px;line-height:1.25;font-family:'Cambria Math';-inkscape-font-specification:'Cambria Math';stroke-width:0.264583">
      <path
         d="m 17.555916,67.741429 q 0,-0.03101 0.04134,-0.186034 0.04134,-0.160197 0.149861,-0.408243 0.113688,-0.253214 0.258382,-0.480589 0.144693,-0.227376 0.387572,-0.387572 0.242878,-0.165364 0.516762,-0.165364 0.351399,0 0.578775,0.232543 0.227375,0.232543 0.227375,0.625283 0,0.160196 -0.118855,0.527098 -0.625283,1.663976 -0.625283,2.294426 0,0.341063 0.155029,0.60978 0.155029,0.268717 0.537433,0.268717 0.423745,0 0.775144,-0.408243 0.356566,-0.41341 0.542601,-0.961179 0.191202,-0.552936 0.289387,-0.987016 0.103352,-0.434081 0.103352,-0.594277 0,-0.527098 -0.284219,-0.837156 -0.139526,-0.160196 -0.139526,-0.284219 0,-0.180867 0.165364,-0.330728 0.165364,-0.155029 0.346231,-0.155029 0.222208,0 0.325561,0.19637 0.10852,0.196369 0.10852,0.501259 0,0.129191 -0.06718,0.532266 -0.06201,0.397907 -0.227376,1.02319 -0.160196,0.625283 -0.403075,1.183387 -0.237711,0.552936 -0.656289,0.956011 -0.41341,0.403074 -0.914669,0.403074 -0.537434,0 -0.919838,-0.299722 -0.382404,-0.30489 -0.382404,-0.971514 0,-0.547768 0.5426,-2.030877 0.253214,-0.707965 0.253214,-0.956011 0,-0.30489 -0.232543,-0.30489 -0.635618,0 -0.981849,1.333248 -0.03101,0.118855 -0.06718,0.144693 -0.03101,0.02584 -0.124023,0.02584 -0.160197,-0.0052 -0.160197,-0.10852 z"
         style="font-family:'CMU Serif';-inkscape-font-specification:'CMU Serif'"
         id="path418" />
    </g>
    <g
       aria-label="vconst"
       id="text2965"
       style="font-size:8.46667px;line-height:1.25;stroke-width:0.264583">
      <path
         d="m 5.9368724,85.633717 q 0,-0.02481 0.033073,-0.148828 0.033073,-0.128158 0.1198893,-0.326595 0.090951,-0.202572 0.2067059,-0.384473 0.1157552,-0.181901 0.3100587,-0.310059 0.1943034,-0.132292 0.4134116,-0.132292 0.2811199,0 0.463021,0.186036 0.1819011,0.186035 0.1819011,0.500228 0,0.128157 -0.095085,0.421679 -0.5002281,1.331186 -0.5002281,1.835548 0,0.272852 0.1240235,0.487826 0.1240235,0.214974 0.4299481,0.214974 0.3389975,0 0.6201174,-0.326595 0.285254,-0.33073 0.4340822,-0.768946 0.1529623,-0.44235 0.2315105,-0.789616 0.082682,-0.347266 0.082682,-0.475424 0,-0.421679 -0.2273764,-0.669726 -0.1116211,-0.128158 -0.1116211,-0.227377 0,-0.144694 0.1322917,-0.264583 0.1322917,-0.124024 0.2769858,-0.124024 0.177767,0 0.2604493,0.157097 0.086816,0.157096 0.086816,0.401009 0,0.103353 -0.053743,0.425814 -0.049609,0.318327 -0.1819011,0.818555 -0.1281577,0.500228 -0.3224611,0.946713 -0.1901694,0.44235 -0.5250328,0.764811 -0.3307293,0.322461 -0.7317385,0.322461 -0.4299481,0 -0.7358727,-0.239779 -0.3059246,-0.243912 -0.3059246,-0.777213 0,-0.438217 0.4340822,-1.624708 0.2025717,-0.566374 0.2025717,-0.764812 0,-0.243912 -0.1860353,-0.243912 -0.5084963,0 -0.7854821,1.066601 -0.024805,0.09508 -0.053743,0.115756 -0.024805,0.02067 -0.099219,0.02067 -0.1281576,-0.0041 -0.1281576,-0.08682 z"
         style="font-family:'CMU Serif';-inkscape-font-specification:'CMU Serif'"
         id="path421" />
      <path
         d="m 9.7330246,88.919719 q 0,-0.59924 0.4380094,-1.090993 0.43801,-0.49444 0.953948,-0.49444 0.257968,0 0.424573,0.134358 0.166605,0.134359 0.166605,0.338584 0,0.147795 -0.0833,0.239159 -0.0833,0.09136 -0.198851,0.09136 -0.08868,0 -0.139733,-0.05106 -0.04837,-0.05374 -0.04837,-0.126298 0,-0.01075 0.0027,-0.02956 0.0054,-0.01881 0.01881,-0.05912 0.01344,-0.04299 0.03762,-0.07524 0.02419,-0.03225 0.08062,-0.06181 0.05912,-0.03225 0.137045,-0.04299 -0.08868,-0.236472 -0.392327,-0.236472 -0.193477,0 -0.386953,0.142421 -0.19079,0.14242 -0.33321,0.40845 -0.1048,0.198851 -0.198851,0.556246 -0.09136,0.357394 -0.09136,0.577743 0,0.252594 0.110174,0.40845 0.110174,0.155856 0.322461,0.155856 0.09405,0 0.212287,-0.01881 0.118236,-0.01881 0.357394,-0.153169 0.239159,-0.134359 0.421887,-0.365456 0.04837,-0.0618 0.07255,-0.0618 0.03225,0 0.05912,0.03493 0.02687,0.03225 0.02687,0.05374 0,0.05374 -0.134359,0.198851 -0.134358,0.14242 -0.421886,0.290215 -0.284841,0.145107 -0.604615,0.145107 -0.362768,0 -0.5858038,-0.249907 Q 9.7330246,89.32817 9.7330246,88.919719 Z"
         style="font-size:65%;font-family:'CMU Serif';-inkscape-font-specification:'CMU Serif';baseline-shift:sub"
         id="path423" />
      <path
         d="m 11.984878,88.919719 q 0,-0.59924 0.438009,-1.090993 0.43801,-0.49444 0.953948,-0.49444 0.357394,0 0.58043,0.252594 0.223035,0.252595 0.223035,0.650297 0,0.59924 -0.438009,1.096367 -0.435323,0.49444 -0.953948,0.49444 -0.35202,0 -0.577742,-0.244532 -0.225723,-0.244533 -0.225723,-0.663733 z m 0.386953,0.220349 q 0,0.279466 0.120923,0.421886 0.120923,0.14242 0.295589,0.14242 0.198851,0 0.389641,-0.155856 0.193476,-0.155856 0.319774,-0.392327 0.120923,-0.231097 0.209599,-0.583117 0.08868,-0.35202 0.08868,-0.550871 0,-0.247221 -0.112861,-0.405764 -0.112862,-0.161231 -0.311713,-0.161231 -0.169292,0 -0.35202,0.128985 -0.18004,0.128984 -0.330522,0.37083 -0.126297,0.214974 -0.223036,0.591179 -0.09405,0.373517 -0.09405,0.593866 z"
         style="font-size:65%;font-family:'CMU Serif';-inkscape-font-specification:'CMU Serif';baseline-shift:sub"
         id="path425" />
      <path
         d="m 14.647868,88.180746 q 0,-0.01075 0.0215,-0.09405 0.0215,-0.08599 0.06449,-0.223036 0.04568,-0.139733 0.09136,-0.239158 0.150482,-0.290215 0.38964,-0.290215 0.0027,0 0.0054,0 0.182728,0 0.309025,0.118235 0.126297,0.118236 0.153169,0.317087 0.05374,-0.0833 0.134359,-0.166605 0.08061,-0.0833 0.263343,-0.174666 0.185415,-0.09405 0.38964,-0.09405 0.241846,0 0.405764,0.131671 0.166605,0.131672 0.166605,0.440697 0,0.335897 -0.335897,1.225352 -0.09943,0.298277 -0.09943,0.413825 0,0.158543 0.120923,0.158543 0.309026,0 0.513251,-0.687917 0.01612,-0.06718 0.02956,-0.07793 0.01344,-0.01344 0.0618,-0.01344 0.0833,0 0.0833,0.05374 0,0.01612 -0.0215,0.09943 -0.0215,0.0833 -0.07793,0.212286 -0.05374,0.128985 -0.131672,0.247221 -0.07793,0.118235 -0.201538,0.204225 -0.12361,0.08599 -0.26603,0.08599 -0.193477,0 -0.306338,-0.126297 -0.112862,-0.128984 -0.112862,-0.314399 0,-0.120923 0.08868,-0.35202 0.319774,-0.91364 0.319774,-1.217291 0,-0.362769 -0.252595,-0.362769 -0.424573,0 -0.744347,0.545497 -0.09405,0.153169 -0.163918,0.443384 -0.01075,0.0618 -0.04568,0.180041 -0.03225,0.118236 -0.04299,0.180041 l -0.220348,0.878706 q -0.05374,0.14242 -0.198851,0.145107 -0.07793,0 -0.115549,-0.04568 -0.03762,-0.04299 -0.03762,-0.09942 0,-0.02687 0.01612,-0.07524 l 0.413825,-1.652613 q 0.03762,-0.153169 0.03762,-0.279466 0,-0.220349 -0.14242,-0.220349 -0.120923,0 -0.206912,0.166605 -0.08599,0.163918 -0.166605,0.489066 -0.0215,0.08868 -0.03762,0.107487 -0.01612,0.01881 -0.06718,0.01881 -0.0833,-0.0027 -0.0833,-0.05643 z"
         style="font-size:65%;font-family:'CMU Serif';-inkscape-font-specification:'CMU Serif';baseline-shift:sub"
         id="path427" />
      <path
         d="m 17.7005,89.293237 q 0,-0.169293 0.0833,-0.255282 0.08599,-0.08599 0.196164,-0.08599 0.08868,0 0.137046,0.05106 0.05106,0.04837 0.05106,0.12361 0,0.03225 -0.0081,0.07524 -0.0081,0.04031 -0.07793,0.112861 -0.06987,0.07255 -0.196164,0.0833 0.09943,0.306338 0.521312,0.306338 0.0027,0 0.0081,0 0.158543,0 0.290215,-0.04568 0.134358,-0.04568 0.206912,-0.118235 0.07524,-0.07255 0.126297,-0.158544 0.05374,-0.08868 0.07255,-0.158543 0.01881,-0.07255 0.01881,-0.134359 0,-0.1048 -0.04031,-0.177353 -0.03762,-0.07524 -0.120923,-0.118236 -0.08062,-0.04568 -0.145108,-0.06449 -0.0618,-0.01881 -0.182728,-0.04568 -0.07255,-0.01612 -0.118235,-0.02687 -0.043,-0.01344 -0.128985,-0.05374 -0.0833,-0.04299 -0.134359,-0.09405 -0.04837,-0.05106 -0.09136,-0.145107 -0.04031,-0.09405 -0.04031,-0.214974 0,-0.274092 0.220348,-0.54281 0.220349,-0.271404 0.650297,-0.271404 0.263343,0 0.424573,0.134358 0.163918,0.134359 0.163918,0.33321 0,0.158543 -0.07524,0.231097 -0.07255,0.07255 -0.16123,0.07255 -0.08868,0 -0.126298,-0.04568 -0.03762,-0.04837 -0.03762,-0.107487 0,-0.06181 0.05106,-0.137046 0.05374,-0.07524 0.169292,-0.09136 -0.07793,-0.268718 -0.413825,-0.268718 -0.28484,0 -0.421886,0.177354 -0.134359,0.174666 -0.134359,0.327835 0,0.110175 0.0618,0.180041 0.06449,0.06718 0.12361,0.09136 0.0618,0.0215 0.166605,0.043 0.09405,0.0215 0.155856,0.03762 0.06449,0.01612 0.169292,0.06718 0.1048,0.04837 0.166605,0.110174 0.06449,0.05912 0.112862,0.166605 0.05106,0.107487 0.05106,0.244533 0,0.08868 -0.02956,0.196164 -0.02687,0.107487 -0.102113,0.239158 -0.07255,0.131672 -0.182728,0.239159 -0.110174,0.107487 -0.298276,0.180041 -0.185415,0.07255 -0.421887,0.07255 -0.303651,0 -0.507876,-0.145107 Q 17.7005,89.535082 17.7005,89.293237 Z"
         style="font-size:65%;font-family:'CMU Serif';-inkscape-font-specification:'CMU Serif';baseline-shift:sub"
         id="path429" />
      <path
         d="m 20.024907,87.498203 q 0,-0.07255 0.03493,-0.08868 0.03762,-0.01612 0.120923,-0.01612 h 0.467568 l 0.214975,-0.873332 q 0.05374,-0.198851 0.214974,-0.198851 0.147794,0 0.147794,0.142421 0,0.03762 -0.0215,0.115548 l -0.204226,0.814214 h 0.440697 q 0.05374,0 0.07524,0.0027 0.02418,0.0027 0.043,0.01881 0.01881,0.01344 0.01881,0.04568 0,0.07255 -0.03762,0.08868 -0.03493,0.01612 -0.115549,0.01612 H 20.95467 l -0.405764,1.633802 q -0.03762,0.153169 -0.03762,0.282154 0,0.223035 0.145107,0.223035 0,0 0.0027,0 0.2096,0 0.37083,-0.206912 0.163918,-0.2096 0.260656,-0.467569 0.03225,-0.07793 0.04568,-0.09136 0.01612,-0.01344 0.06449,-0.01344 0.0833,0 0.0833,0.05374 0,0.01612 -0.03225,0.09943 -0.03225,0.0833 -0.1048,0.212286 -0.07255,0.128985 -0.166605,0.247221 -0.09136,0.118235 -0.236471,0.204225 -0.142421,0.08599 -0.29559,0.08599 -0.209599,0 -0.338584,-0.14242 -0.128984,-0.145107 -0.128984,-0.354707 0,-0.07793 0.02687,-0.185415 l 0.395015,-1.580059 h -0.43801 q -0.05374,0 -0.07793,-0.0027 -0.0215,-0.0027 -0.04299,-0.01612 -0.01881,-0.01612 -0.01881,-0.04837 z"
         style="font-size:65%;font-family:'CMU Serif';-inkscape-font-specification:'CMU Serif';baseline-shift:sub"
         id="path431" />
    </g>
    <g
       aria-label="v1"
       id="text2965-3"
       style="font-size:8.46667px;line-height:1.25;font-family:'CMU Serif';-inkscape-font-specification:'CMU Serif, Normal';stroke-width:0.264583">
      <path
         d="m 15.958693,118.14128 q 0,-0.0248 0.03307,-0.14883 0.03307,-0.12816 0.11989,-0.3266 0.09095,-0.20257 0.206706,-0.38447 0.115755,-0.1819 0.310058,-0.31006 0.194304,-0.13229 0.413412,-0.13229 0.28112,0 0.463021,0.18604 0.181901,0.18603 0.181901,0.50022 0,0.12816 -0.09509,0.42168 -0.500228,1.33119 -0.500228,1.83555 0,0.27285 0.124024,0.48783 0.124023,0.21497 0.429948,0.21497 0.338997,0 0.620117,-0.32659 0.285254,-0.33073 0.434083,-0.76895 0.152962,-0.44235 0.23151,-0.78962 0.08268,-0.34726 0.08268,-0.47542 0,-0.42168 -0.227376,-0.66973 -0.111621,-0.12815 -0.111621,-0.22737 0,-0.1447 0.132292,-0.26459 0.132291,-0.12402 0.276985,-0.12402 0.177767,0 0.26045,0.1571 0.08682,0.15709 0.08682,0.40101 0,0.10335 -0.05374,0.42581 -0.04961,0.31833 -0.181901,0.81856 -0.128158,0.50022 -0.322462,0.94671 -0.190169,0.44235 -0.525032,0.76481 -0.33073,0.32246 -0.731739,0.32246 -0.429948,0 -0.735873,-0.23978 -0.305924,-0.24391 -0.305924,-0.77721 0,-0.43822 0.434082,-1.62471 0.202572,-0.56637 0.202572,-0.76481 0,-0.24391 -0.186036,-0.24391 -0.508496,0 -0.785482,1.0666 -0.0248,0.0951 -0.05374,0.11575 -0.02481,0.0207 -0.09922,0.0207 -0.128157,-0.004 -0.128157,-0.0868 z"
         id="path434" />
      <path
         d="m 19.795152,122.20656 q 0,-0.0725 0.03493,-0.086 0.03493,-0.0161 0.118235,-0.0161 h 0.043 q 0.309025,0 0.397702,-0.043 0.08868,-0.0457 0.120923,-0.19079 l 0.650296,-2.60656 q -0.30365,0.22573 -0.612676,0.22573 -0.08868,0 -0.08868,-0.0672 0,-0.0887 0.08868,-0.1048 0.545497,-0.0538 0.970071,-0.62074 0.07255,-0.0887 0.1048,-0.0887 0.06718,0 0.06449,0.0672 0,0.0215 -0.01612,0.0699 l -0.787343,3.14399 q -0.01612,0.0672 -0.01612,0.1048 0,0.0537 0.02687,0.0699 0.02687,0.0161 0.126297,0.0269 0.142421,0.0108 0.236472,0.0134 h 0.04568 q 0.05374,0 0.07793,0.003 0.02687,0.003 0.04568,0.0161 0.01881,0.0134 0.01881,0.0457 0,0.1048 -0.110174,0.1048 -0.120923,0 -0.368143,-0.008 -0.24722,-0.008 -0.368143,-0.008 -0.115549,0 -0.360082,0.008 -0.241846,0.008 -0.362768,0.008 -0.08062,0 -0.08062,-0.0672 z"
         style="font-size:65%;baseline-shift:sub"
         id="path436" />
    </g>
    <g
       aria-label="v0"
       id="text2965-3-7"
       style="font-size:8.46667px;line-height:1.25;font-family:'CMU Serif';-inkscape-font-specification:'CMU Serif, Normal';stroke-width:0.264583">
      <path
         d="m 15.917042,136.21781 q 0,-0.0248 0.03307,-0.14883 0.03307,-0.12816 0.119889,-0.3266 0.09095,-0.20257 0.206706,-0.38447 0.115755,-0.1819 0.310059,-0.31006 0.194303,-0.13229 0.413411,-0.13229 0.28112,0 0.463021,0.18604 0.181901,0.18603 0.181901,0.50022 0,0.12816 -0.09508,0.42168 -0.500228,1.33119 -0.500228,1.83555 0,0.27285 0.124023,0.48783 0.124024,0.21497 0.429948,0.21497 0.338998,0 0.620118,-0.32659 0.285254,-0.33073 0.434082,-0.76895 0.152962,-0.44235 0.23151,-0.78962 0.08268,-0.34726 0.08268,-0.47542 0,-0.42168 -0.227377,-0.66973 -0.111621,-0.12815 -0.111621,-0.22737 0,-0.1447 0.132292,-0.26459 0.132292,-0.12402 0.276986,-0.12402 0.177767,0 0.260449,0.1571 0.08682,0.15709 0.08682,0.40101 0,0.10335 -0.05374,0.42581 -0.04961,0.31833 -0.181901,0.81856 -0.128158,0.50022 -0.322461,0.94671 -0.19017,0.44235 -0.525033,0.76481 -0.330729,0.32246 -0.731739,0.32246 -0.429948,0 -0.735872,-0.23978 -0.305925,-0.24391 -0.305925,-0.77721 0,-0.43822 0.434082,-1.62471 0.202572,-0.56637 0.202572,-0.76481 0,-0.24391 -0.186035,-0.24391 -0.508497,0 -0.785482,1.0666 -0.02481,0.0951 -0.05374,0.11575 -0.02481,0.0207 -0.09922,0.0207 -0.128157,-0.004 -0.128157,-0.0868 z"
         id="path439" />
      <path
         d="m 19.753502,139.53606 q 0,-0.37352 0.153169,-0.98082 0.153169,-0.60999 0.35202,-0.98351 0.236471,-0.45144 0.540122,-0.66911 0.306338,-0.21766 0.626112,-0.21766 0.204225,0 0.349333,0.0806 0.147794,0.0779 0.217661,0.18273 0.07255,0.1048 0.112861,0.25259 0.04031,0.14511 0.04837,0.23379 0.01075,0.086 0.01075,0.18541 0,0.33052 -0.134359,0.88677 -0.131671,0.55624 -0.300963,0.94051 -0.241846,0.5455 -0.577743,0.78465 -0.335897,0.23916 -0.661045,0.23916 -0.177354,0 -0.311713,-0.0564 -0.134359,-0.0537 -0.209599,-0.15317 -0.07255,-0.0994 -0.123611,-0.19079 -0.04837,-0.094 -0.06449,-0.22034 -0.01612,-0.1263 -0.0215,-0.18273 -0.0054,-0.0591 -0.0054,-0.13167 z m 0.35202,0.27409 q 0,0.2929 0.12361,0.41651 0.12361,0.12361 0.287527,0.12361 0.204226,0 0.392328,-0.16123 0.190789,-0.16392 0.290215,-0.37889 0.177354,-0.38964 0.400389,-1.28447 0.223036,-0.89483 0.223036,-1.20117 0,-0.25259 -0.120923,-0.38427 -0.120923,-0.13435 -0.303651,-0.13435 -0.169292,0 -0.360082,0.12629 -0.190789,0.1263 -0.327835,0.40845 -0.147795,0.30903 -0.376205,1.22536 -0.228409,0.91364 -0.228409,1.24416 z"
         style="font-size:65%;baseline-shift:sub"
         id="path441" />
    </g>
    <g
       aria-label="tacc"
       id="text3153"
       style="font-size:10.5833px;line-height:1.25;stroke-width:0.264583">
      <path
         d="m 34.670171,161.31842 q 0,-0.13952 0.06718,-0.17053 0.07235,-0.031 0.232543,-0.031 h 0.899167 l 0.41341,-1.67948 q 0.103353,-0.38241 0.41341,-0.38241 0.28422,0 0.28422,0.27389 0,0.0723 -0.04134,0.22221 l -0.39274,1.56579 h 0.847491 q 0.103352,0 0.144693,0.005 0.04651,0.005 0.08268,0.0362 0.03617,0.0258 0.03617,0.0879 0,0.13952 -0.07235,0.17053 -0.06718,0.031 -0.222208,0.031 h -0.904335 l -0.780311,3.14192 q -0.07235,0.29456 -0.07235,0.5426 0,0.42892 0.279052,0.42892 0,0 0.0052,0 0.403074,0 0.713132,-0.39791 0.315225,-0.40308 0.50126,-0.89917 0.06201,-0.14986 0.08785,-0.1757 0.03101,-0.0258 0.124023,-0.0258 0.160197,0 0.160197,0.10336 0,0.031 -0.06201,0.1912 -0.06201,0.1602 -0.201537,0.40824 -0.139526,0.24805 -0.320393,0.47542 -0.175699,0.22738 -0.454751,0.39274 -0.273884,0.16537 -0.568439,0.16537 -0.403075,0 -0.651121,-0.27389 -0.248046,-0.27905 -0.248046,-0.68212 0,-0.14987 0.05168,-0.35657 l 0.759641,-3.03857 h -0.842323 q -0.103352,0 -0.149861,-0.005 -0.04134,-0.005 -0.08268,-0.031 -0.03617,-0.031 -0.03617,-0.093 z"
         style="font-family:'CMU Serif';-inkscape-font-specification:'CMU Serif'"
         id="path444" />
      <path
         d="m 37.96014,166.80567 q 0,-0.74905 0.500485,-1.39733 0.503843,-0.65164 1.074866,-0.65164 0.392998,0 0.571023,0.40644 0.05374,-0.26872 0.275434,-0.26872 0.184743,0 0.184743,0.17803 0,0.047 -0.02687,0.14443 l -0.466895,1.87094 q -0.04702,0.19146 -0.04702,0.35269 0,0.27879 0.174666,0.27879 0,0 0.0034,0 0.25528,0 0.460177,-0.81622 0.02687,-0.11085 0.04702,-0.13436 0.02351,-0.0235 0.08397,-0.0235 0.104128,0 0.104128,0.0672 0,0.0134 -0.02687,0.12092 -0.02351,0.10749 -0.0739,0.27207 -0.05038,0.16459 -0.107486,0.28216 -0.184743,0.38628 -0.500485,0.38628 -0.198179,0 -0.359409,-0.12093 -0.157871,-0.12092 -0.211614,-0.36276 -0.392998,0.48033 -0.826303,0.48369 -0.379563,0 -0.607972,-0.30567 -0.22505,-0.30902 -0.22505,-0.76248 z m 0.466895,0.3023 q 0,0.22841 0.08397,0.41987 0.08397,0.19146 0.295588,0.19146 0.255281,0 0.534075,-0.28551 0.278793,-0.28551 0.325819,-0.4904 l 0.322459,-1.29992 q 0.02015,-0.0605 0.02015,-0.0907 0,-0.24185 -0.130999,-0.44338 -0.127641,-0.20154 -0.342614,-0.20154 -0.204896,0 -0.423228,0.22169 -0.214974,0.21833 -0.345973,0.54079 -0.104128,0.24185 -0.221691,0.71882 -0.117564,0.47697 -0.117564,0.71881 z"
         style="font-size:65%;font-family:'CMU Serif';-inkscape-font-specification:'CMU Serif';baseline-shift:sub"
         id="path446" />
      <path
         d="m 41.487046,166.73849 q 0,-0.74905 0.54751,-1.36374 0.54751,-0.61805 1.19243,-0.61805 0.32246,0 0.530715,0.16795 0.208255,0.16795 0.208255,0.42323 0,0.18474 -0.104127,0.29895 -0.104128,0.1142 -0.248563,0.1142 -0.110846,0 -0.174666,-0.0638 -0.06046,-0.0672 -0.06046,-0.15787 0,-0.0134 0.0034,-0.037 0.0067,-0.0235 0.02351,-0.0739 0.0168,-0.0538 0.04703,-0.0941 0.03023,-0.0403 0.100769,-0.0773 0.0739,-0.0403 0.171306,-0.0537 -0.110845,-0.29559 -0.490407,-0.29559 -0.241845,0 -0.48369,0.17802 -0.238486,0.17803 -0.416511,0.51056 -0.130999,0.24857 -0.248563,0.69531 -0.114204,0.44674 -0.114204,0.72217 0,0.31575 0.137717,0.51057 0.137717,0.19481 0.403075,0.19481 0.117563,0 0.265357,-0.0235 0.147794,-0.0235 0.446742,-0.19146 0.298947,-0.16795 0.527356,-0.45682 0.06046,-0.0772 0.09069,-0.0772 0.04031,0 0.0739,0.0437 0.03359,0.0403 0.03359,0.0672 0,0.0672 -0.167947,0.24857 -0.167948,0.17802 -0.527357,0.36276 -0.356049,0.18139 -0.755765,0.18139 -0.453459,0 -0.732253,-0.31239 -0.278793,-0.31238 -0.278793,-0.82294 z"
         style="font-size:65%;font-family:'CMU Serif';-inkscape-font-specification:'CMU Serif';baseline-shift:sub"
         id="path448" />
      <path
         d="m 44.301852,166.73849 q 0,-0.74905 0.54751,-1.36374 0.54751,-0.61805 1.19243,-0.61805 0.32246,0 0.530715,0.16795 0.208255,0.16795 0.208255,0.42323 0,0.18474 -0.104127,0.29895 -0.104128,0.1142 -0.248563,0.1142 -0.110846,0 -0.174666,-0.0638 -0.06046,-0.0672 -0.06046,-0.15787 0,-0.0134 0.0034,-0.037 0.0067,-0.0235 0.02351,-0.0739 0.0168,-0.0538 0.04703,-0.0941 0.03023,-0.0403 0.100768,-0.0773 0.0739,-0.0403 0.171307,-0.0537 -0.110845,-0.29559 -0.490407,-0.29559 -0.241845,0 -0.48369,0.17802 -0.238486,0.17803 -0.416511,0.51056 -0.130999,0.24857 -0.248563,0.69531 -0.114204,0.44674 -0.114204,0.72217 0,0.31575 0.137717,0.51057 0.137717,0.19481 0.403075,0.19481 0.117563,0 0.265357,-0.0235 0.147794,-0.0235 0.446742,-0.19146 0.298947,-0.16795 0.527356,-0.45682 0.06046,-0.0772 0.09069,-0.0772 0.04031,0 0.0739,0.0437 0.03359,0.0403 0.03359,0.0672 0,0.0672 -0.167947,0.24857 -0.167948,0.17802 -0.527357,0.36276 -0.356049,0.18139 -0.755765,0.18139 -0.453459,0 -0.732253,-0.31239 -0.278793,-0.31238 -0.278793,-0.82294 z"
         style="font-size:65%;font-family:'CMU Serif';-inkscape-font-specification:'CMU Serif';baseline-shift:sub"
         id="path450" />
    </g>
    <g
       aria-label="tconst"
       id="text3153-6"
       style="font-size:10.5833px;line-height:1.25;stroke-width:0.264583">
      <path
         d="m 93.516644,161.31842 q 0,-0.13952 0.06718,-0.17053 0.07235,-0.031 0.232544,-0.031 h 0.899167 l 0.41341,-1.67948 q 0.103352,-0.38241 0.41341,-0.38241 0.284219,0 0.284219,0.27389 0,0.0723 -0.04134,0.22221 l -0.392739,1.56579 h 0.847491 q 0.103352,0 0.144693,0.005 0.04651,0.005 0.08268,0.0362 0.03617,0.0258 0.03617,0.0879 0,0.13952 -0.07235,0.17053 -0.06718,0.031 -0.222208,0.031 h -0.904335 l -0.780312,3.14192 q -0.07235,0.29456 -0.07235,0.5426 0,0.42892 0.279052,0.42892 0,0 0.0052,0 0.403075,0 0.713133,-0.39791 0.315225,-0.40308 0.501259,-0.89917 0.06201,-0.14986 0.08785,-0.1757 0.03101,-0.0258 0.124023,-0.0258 0.160197,0 0.160197,0.10336 0,0.031 -0.06201,0.1912 -0.06201,0.1602 -0.201537,0.40824 -0.139526,0.24805 -0.320393,0.47542 -0.1757,0.22738 -0.454751,0.39274 -0.273885,0.16537 -0.568439,0.16537 -0.403075,0 -0.651121,-0.27389 -0.248046,-0.27905 -0.248046,-0.68212 0,-0.14987 0.05168,-0.35657 l 0.759641,-3.03857 h -0.842323 q -0.103353,0 -0.149861,-0.005 -0.04134,-0.005 -0.08268,-0.031 -0.03617,-0.031 -0.03617,-0.093 z"
         style="font-family:'CMU Serif';-inkscape-font-specification:'CMU Serif'"
         id="path453" />
      <path
         d="m 96.82005,166.73849 q 0,-0.74905 0.54751,-1.36374 0.54751,-0.61805 1.19243,-0.61805 0.32246,0 0.530715,0.16795 0.208255,0.16795 0.208255,0.42323 0,0.18474 -0.104127,0.29895 -0.104128,0.1142 -0.248563,0.1142 -0.110846,0 -0.174666,-0.0638 -0.06046,-0.0672 -0.06046,-0.15787 0,-0.0134 0.0034,-0.037 0.0067,-0.0235 0.02351,-0.0739 0.01679,-0.0538 0.04703,-0.0941 0.03023,-0.0403 0.100769,-0.0773 0.0739,-0.0403 0.171306,-0.0537 -0.110845,-0.29559 -0.490407,-0.29559 -0.241845,0 -0.48369,0.17802 -0.238486,0.17803 -0.416511,0.51056 -0.130999,0.24857 -0.248563,0.69531 -0.114204,0.44674 -0.114204,0.72217 0,0.31575 0.137717,0.51057 0.137717,0.19481 0.403075,0.19481 0.117563,0 0.265357,-0.0235 0.147794,-0.0235 0.446742,-0.19146 0.298947,-0.16795 0.527356,-0.45682 0.06046,-0.0772 0.09069,-0.0772 0.04031,0 0.0739,0.0437 0.03359,0.0403 0.03359,0.0672 0,0.0672 -0.167947,0.24857 -0.167948,0.17802 -0.527357,0.36276 -0.356049,0.18139 -0.755765,0.18139 -0.453459,0 -0.732253,-0.31239 -0.278793,-0.31238 -0.278793,-0.82294 z"
         style="font-size:65%;font-family:'CMU Serif';-inkscape-font-specification:'CMU Serif';baseline-shift:sub"
         id="path455" />
      <path
         d="m 99.634856,166.73849 q 0,-0.74905 0.547514,-1.36374 0.54751,-0.61805 1.19243,-0.61805 0.44674,0 0.72553,0.31575 0.27879,0.31574 0.27879,0.81286 0,0.74905 -0.54751,1.37046 -0.54415,0.61805 -1.19243,0.61805 -0.44002,0 -0.722172,-0.30567 -0.282152,-0.30566 -0.282152,-0.82966 z m 0.483694,0.27543 q 0,0.34934 0.15115,0.52736 0.15115,0.17802 0.36948,0.17802 0.24857,0 0.48705,-0.19481 0.24185,-0.19482 0.39972,-0.49041 0.15115,-0.28887 0.262,-0.7289 0.11084,-0.44002 0.11084,-0.68858 0,-0.30903 -0.14107,-0.5072 -0.14108,-0.20154 -0.38964,-0.20154 -0.21162,0 -0.44003,0.16123 -0.22505,0.16123 -0.41315,0.46353 -0.15787,0.26872 -0.27879,0.73897 -0.11756,0.4669 -0.11756,0.74233 z"
         style="font-size:65%;font-family:'CMU Serif';-inkscape-font-specification:'CMU Serif';baseline-shift:sub"
         id="path457" />
      <path
         d="m 102.96358,165.81478 q 0,-0.0134 0.0269,-0.11757 0.0269,-0.10748 0.0806,-0.27879 0.0571,-0.17467 0.1142,-0.29895 0.18811,-0.36277 0.48705,-0.36277 0.003,0 0.007,0 0.22841,0 0.38628,0.1478 0.15787,0.14779 0.19146,0.39636 0.0672,-0.10413 0.16795,-0.20826 0.10077,-0.10413 0.32918,-0.21833 0.23177,-0.11757 0.48705,-0.11757 0.3023,0 0.5072,0.16459 0.20825,0.16459 0.20825,0.55087 0,0.41987 -0.41987,1.53169 -0.12428,0.37284 -0.12428,0.51728 0,0.19817 0.15116,0.19817 0.38628,0 0.64156,-0.85989 0.0201,-0.084 0.0369,-0.0974 0.0168,-0.0168 0.0773,-0.0168 0.10413,0 0.10413,0.0672 0,0.0202 -0.0269,0.12428 -0.0269,0.10413 -0.0974,0.26536 -0.0672,0.16123 -0.16459,0.30902 -0.0974,0.14779 -0.25192,0.25528 -0.15452,0.10749 -0.33254,0.10749 -0.24185,0 -0.38292,-0.15787 -0.14108,-0.16123 -0.14108,-0.393 0,-0.15116 0.11085,-0.44003 0.39971,-1.14204 0.39971,-1.5216 0,-0.45346 -0.31574,-0.45346 -0.53071,0 -0.93043,0.68187 -0.11756,0.19146 -0.2049,0.55422 -0.0134,0.0773 -0.0571,0.22505 -0.0403,0.1478 -0.0537,0.22505 l -0.27544,1.09838 q -0.0672,0.17803 -0.24856,0.18139 -0.0974,0 -0.14443,-0.0571 -0.047,-0.0537 -0.047,-0.12428 0,-0.0336 0.0202,-0.0941 l 0.51728,-2.06576 q 0.047,-0.19146 0.047,-0.34933 0,-0.27543 -0.17803,-0.27543 -0.15115,0 -0.25863,0.20825 -0.10749,0.2049 -0.20826,0.61133 -0.0269,0.11085 -0.047,0.13436 -0.0202,0.0235 -0.084,0.0235 -0.10413,-0.003 -0.10413,-0.0705 z"
         style="font-size:65%;font-family:'CMU Serif';-inkscape-font-specification:'CMU Serif';baseline-shift:sub"
         id="path459" />
      <path
         d="m 106.77936,167.20538 q 0,-0.21161 0.10413,-0.3191 0.10748,-0.10748 0.2452,-0.10748 0.11085,0 0.17131,0.0638 0.0638,0.0605 0.0638,0.15451 0,0.0403 -0.0101,0.0941 -0.0101,0.0504 -0.0974,0.14108 -0.0873,0.0907 -0.2452,0.10412 0.12428,0.38292 0.65163,0.38292 0.003,0 0.0101,0 0.19818,0 0.36277,-0.0571 0.16795,-0.0571 0.25864,-0.14779 0.094,-0.0907 0.15787,-0.19818 0.0672,-0.11085 0.0907,-0.19818 0.0235,-0.0907 0.0235,-0.16795 0,-0.131 -0.0504,-0.22169 -0.047,-0.0941 -0.15115,-0.14779 -0.10077,-0.0571 -0.18139,-0.0806 -0.0773,-0.0235 -0.22841,-0.0571 -0.0907,-0.0202 -0.14779,-0.0336 -0.0537,-0.0168 -0.16123,-0.0672 -0.10413,-0.0537 -0.16795,-0.11756 -0.0605,-0.0638 -0.1142,-0.18138 -0.0504,-0.11757 -0.0504,-0.26872 0,-0.34261 0.27544,-0.67851 0.27543,-0.33926 0.81287,-0.33926 0.32917,0 0.53071,0.16795 0.2049,0.16795 0.2049,0.41651 0,0.19818 -0.094,0.28887 -0.0907,0.0907 -0.20154,0.0907 -0.11085,0 -0.15787,-0.0571 -0.047,-0.0605 -0.047,-0.13436 0,-0.0772 0.0638,-0.1713 0.0672,-0.094 0.21162,-0.11421 -0.0974,-0.33589 -0.51728,-0.33589 -0.35605,0 -0.52736,0.22169 -0.16795,0.21833 -0.16795,0.40979 0,0.13772 0.0773,0.22505 0.0806,0.084 0.15451,0.11421 0.0773,0.0269 0.20826,0.0537 0.11756,0.0269 0.19482,0.047 0.0806,0.0202 0.21161,0.084 0.131,0.0605 0.20826,0.13772 0.0806,0.0739 0.14107,0.20825 0.0638,0.13436 0.0638,0.30567 0,0.11084 -0.037,0.2452 -0.0336,0.13436 -0.12764,0.29895 -0.0907,0.16459 -0.22841,0.29895 -0.13771,0.13435 -0.37284,0.22505 -0.23177,0.0907 -0.52736,0.0907 -0.37956,0 -0.63484,-0.18139 -0.25192,-0.18474 -0.25192,-0.48705 z"
         style="font-size:65%;font-family:'CMU Serif';-inkscape-font-specification:'CMU Serif';baseline-shift:sub"
         id="path461" />
      <path
         d="m 109.68486,164.9616 q 0,-0.0907 0.0437,-0.11084 0.047,-0.0202 0.15116,-0.0202 h 0.58446 l 0.26871,-1.09166 q 0.0672,-0.24856 0.26872,-0.24856 0.18474,0 0.18474,0.17802 0,0.047 -0.0269,0.14444 l -0.25528,1.01776 h 0.55087 q 0.0672,0 0.0941,0.003 0.0302,0.003 0.0537,0.0235 0.0235,0.0168 0.0235,0.0571 0,0.0907 -0.047,0.11084 -0.0437,0.0202 -0.14444,0.0202 h -0.58781 l -0.50721,2.04225 q -0.047,0.19146 -0.047,0.35269 0,0.27879 0.18138,0.27879 0,0 0.003,0 0.262,0 0.46354,-0.25863 0.20489,-0.262 0.32582,-0.58446 0.0403,-0.0974 0.0571,-0.11421 0.0202,-0.0168 0.0806,-0.0168 0.10413,0 0.10413,0.0672 0,0.0202 -0.0403,0.12428 -0.0403,0.10413 -0.131,0.26536 -0.0907,0.16123 -0.20825,0.30902 -0.11421,0.14779 -0.29559,0.25528 -0.17802,0.10749 -0.36948,0.10749 -0.262,0 -0.42323,-0.17803 -0.16123,-0.18138 -0.16123,-0.44338 0,-0.0974 0.0336,-0.23177 l 0.49376,-1.97507 h -0.54751 q -0.0672,0 -0.0974,-0.003 -0.0269,-0.003 -0.0537,-0.0202 -0.0235,-0.0202 -0.0235,-0.0605 z"
         style="font-size:65%;font-family:'CMU Serif';-inkscape-font-specification:'CMU Serif';baseline-shift:sub"
         id="path463" />
    </g>
    <g
       aria-label="tdec"
       id="text3153-68"
       style="font-size:10.5833px;line-height:1.25;stroke-width:0.264583">
      <path
         d="m 153.71216,161.31842 q 0,-0.13952 0.0672,-0.17053 0.0724,-0.031 0.23255,-0.031 h 0.89916 l 0.41341,-1.67948 q 0.10336,-0.38241 0.41341,-0.38241 0.28422,0 0.28422,0.27389 0,0.0723 -0.0413,0.22221 l -0.39274,1.56579 h 0.84749 q 0.10336,0 0.1447,0.005 0.0465,0.005 0.0827,0.0362 0.0362,0.0258 0.0362,0.0879 0,0.13952 -0.0723,0.17053 -0.0672,0.031 -0.22221,0.031 h -0.90434 l -0.78031,3.14192 q -0.0723,0.29456 -0.0723,0.5426 0,0.42892 0.27905,0.42892 0,0 0.005,0 0.40307,0 0.71313,-0.39791 0.31522,-0.40308 0.50126,-0.89917 0.062,-0.14986 0.0879,-0.1757 0.031,-0.0258 0.12402,-0.0258 0.1602,0 0.1602,0.10336 0,0.031 -0.062,0.1912 -0.062,0.1602 -0.20153,0.40824 -0.13953,0.24805 -0.3204,0.47542 -0.17569,0.22738 -0.45475,0.39274 -0.27388,0.16537 -0.56844,0.16537 -0.40307,0 -0.65112,-0.27389 -0.24804,-0.27905 -0.24804,-0.68212 0,-0.14987 0.0517,-0.35657 l 0.75964,-3.03857 h -0.84232 q -0.10335,0 -0.14986,-0.005 -0.0413,-0.005 -0.0827,-0.031 -0.0362,-0.031 -0.0362,-0.093 z"
         style="font-family:'CMU Serif';-inkscape-font-specification:'CMU Serif'"
         id="path466" />
      <path
         d="m 157.00212,166.80567 q 0,-0.74905 0.50049,-1.39733 0.50384,-0.65164 1.07487,-0.65164 0.38628,0 0.57774,0.39972 l 0.39971,-1.6123 0.007,-0.0537 q 0.0134,-0.047 0.0134,-0.0605 0,-0.0403 -0.0134,-0.0605 -0.0134,-0.0235 -0.094,-0.0403 -0.0773,-0.0168 -0.23513,-0.0168 -0.16459,0 -0.16459,-0.0773 0,-0.0605 0.0235,-0.0907 0.0235,-0.0336 0.0504,-0.0403 0.0269,-0.007 0.084,-0.0134 l 0.67851,-0.0537 q 0.0403,-0.0134 0.11085,-0.0134 0.0974,0 0.0974,0.0806 0,0.0269 -0.0202,0.0907 l -0.98418,3.92662 q -0.0403,0.16459 -0.0403,0.3191 0,0.27879 0.17467,0.27879 0,0 0.003,0 0.25528,0 0.46018,-0.81622 0.0269,-0.11085 0.047,-0.13436 0.0235,-0.0235 0.084,-0.0235 0.10413,0 0.10413,0.0672 0,0.0134 -0.0269,0.12092 -0.0235,0.10749 -0.0739,0.27207 -0.0504,0.16459 -0.10748,0.28216 -0.18475,0.38628 -0.50049,0.38628 -0.19818,0 -0.35941,-0.12093 -0.15787,-0.12092 -0.21161,-0.36276 -0.393,0.48033 -0.8263,0.48369 -0.37957,0 -0.60798,-0.30567 -0.22505,-0.30902 -0.22505,-0.76248 z m 0.4669,0.3023 q 0,0.22841 0.084,0.41987 0.084,0.19146 0.29559,0.19146 0.25528,0 0.53072,-0.27879 0.27543,-0.28215 0.32246,-0.48369 l 0.32918,-1.32007 q 0.0202,-0.0605 0.0202,-0.0907 0,-0.22169 -0.13436,-0.44002 -0.131,-0.19818 -0.33925,-0.19818 -0.2049,0 -0.42323,0.22169 -0.21498,0.21833 -0.34598,0.54079 -0.10412,0.24185 -0.22169,0.71882 -0.11756,0.47697 -0.11756,0.71881 z"
         style="font-size:65%;font-family:'CMU Serif';-inkscape-font-specification:'CMU Serif';baseline-shift:sub"
         id="path468" />
      <path
         d="m 160.5559,166.66795 q 0,-0.84646 0.55087,-1.37717 0.55087,-0.53408 1.15548,-0.53408 0.31574,0 0.50385,0.16795 0.19146,0.16795 0.19146,0.41651 0,0.0336 -0.003,0.0739 -0.003,0.0369 -0.0302,0.13436 -0.0269,0.0941 -0.0806,0.17802 -0.0504,0.0806 -0.16459,0.17467 -0.1142,0.0907 -0.26535,0.15451 -0.38628,0.15115 -0.99761,0.15115 h -0.26536 q -0.11757,0.45346 -0.11757,0.75577 0,0.17131 0.0336,0.32582 0.0336,0.15115 0.15787,0.29223 0.12429,0.13771 0.32918,0.13771 0.11757,0 0.26536,-0.0235 0.14779,-0.0235 0.44674,-0.19146 0.29895,-0.16795 0.52736,-0.45682 0.0605,-0.0772 0.0907,-0.0772 0.0403,0 0.0739,0.0437 0.0336,0.0403 0.0336,0.0672 0,0.0672 -0.16795,0.24857 -0.16795,0.17802 -0.52736,0.36276 -0.35605,0.18139 -0.75576,0.18139 -0.4669,0 -0.72554,-0.35605 -0.25864,-0.35605 -0.25864,-0.84982 z m 0.63484,-0.61133 h 0.14444 q 0.10413,0 0.18474,-0.003 0.084,-0.003 0.26536,-0.0202 0.18138,-0.0168 0.3191,-0.0638 0.13772,-0.0504 0.28551,-0.12428 0.1478,-0.0773 0.22505,-0.21162 0.0806,-0.13436 0.0806,-0.30566 0,-0.17803 -0.11757,-0.29895 -0.1142,-0.12092 -0.31574,-0.12092 -0.047,0 -0.11084,0.0101 -0.0605,0.0101 -0.20826,0.0739 -0.14779,0.0605 -0.27207,0.17131 -0.12429,0.10749 -0.262,0.34261 -0.13436,0.23513 -0.21834,0.55087 z"
         style="font-size:65%;font-family:'CMU Serif';-inkscape-font-specification:'CMU Serif';baseline-shift:sub"
         id="path470" />
      <path
         d="m 163.34384,166.73849 q 0,-0.74905 0.54751,-1.36374 0.54751,-0.61805 1.19243,-0.61805 0.32246,0 0.53071,0.16795 0.20826,0.16795 0.20826,0.42323 0,0.18474 -0.10413,0.29895 -0.10413,0.1142 -0.24856,0.1142 -0.11085,0 -0.17467,-0.0638 -0.0605,-0.0672 -0.0605,-0.15787 0,-0.0134 0.003,-0.037 0.007,-0.0235 0.0235,-0.0739 0.0168,-0.0538 0.047,-0.0941 0.0302,-0.0403 0.10077,-0.0773 0.0739,-0.0403 0.1713,-0.0537 -0.11084,-0.29559 -0.49041,-0.29559 -0.24184,0 -0.48369,0.17802 -0.23848,0.17803 -0.41651,0.51056 -0.131,0.24857 -0.24856,0.69531 -0.1142,0.44674 -0.1142,0.72217 0,0.31575 0.13771,0.51057 0.13772,0.19481 0.40308,0.19481 0.11756,0 0.26536,-0.0235 0.14779,-0.0235 0.44674,-0.19146 0.29894,-0.16795 0.52735,-0.45682 0.0605,-0.0772 0.0907,-0.0772 0.0403,0 0.0739,0.0437 0.0336,0.0403 0.0336,0.0672 0,0.0672 -0.16795,0.24857 -0.16794,0.17802 -0.52735,0.36276 -0.35605,0.18139 -0.75577,0.18139 -0.45346,0 -0.73225,-0.31239 -0.27879,-0.31238 -0.27879,-0.82294 z"
         style="font-size:65%;font-family:'CMU Serif';-inkscape-font-specification:'CMU Serif';baseline-shift:sub"
         id="path472" />
    </g>
    <g
       aria-label="Sacc"
       id="text3253"
       style="font-size:8.46667px;line-height:1.25;font-family:'CMU Serif';-inkscape-font-specification:'CMU Serif, Normal';stroke-width:0.264583">
      <path
         d="m 32.524475,142.24376 q 0,-0.0165 0.02481,-0.11162 l 0.438216,-1.7694 q 0.02481,-0.0951 0.04961,-0.11989 0.02894,-0.0248 0.103353,-0.0248 0.128157,0 0.128157,0.0951 0,0.008 -0.0041,0.0248 -0.0041,0.0165 -0.0041,0.0248 -0.06615,0.24391 -0.07028,0.51677 0,0.60771 0.367936,0.8971 0.372071,0.28939 0.905372,0.28939 0.549837,0 0.979785,-0.51263 0.434082,-0.51263 0.434082,-1.10795 0,-0.37207 -0.186035,-0.60771 -0.103353,-0.11162 -0.21084,-0.1571 -0.103353,-0.0455 -0.44235,-0.14883 l -0.417546,-0.11575 q -0.305924,-0.0827 -0.363802,-0.11162 -0.673861,-0.3142 -0.673861,-1.10795 0,-0.7524 0.599447,-1.38906 0.599447,-0.63665 1.360124,-0.63665 0.764812,0 1.103809,0.57464 l 0.380339,-0.47129 q 0.08268,-0.10335 0.128157,-0.10335 0.09095,0 0.09095,0.0786 0,0.0579 -0.01654,0.12402 l -0.438216,1.75286 q -0.02481,0.10336 -0.05374,0.12816 -0.0248,0.0248 -0.09922,0.0248 -0.128158,0 -0.128158,-0.0827 l 0.0083,-0.11988 q 0.04134,-0.23565 0.04134,-0.46716 0,-0.5333 -0.239779,-0.86403 -0.239779,-0.33486 -0.789616,-0.33486 -0.533301,0 -0.954981,0.45888 -0.417546,0.45476 -0.417546,0.98806 0,0.5581 0.429948,0.74414 0.09509,0.0331 0.467155,0.13642 0.636654,0.18604 0.797885,0.26459 0.165364,0.0744 0.318327,0.26045 0.28112,0.34726 0.28112,0.86403 0,0.82269 -0.61185,1.51308 -0.607715,0.68627 -1.397331,0.68627 -0.897103,0 -1.293978,-0.58291 -0.227377,0.30592 -0.396875,0.47955 -0.08268,0.10336 -0.136426,0.10336 -0.09095,0 -0.09095,-0.0827 z"
         id="path475" />
      <path
         d="m 37.244189,143.04103 q 0,-0.59924 0.400389,-1.11787 0.403077,-0.52131 0.859897,-0.52131 0.314399,0 0.456819,0.32515 0.04299,-0.21497 0.220349,-0.21497 0.147794,0 0.147794,0.14242 0,0.0376 -0.0215,0.11554 l -0.373517,1.49676 q -0.03762,0.15317 -0.03762,0.28215 0,0.22304 0.139733,0.22304 0,0 0.0027,0 0.204226,0 0.368143,-0.65298 0.0215,-0.0887 0.03762,-0.10749 0.01881,-0.0188 0.06718,-0.0188 0.0833,0 0.0833,0.0537 0,0.0108 -0.0215,0.0967 -0.01881,0.086 -0.05912,0.21766 -0.04031,0.13167 -0.08599,0.22573 -0.147795,0.30902 -0.400389,0.30902 -0.158544,0 -0.287528,-0.0967 -0.126297,-0.0967 -0.169292,-0.29021 -0.3144,0.38426 -0.661045,0.38695 -0.303651,0 -0.486379,-0.24453 -0.180041,-0.24722 -0.180041,-0.60999 z m 0.373518,0.24184 q 0,0.18273 0.06718,0.3359 0.06718,0.15317 0.236471,0.15317 0.204226,0 0.427261,-0.22841 0.223036,-0.22841 0.260656,-0.39233 l 0.257969,-1.03993 q 0.01612,-0.0484 0.01612,-0.0726 0,-0.19347 -0.1048,-0.35471 -0.102112,-0.16123 -0.274091,-0.16123 -0.163918,0 -0.338585,0.17736 -0.171979,0.17466 -0.276779,0.43263 -0.0833,0.19348 -0.177353,0.57506 -0.09405,0.38158 -0.09405,0.57505 z"
         style="font-size:65%;baseline-shift:sub"
         id="path477" />
      <path
         d="m 40.065724,142.98729 q 0,-0.59925 0.438009,-1.091 0.43801,-0.49444 0.953948,-0.49444 0.257968,0 0.424573,0.13436 0.166605,0.13436 0.166605,0.33858 0,0.1478 -0.0833,0.23916 -0.0833,0.0914 -0.198851,0.0914 -0.08868,0 -0.139733,-0.0511 -0.04837,-0.0537 -0.04837,-0.1263 0,-0.0108 0.0027,-0.0296 0.0054,-0.0188 0.01881,-0.0591 0.01344,-0.043 0.03762,-0.0752 0.02419,-0.0323 0.08062,-0.0618 0.05912,-0.0323 0.137046,-0.043 -0.08868,-0.23648 -0.392328,-0.23648 -0.193477,0 -0.386953,0.14242 -0.19079,0.14243 -0.33321,0.40846 -0.1048,0.19885 -0.198851,0.55624 -0.09136,0.3574 -0.09136,0.57774 0,0.2526 0.110174,0.40845 0.110174,0.15586 0.322461,0.15586 0.09405,0 0.212287,-0.0188 0.118236,-0.0188 0.357394,-0.15317 0.239159,-0.13436 0.421887,-0.36545 0.04837,-0.0618 0.07255,-0.0618 0.03225,0 0.05912,0.0349 0.02687,0.0323 0.02687,0.0538 0,0.0537 -0.134358,0.19885 -0.134359,0.14242 -0.421887,0.29021 -0.284841,0.14511 -0.604615,0.14511 -0.362768,0 -0.585804,-0.24991 -0.223035,-0.2499 -0.223035,-0.65835 z"
         style="font-size:65%;baseline-shift:sub"
         id="path479" />
      <path
         d="m 42.317577,142.98729 q 0,-0.59925 0.438009,-1.091 0.43801,-0.49444 0.953948,-0.49444 0.257968,0 0.424573,0.13436 0.166605,0.13436 0.166605,0.33858 0,0.1478 -0.0833,0.23916 -0.0833,0.0914 -0.198851,0.0914 -0.08868,0 -0.139733,-0.0511 -0.04837,-0.0537 -0.04837,-0.1263 0,-0.0108 0.0027,-0.0296 0.0054,-0.0188 0.01881,-0.0591 0.01344,-0.043 0.03762,-0.0752 0.02418,-0.0323 0.08062,-0.0618 0.05912,-0.0323 0.137046,-0.043 -0.08868,-0.23648 -0.392328,-0.23648 -0.193477,0 -0.386953,0.14242 -0.19079,0.14243 -0.33321,0.40846 -0.1048,0.19885 -0.198851,0.55624 -0.09136,0.3574 -0.09136,0.57774 0,0.2526 0.110174,0.40845 0.110174,0.15586 0.322461,0.15586 0.09405,0 0.212287,-0.0188 0.118236,-0.0188 0.357394,-0.15317 0.239159,-0.13436 0.421887,-0.36545 0.04837,-0.0618 0.07255,-0.0618 0.03225,0 0.05912,0.0349 0.02687,0.0323 0.02687,0.0538 0,0.0537 -0.134358,0.19885 -0.134359,0.14242 -0.421887,0.29021 -0.284841,0.14511 -0.604615,0.14511 -0.362768,0 -0.585804,-0.24991 -0.223035,-0.2499 -0.223035,-0.65835 z"
         style="font-size:65%;baseline-shift:sub"
         id="path481" />
    </g>
    <g
       aria-label="Sconst"
       id="text3253-8"
       style="font-size:8.46667px;line-height:1.25;font-family:'CMU Serif';-inkscape-font-specification:'CMU Serif, Normal';stroke-width:0.264583">
      <path
         d="m 94.28372,142.24376 q 0,-0.0165 0.02481,-0.11162 l 0.438216,-1.7694 q 0.02481,-0.0951 0.04961,-0.11989 0.02894,-0.0248 0.103352,-0.0248 0.128158,0 0.128158,0.0951 0,0.008 -0.0041,0.0248 -0.0041,0.0165 -0.0041,0.0248 -0.06615,0.24391 -0.07028,0.51677 0,0.60771 0.367936,0.8971 0.372071,0.28939 0.905372,0.28939 0.549837,0 0.979785,-0.51263 0.434082,-0.51263 0.434082,-1.10795 0,-0.37207 -0.186035,-0.60771 -0.103353,-0.11162 -0.21084,-0.1571 -0.103353,-0.0455 -0.44235,-0.14883 l -0.417546,-0.11575 q -0.305925,-0.0827 -0.363802,-0.11162 -0.673861,-0.3142 -0.673861,-1.10795 0,-0.7524 0.599447,-1.38906 0.599447,-0.63665 1.360124,-0.63665 0.764811,0 1.103809,0.57464 l 0.380339,-0.47129 q 0.08268,-0.10335 0.128157,-0.10335 0.09095,0 0.09095,0.0786 0,0.0579 -0.01654,0.12402 l -0.438216,1.75286 q -0.02481,0.10336 -0.05374,0.12816 -0.02481,0.0248 -0.09922,0.0248 -0.128158,0 -0.128158,-0.0827 l 0.0083,-0.11988 q 0.04134,-0.23565 0.04134,-0.46716 0,-0.5333 -0.239779,-0.86403 -0.239779,-0.33486 -0.789616,-0.33486 -0.533301,0 -0.954981,0.45888 -0.417546,0.45476 -0.417546,0.98806 0,0.5581 0.429948,0.74414 0.09508,0.0331 0.467155,0.13642 0.636654,0.18604 0.797885,0.26459 0.165364,0.0744 0.318327,0.26045 0.28112,0.34726 0.28112,0.86403 0,0.82269 -0.61185,1.51308 -0.607715,0.68627 -1.397331,0.68627 -0.897103,0 -1.293978,-0.58291 -0.227377,0.30592 -0.396875,0.47955 -0.08268,0.10336 -0.136426,0.10336 -0.09095,0 -0.09095,-0.0827 z"
         id="path484" />
      <path
         d="m 99.014183,142.98729 q 0,-0.59925 0.438009,-1.091 0.43801,-0.49444 0.953948,-0.49444 0.25797,0 0.42457,0.13436 0.16661,0.13436 0.16661,0.33858 0,0.1478 -0.0833,0.23916 -0.0833,0.0914 -0.19886,0.0914 -0.0887,0 -0.13973,-0.0511 -0.0484,-0.0537 -0.0484,-0.1263 0,-0.0108 0.003,-0.0296 0.005,-0.0188 0.0188,-0.0591 0.0134,-0.043 0.0376,-0.0752 0.0242,-0.0323 0.0806,-0.0618 0.0591,-0.0323 0.13704,-0.043 -0.0887,-0.23648 -0.39233,-0.23648 -0.19347,0 -0.38695,0.14242 -0.190789,0.14243 -0.333209,0.40846 -0.1048,0.19885 -0.198851,0.55624 -0.09136,0.3574 -0.09136,0.57774 0,0.2526 0.110174,0.40845 0.110174,0.15586 0.322461,0.15586 0.09405,0 0.212289,-0.0188 0.11823,-0.0188 0.35739,-0.15317 0.23916,-0.13436 0.42189,-0.36545 0.0484,-0.0618 0.0726,-0.0618 0.0322,0 0.0591,0.0349 0.0269,0.0323 0.0269,0.0538 0,0.0537 -0.13436,0.19885 -0.13436,0.14242 -0.42188,0.29021 -0.28484,0.14511 -0.604617,0.14511 -0.362769,0 -0.585805,-0.24991 -0.223035,-0.2499 -0.223035,-0.65835 z"
         style="font-size:65%;baseline-shift:sub"
         id="path486" />
      <path
         d="m 101.26604,142.98729 q 0,-0.59925 0.43801,-1.091 0.43801,-0.49444 0.95394,-0.49444 0.3574,0 0.58043,0.2526 0.22304,0.25259 0.22304,0.65029 0,0.59924 -0.43801,1.09637 -0.43532,0.49444 -0.95395,0.49444 -0.35202,0 -0.57774,-0.24453 -0.22572,-0.24454 -0.22572,-0.66373 z m 0.38695,0.22034 q 0,0.27947 0.12092,0.42189 0.12092,0.14242 0.29559,0.14242 0.19885,0 0.38964,-0.15586 0.19348,-0.15585 0.31978,-0.39232 0.12092,-0.2311 0.2096,-0.58312 0.0887,-0.35202 0.0887,-0.55087 0,-0.24722 -0.11286,-0.40577 -0.11286,-0.16123 -0.31171,-0.16123 -0.16929,0 -0.35202,0.12899 -0.18004,0.12898 -0.33052,0.37083 -0.1263,0.21497 -0.22304,0.59118 -0.094,0.37352 -0.094,0.59386 z"
         style="font-size:65%;baseline-shift:sub"
         id="path488" />
      <path
         d="m 103.92903,142.24831 q 0,-0.0108 0.0215,-0.0941 0.0215,-0.086 0.0645,-0.22303 0.0457,-0.13974 0.0914,-0.23916 0.15048,-0.29022 0.38964,-0.29022 0.003,0 0.005,0 0.18272,0 0.30902,0.11824 0.1263,0.11823 0.15317,0.31708 0.0537,-0.0833 0.13436,-0.1666 0.0806,-0.0833 0.26334,-0.17467 0.18542,-0.0941 0.38964,-0.0941 0.24185,0 0.40577,0.13167 0.1666,0.13167 0.1666,0.4407 0,0.3359 -0.3359,1.22535 -0.0994,0.29828 -0.0994,0.41383 0,0.15854 0.12092,0.15854 0.30903,0 0.51325,-0.68792 0.0161,-0.0672 0.0296,-0.0779 0.0134,-0.0134 0.0618,-0.0134 0.0833,0 0.0833,0.0537 0,0.0161 -0.0215,0.0994 -0.0215,0.0833 -0.0779,0.21229 -0.0537,0.12898 -0.13167,0.24722 -0.0779,0.11823 -0.20154,0.20422 -0.12361,0.086 -0.26603,0.086 -0.19347,0 -0.30634,-0.1263 -0.11286,-0.12898 -0.11286,-0.3144 0,-0.12092 0.0887,-0.35202 0.31977,-0.91364 0.31977,-1.21729 0,-0.36277 -0.25259,-0.36277 -0.42457,0 -0.74435,0.5455 -0.094,0.15317 -0.16392,0.44339 -0.0107,0.0618 -0.0457,0.18004 -0.0322,0.11823 -0.043,0.18004 l -0.22035,0.8787 q -0.0538,0.14242 -0.19885,0.14511 -0.0779,0 -0.11555,-0.0457 -0.0376,-0.043 -0.0376,-0.0994 0,-0.0269 0.0161,-0.0752 l 0.41383,-1.65261 q 0.0376,-0.15317 0.0376,-0.27947 0,-0.22035 -0.14242,-0.22035 -0.12093,0 -0.20692,0.16661 -0.086,0.16392 -0.1666,0.48907 -0.0215,0.0887 -0.0376,0.10748 -0.0161,0.0188 -0.0672,0.0188 -0.0833,-0.003 -0.0833,-0.0564 z"
         style="font-size:65%;baseline-shift:sub"
         id="path490" />
      <path
         d="m 106.98166,143.3608 q 0,-0.16929 0.0833,-0.25528 0.086,-0.086 0.19616,-0.086 0.0887,0 0.13705,0.0511 0.0511,0.0484 0.0511,0.12361 0,0.0322 -0.008,0.0752 -0.008,0.0403 -0.0779,0.11286 -0.0699,0.0726 -0.19617,0.0833 0.0994,0.30634 0.52132,0.30634 0.003,0 0.008,0 0.15854,0 0.29021,-0.0457 0.13436,-0.0457 0.20691,-0.11824 0.0753,-0.0726 0.1263,-0.15854 0.0538,-0.0887 0.0726,-0.15854 0.0188,-0.0726 0.0188,-0.13436 0,-0.1048 -0.0403,-0.17736 -0.0376,-0.0752 -0.12092,-0.11823 -0.0806,-0.0457 -0.14511,-0.0645 -0.0618,-0.0188 -0.18273,-0.0457 -0.0725,-0.0161 -0.11824,-0.0269 -0.043,-0.0134 -0.12898,-0.0537 -0.0833,-0.043 -0.13436,-0.094 -0.0484,-0.0511 -0.0914,-0.14511 -0.0403,-0.0941 -0.0403,-0.21497 0,-0.2741 0.22035,-0.54281 0.22035,-0.27141 0.65029,-0.27141 0.26335,0 0.42458,0.13436 0.16392,0.13436 0.16392,0.33321 0,0.15854 -0.0752,0.2311 -0.0726,0.0726 -0.16123,0.0726 -0.0887,0 -0.12629,-0.0457 -0.0376,-0.0484 -0.0376,-0.10749 0,-0.0618 0.0511,-0.13704 0.0537,-0.0752 0.16929,-0.0914 -0.0779,-0.26872 -0.41382,-0.26872 -0.28484,0 -0.42189,0.17736 -0.13436,0.17466 -0.13436,0.32783 0,0.11018 0.0618,0.18004 0.0645,0.0672 0.12361,0.0914 0.0618,0.0215 0.1666,0.043 0.0941,0.0215 0.15586,0.0376 0.0645,0.0161 0.16929,0.0672 0.1048,0.0484 0.16661,0.11018 0.0645,0.0591 0.11286,0.1666 0.0511,0.10749 0.0511,0.24453 0,0.0887 -0.0296,0.19617 -0.0269,0.10749 -0.10212,0.23916 -0.0725,0.13167 -0.18272,0.23916 -0.11018,0.10748 -0.29828,0.18004 -0.18542,0.0725 -0.42189,0.0725 -0.30365,0 -0.50787,-0.14511 -0.20154,-0.14779 -0.20154,-0.38964 z"
         style="font-size:65%;baseline-shift:sub"
         id="path492" />
      <path
         d="m 109.30607,141.56577 q 0,-0.0725 0.0349,-0.0887 0.0376,-0.0161 0.12092,-0.0161 h 0.46757 l 0.21497,-0.87333 q 0.0538,-0.19885 0.21498,-0.19885 0.14779,0 0.14779,0.14242 0,0.0376 -0.0215,0.11555 l -0.20423,0.81421 h 0.4407 q 0.0537,0 0.0752,0.003 0.0242,0.003 0.043,0.0188 0.0188,0.0134 0.0188,0.0457 0,0.0725 -0.0376,0.0887 -0.0349,0.0161 -0.11555,0.0161 h -0.47025 l -0.40577,1.6338 q -0.0376,0.15317 -0.0376,0.28215 0,0.22304 0.14511,0.22304 0,0 0.003,0 0.2096,0 0.37083,-0.20691 0.16392,-0.2096 0.26065,-0.46757 0.0323,-0.0779 0.0457,-0.0914 0.0161,-0.0134 0.0645,-0.0134 0.0833,0 0.0833,0.0537 0,0.0161 -0.0322,0.0994 -0.0323,0.0833 -0.1048,0.21229 -0.0726,0.12898 -0.16661,0.24722 -0.0914,0.11823 -0.23647,0.20422 -0.14242,0.086 -0.29559,0.086 -0.2096,0 -0.33858,-0.14242 -0.12899,-0.14511 -0.12899,-0.35471 0,-0.0779 0.0269,-0.18541 l 0.39502,-1.58006 h -0.43801 q -0.0538,0 -0.0779,-0.003 -0.0215,-0.003 -0.043,-0.0161 -0.0188,-0.0161 -0.0188,-0.0484 z"
         style="font-size:65%;baseline-shift:sub"
         id="path494" />
    </g>
    <g
       aria-label="Sdec"
       id="text3253-2"
       style="font-size:8.46667px;line-height:1.25;font-family:'CMU Serif';-inkscape-font-specification:'CMU Serif, Normal';stroke-width:0.264583">
      <path
         d="m 153.87933,142.24376 q 0,-0.0165 0.0248,-0.11162 l 0.43821,-1.7694 q 0.0248,-0.0951 0.0496,-0.11989 0.0289,-0.0248 0.10336,-0.0248 0.12815,0 0.12815,0.0951 0,0.008 -0.004,0.0248 -0.004,0.0165 -0.004,0.0248 -0.0661,0.24391 -0.0703,0.51677 0,0.60771 0.36794,0.8971 0.37207,0.28939 0.90537,0.28939 0.54984,0 0.97979,-0.51263 0.43408,-0.51263 0.43408,-1.10795 0,-0.37207 -0.18604,-0.60771 -0.10335,-0.11162 -0.21084,-0.1571 -0.10335,-0.0455 -0.44235,-0.14883 l -0.41754,-0.11575 q -0.30593,-0.0827 -0.3638,-0.11162 -0.67386,-0.3142 -0.67386,-1.10795 0,-0.7524 0.59944,-1.38906 0.59945,-0.63665 1.36013,-0.63665 0.76481,0 1.10381,0.57464 l 0.38033,-0.47129 q 0.0827,-0.10335 0.12816,-0.10335 0.091,0 0.091,0.0786 0,0.0579 -0.0165,0.12402 l -0.43822,1.75286 q -0.0248,0.10336 -0.0537,0.12816 -0.0248,0.0248 -0.0992,0.0248 -0.12816,0 -0.12816,-0.0827 l 0.008,-0.11988 q 0.0413,-0.23565 0.0413,-0.46716 0,-0.5333 -0.23978,-0.86403 -0.23978,-0.33486 -0.78962,-0.33486 -0.5333,0 -0.95498,0.45888 -0.41754,0.45476 -0.41754,0.98806 0,0.5581 0.42995,0.74414 0.0951,0.0331 0.46715,0.13642 0.63665,0.18604 0.79789,0.26459 0.16536,0.0744 0.31832,0.26045 0.28112,0.34726 0.28112,0.86403 0,0.82269 -0.61185,1.51308 -0.60771,0.68627 -1.39733,0.68627 -0.8971,0 -1.29398,-0.58291 -0.22737,0.30592 -0.39687,0.47955 -0.0827,0.10336 -0.13643,0.10336 -0.0909,0 -0.0909,-0.0827 z"
         id="path497" />
      <path
         d="m 158.59905,143.04103 q 0,-0.59924 0.40038,-1.11787 0.40308,-0.52131 0.8599,-0.52131 0.30903,0 0.4622,0.31978 l 0.31977,-1.28985 0.005,-0.043 q 0.0108,-0.0376 0.0108,-0.0484 0,-0.0323 -0.0108,-0.0484 -0.0108,-0.0188 -0.0752,-0.0322 -0.0618,-0.0134 -0.1881,-0.0134 -0.13167,0 -0.13167,-0.0618 0,-0.0484 0.0188,-0.0726 0.0188,-0.0269 0.0403,-0.0323 0.0215,-0.005 0.0672,-0.0108 l 0.54281,-0.043 q 0.0322,-0.0108 0.0887,-0.0108 0.0779,0 0.0779,0.0645 0,0.0215 -0.0161,0.0726 l -0.78735,3.14131 q -0.0322,0.13167 -0.0322,0.25528 0,0.22304 0.13973,0.22304 0,0 0.003,0 0.20422,0 0.36814,-0.65298 0.0215,-0.0887 0.0376,-0.10749 0.0188,-0.0188 0.0672,-0.0188 0.0833,0 0.0833,0.0537 0,0.0108 -0.0215,0.0967 -0.0188,0.086 -0.0591,0.21766 -0.0403,0.13167 -0.086,0.22573 -0.1478,0.30902 -0.40039,0.30902 -0.15854,0 -0.28753,-0.0967 -0.12629,-0.0967 -0.16929,-0.29021 -0.3144,0.38426 -0.66104,0.38695 -0.30366,0 -0.48638,-0.24453 -0.18004,-0.24722 -0.18004,-0.60999 z m 0.37351,0.24184 q 0,0.18273 0.0672,0.3359 0.0672,0.15317 0.23647,0.15317 0.20423,0 0.42458,-0.22304 0.22035,-0.22572 0.25797,-0.38695 l 0.26334,-1.05606 q 0.0161,-0.0484 0.0161,-0.0725 0,-0.17736 -0.10748,-0.35202 -0.1048,-0.15855 -0.27141,-0.15855 -0.16392,0 -0.33858,0.17736 -0.17198,0.17466 -0.27678,0.43263 -0.0833,0.19348 -0.17736,0.57506 -0.0941,0.38158 -0.0941,0.57505 z"
         style="font-size:65%;baseline-shift:sub"
         id="path499" />
      <path
         d="m 161.44208,142.93085 q 0,-0.67716 0.44069,-1.10174 0.4407,-0.42726 0.92439,-0.42726 0.2526,0 0.40308,0.13436 0.15317,0.13436 0.15317,0.33321 0,0.0269 -0.003,0.0591 -0.003,0.0296 -0.0242,0.10748 -0.0215,0.0752 -0.0645,0.14243 -0.0403,0.0645 -0.13167,0.13973 -0.0914,0.0725 -0.21228,0.12361 -0.30903,0.12092 -0.7981,0.12092 h -0.21228 q -0.0941,0.36277 -0.0941,0.60462 0,0.13704 0.0269,0.26065 0.0269,0.12092 0.1263,0.23379 0.0994,0.11017 0.26334,0.11017 0.094,0 0.21229,-0.0188 0.11823,-0.0188 0.35739,-0.15317 0.23916,-0.13436 0.42189,-0.36545 0.0484,-0.0618 0.0726,-0.0618 0.0323,0 0.0591,0.0349 0.0269,0.0323 0.0269,0.0538 0,0.0537 -0.13436,0.19885 -0.13436,0.14242 -0.42189,0.29021 -0.28484,0.14511 -0.60461,0.14511 -0.37352,0 -0.58043,-0.28484 -0.20691,-0.28484 -0.20691,-0.67986 z m 0.50787,-0.48906 h 0.11555 q 0.0833,0 0.1478,-0.003 0.0672,-0.003 0.21228,-0.0161 0.14511,-0.0134 0.25529,-0.0511 0.11017,-0.0403 0.22841,-0.0994 0.11823,-0.0618 0.18004,-0.1693 0.0645,-0.10748 0.0645,-0.24453 0,-0.14242 -0.094,-0.23916 -0.0914,-0.0967 -0.2526,-0.0967 -0.0376,0 -0.0887,0.008 -0.0484,0.008 -0.16661,0.0591 -0.11823,0.0484 -0.21766,0.13705 -0.0994,0.086 -0.2096,0.27409 -0.10749,0.1881 -0.17467,0.4407 z"
         style="font-size:65%;baseline-shift:sub"
         id="path501" />
      <path
         d="m 163.67243,142.98729 q 0,-0.59925 0.43801,-1.091 0.43801,-0.49444 0.95395,-0.49444 0.25797,0 0.42457,0.13436 0.16661,0.13436 0.16661,0.33858 0,0.1478 -0.0833,0.23916 -0.0833,0.0914 -0.19885,0.0914 -0.0887,0 -0.13974,-0.0511 -0.0484,-0.0537 -0.0484,-0.1263 0,-0.0108 0.003,-0.0296 0.005,-0.0188 0.0188,-0.0591 0.0134,-0.043 0.0376,-0.0752 0.0242,-0.0323 0.0806,-0.0618 0.0591,-0.0323 0.13704,-0.043 -0.0887,-0.23648 -0.39233,-0.23648 -0.19347,0 -0.38695,0.14242 -0.19079,0.14243 -0.33321,0.40846 -0.1048,0.19885 -0.19885,0.55624 -0.0914,0.3574 -0.0914,0.57774 0,0.2526 0.11017,0.40845 0.11017,0.15586 0.32246,0.15586 0.0941,0 0.21229,-0.0188 0.11823,-0.0188 0.35739,-0.15317 0.23916,-0.13436 0.42189,-0.36545 0.0484,-0.0618 0.0726,-0.0618 0.0323,0 0.0591,0.0349 0.0269,0.0323 0.0269,0.0538 0,0.0537 -0.13436,0.19885 -0.13435,0.14242 -0.42188,0.29021 -0.28484,0.14511 -0.60462,0.14511 -0.36277,0 -0.5858,-0.24991 -0.22304,-0.2499 -0.22304,-0.65835 z"
         style="font-size:65%;baseline-shift:sub"
         id="path503" />
    </g>
    <path
       style="fill:none;stroke:#000000;stroke-width:0.565;stroke-linecap:butt;stroke-linejoin:miter;stroke-dasharray:none;stroke-opacity:1"
       d="m 45.224844,104.11871 v 8.98613 l -5.172425,0"
       id="path506"
       sodipodi:nodetypes="ccc" />
    <g
       id="g766"
       transform="translate(-0.89680667,1.9590585)">
      <g
         aria-label="v"
         id="text2752-1"
         style="font-size:6.35px;line-height:1.25;stroke-width:0.264583">
        <path
           d="m 51.746323,107.30991 q 0,-0.0186 0.0248,-0.11162 0.02481,-0.0961 0.08992,-0.24494 0.06821,-0.15193 0.15503,-0.28836 0.08682,-0.13642 0.232544,-0.23254 0.145727,-0.0992 0.310058,-0.0992 0.21084,0 0.347266,0.13953 0.136426,0.13952 0.136426,0.37517 0,0.0961 -0.07131,0.31626 -0.375171,0.99838 -0.375171,1.37666 0,0.20463 0.09302,0.36587 0.09302,0.16123 0.322461,0.16123 0.254248,0 0.465088,-0.24495 0.21394,-0.24805 0.325561,-0.57671 0.114722,-0.33176 0.173633,-0.59221 0.06201,-0.26045 0.06201,-0.35657 0,-0.31626 -0.170533,-0.50229 -0.08371,-0.0961 -0.08371,-0.17054 0,-0.10852 0.09922,-0.19843 0.09922,-0.093 0.20774,-0.093 0.133325,0 0.195336,0.11782 0.06511,0.11782 0.06511,0.30076 0,0.0775 -0.04031,0.31936 -0.03721,0.23874 -0.136426,0.61391 -0.09612,0.37518 -0.241845,0.71004 -0.142627,0.33176 -0.393775,0.57361 -0.248047,0.24184 -0.548803,0.24184 -0.322461,0 -0.551905,-0.17983 -0.229443,-0.18294 -0.229443,-0.58291 0,-0.32866 0.325561,-1.21853 0.151929,-0.42478 0.151929,-0.57361 0,-0.18293 -0.139526,-0.18293 -0.381372,0 -0.589112,0.79995 -0.0186,0.0713 -0.04031,0.0868 -0.0186,0.0155 -0.07441,0.0155 -0.09612,-0.003 -0.09612,-0.0651 z"
           style="font-family:'CMU Serif';-inkscape-font-specification:'CMU Serif'"
           id="path507" />
      </g>
      <g
         id="use34-2"
         transform="matrix(0.352778,0,0,0.352778,47.508753,109.18956)"
         style="fill:#000000;fill-opacity:1">
        <path
           d="m 6.984375,-11.875 c -0.125,-0.296875 -0.203125,-0.296875 -0.34375,-0.296875 -0.203125,0 -0.21875,0.03125 -0.34375,0.28125 L 0.71875,-0.296875 C 0.703125,-0.265625 0.640625,-0.109375 0.640625,-0.09375 0.640625,-0.015625 0.65625,0 0.96875,0 H 12.3125 c 0.3125,0 0.328125,-0.015625 0.328125,-0.09375 0,-0.015625 -0.07813,-0.171875 -0.09375,-0.203125 z m -0.765625,1.015625 4.765625,9.890625 h -9.5625 z m 0,0"
           id="path70-5" />
      </g>
    </g>
    <g
       id="g772"
       transform="translate(-0.79205083,0.07817986)">
      <g
         aria-label="t"
         id="text2752"
         style="font-size:6.35px;line-height:1.25;stroke-width:0.264583">
        <path
           d="m 45.154266,115.76634 q 0,-0.0837 0.04031,-0.10232 0.04341,-0.0186 0.139527,-0.0186 h 0.539502 l 0.248046,-1.00769 q 0.06201,-0.22944 0.248047,-0.22944 0.170532,0 0.170532,0.16433 0,0.0434 -0.0248,0.13333 l -0.235645,0.93947 h 0.508496 q 0.06201,0 0.08682,0.003 0.02791,0.003 0.04961,0.0217 0.0217,0.0155 0.0217,0.0527 0,0.0837 -0.04341,0.10232 -0.04031,0.0186 -0.133325,0.0186 h -0.542603 l -0.468188,1.88516 q -0.04341,0.17673 -0.04341,0.32556 0,0.25735 0.167431,0.25735 0,0 0.0031,0 0.241846,0 0.427881,-0.23875 0.189135,-0.24184 0.300757,-0.5395 0.03721,-0.0899 0.05271,-0.10542 0.0186,-0.0155 0.07441,-0.0155 0.09612,0 0.09612,0.062 0,0.0186 -0.03721,0.11472 -0.03721,0.0961 -0.120923,0.24495 -0.08372,0.14883 -0.192236,0.28525 -0.10542,0.13643 -0.272852,0.23565 -0.164331,0.0992 -0.341064,0.0992 -0.241846,0 -0.390674,-0.16434 -0.148828,-0.16743 -0.148828,-0.40927 0,-0.0899 0.03101,-0.21394 l 0.455787,-1.82315 h -0.505396 q -0.06201,0 -0.08992,-0.003 -0.02481,-0.003 -0.04961,-0.0186 -0.0217,-0.0186 -0.0217,-0.0558 z"
           style="font-family:'CMU Serif';-inkscape-font-specification:'CMU Serif'"
           id="path510" />
      </g>
      <g
         id="use34-2-6"
         transform="matrix(0.352778,0,0,0.352778,40.151296,118.48796)"
         style="fill:#000000;fill-opacity:1">
        <path
           d="m 6.984375,-11.875 c -0.125,-0.296875 -0.203125,-0.296875 -0.34375,-0.296875 -0.203125,0 -0.21875,0.03125 -0.34375,0.28125 L 0.71875,-0.296875 C 0.703125,-0.265625 0.640625,-0.109375 0.640625,-0.09375 0.640625,-0.015625 0.65625,0 0.96875,0 H 12.3125 c 0.3125,0 0.328125,-0.015625 0.328125,-0.09375 0,-0.015625 -0.07813,-0.171875 -0.09375,-0.203125 z m -0.765625,1.015625 4.765625,9.890625 h -9.5625 z m 0,0"
           id="path70-5-9" />
      </g>
    </g>
    <g
       id="g600"
       transform="translate(62.251285,103.97969)">
      <g
         fill="#000000"
         fill-opacity="1"
         id="g36"
         transform="matrix(0.352778,0,0,0.352778,-0.42168,0.144948)">
        <g
           id="use34"
           transform="translate(1.196,11.761)">
          <path
             d="m 6.984375,-11.875 c -0.125,-0.296875 -0.203125,-0.296875 -0.34375,-0.296875 -0.203125,0 -0.21875,0.03125 -0.34375,0.28125 L 0.71875,-0.296875 C 0.703125,-0.265625 0.640625,-0.109375 0.640625,-0.09375 0.640625,-0.015625 0.65625,0 0.96875,0 H 12.3125 c 0.3125,0 0.328125,-0.015625 0.328125,-0.09375 0,-0.015625 -0.07813,-0.171875 -0.09375,-0.203125 z m -0.765625,1.015625 4.765625,9.890625 h -9.5625 z m 0,0"
             id="path70" />
        </g>
      </g>
      <g
         fill="#000000"
         fill-opacity="1"
         id="g40"
         transform="matrix(0.352778,0,0,0.352778,-0.42168,0.144948)">
        <g
           id="use38"
           transform="translate(14.487,11.761)">
          <path
             d="m 7.875,-6.4375 c 0,-1.09375 -0.5625,-1.15625 -0.6875,-1.15625 -0.421875,0 -0.796875,0.40625 -0.796875,0.765625 0,0.203125 0.125,0.3125 0.1875,0.390625 0.171875,0.15625 0.625,0.625 0.625,1.515625 0,0.71875 -1.03125,4.75 -3.109375,4.75 -1.046875,0 -1.25,-0.875 -1.25,-1.515625 0,-0.859375 0.390625,-2.0625 0.859375,-3.3125 0.28125,-0.703125 0.34375,-0.875 0.34375,-1.21875 0,-0.71875 -0.515625,-1.375 -1.359375,-1.375 -1.578125,0 -2.21875,2.5 -2.21875,2.640625 0,0.0625 0.0625,0.15625 0.1875,0.15625 0.15625,0 0.171875,-0.078125 0.234375,-0.3125 C 1.3125,-6.59375 1.984375,-7.25 2.640625,-7.25 c 0.15625,0 0.4375,0 0.4375,0.5625 0,0.453125 -0.1875,0.953125 -0.4375,1.609375 C 1.8125,-2.875 1.8125,-2.34375 1.8125,-1.921875 c 0,0.375 0.046875,1.078125 0.578125,1.5625 0.625,0.53125 1.484375,0.53125 1.640625,0.53125 2.859375,0 3.84375,-5.625 3.84375,-6.609375 z m 0,0"
             id="path74" />
        </g>
      </g>
      <path
         fill="none"
         stroke-width="0.956"
         stroke-linecap="butt"
         stroke-linejoin="miter"
         stroke="#000000"
         stroke-opacity="1"
         stroke-miterlimit="10"
         d="M 0,15.735094 H 22.058593"
         id="path42"
         transform="scale(0.352778)" />
      <g
         clip-path="url(#clipPath8521)"
         id="g48"
         transform="matrix(0.352778,0,0,0.352778,-0.42168,0.144948)">
        <g
           fill="#000000"
           fill-opacity="1"
           id="g46">
          <g
             id="use44"
             transform="translate(2.5350001,30.068001)">
            <path
               d="m 6.984375,-11.875 c -0.125,-0.296875 -0.203125,-0.296875 -0.34375,-0.296875 -0.203125,0 -0.21875,0.03125 -0.34375,0.28125 L 0.71875,-0.296875 C 0.703125,-0.265625 0.640625,-0.109375 0.640625,-0.09375 0.640625,-0.015625 0.65625,0 0.96875,0 H 12.3125 c 0.3125,0 0.328125,-0.015625 0.328125,-0.09375 0,-0.015625 -0.07813,-0.171875 -0.09375,-0.203125 z m -0.765625,1.015625 4.765625,9.890625 h -9.5625 z m 0,0"
               id="path78" />
          </g>
        </g>
      </g>
      <g
         clip-path="url(#clipPath2236)"
         id="g54"
         transform="matrix(0.352778,0,0,0.352778,-0.42168,0.144948)">
        <g
           fill="#000000"
           fill-opacity="1"
           id="g52">
          <g
             id="use50"
             transform="translate(15.827,30.068001)">
            <path
               d="m 3.46875,-6.921875 h 1.578125 c 0.328125,0 0.5,0 0.5,-0.3125 0,-0.1875 -0.109375,-0.1875 -0.453125,-0.1875 H 3.578125 L 4.21875,-9.9375 c 0.0625,-0.234375 0.0625,-0.265625 0.0625,-0.390625 0,-0.28125 -0.21875,-0.4375 -0.4375,-0.4375 -0.140625,0 -0.53125,0.0625 -0.671875,0.609375 L 2.5,-7.421875 H 0.875 c -0.34375,0 -0.5,0 -0.5,0.328125 0,0.171875 0.125,0.171875 0.453125,0.171875 h 1.53125 L 1.21875,-2.375 c -0.140625,0.59375 -0.1875,0.78125 -0.1875,1 0,0.8125 0.5625,1.546875 1.53125,1.546875 1.75,0 2.671875,-2.515625 2.671875,-2.640625 0,-0.09375 -0.0625,-0.15625 -0.171875,-0.15625 -0.03125,0 -0.109375,0 -0.140625,0.078125 -0.015625,0.015625 -0.03125,0.03125 -0.15625,0.3125 -0.359375,0.859375 -1.15625,2.0625 -2.140625,2.0625 -0.53125,0 -0.5625,-0.4375 -0.5625,-0.8125 0,-0.015625 0,-0.34375 0.0625,-0.546875 z m 0,0"
               id="path82" />
          </g>
        </g>
      </g>
      <g
         fill="#000000"
         fill-opacity="1"
         id="g58"
         transform="matrix(0.352778,0,0,0.352778,-0.42168,0.144948)">
        <g
           id="use56"
           transform="translate(31.334999,21.52)">
          <path
             d="m 15.9375,-7.953125 c 0.375,0 0.734375,0 0.734375,-0.421875 0,-0.453125 -0.421875,-0.453125 -0.84375,-0.453125 H 1.984375 c -0.421875,0 -0.84375,0 -0.84375,0.453125 0,0.421875 0.375,0.421875 0.75,0.421875 z m -0.109375,4.40625 c 0.421875,0 0.84375,0 0.84375,-0.4375 0,-0.421875 -0.359375,-0.421875 -0.734375,-0.421875 H 1.890625 c -0.375,0 -0.75,0 -0.75,0.421875 0,0.4375 0.421875,0.4375 0.84375,0.4375 z m 0,0"
             id="path86" />
        </g>
      </g>
      <g
         clip-path="url(#clipPath3362)"
         id="g64"
         transform="matrix(0.352778,0,0,0.352778,-0.42168,0.144948)">
        <g
           fill="#000000"
           fill-opacity="1"
           id="g62">
          <g
             id="use60"
             transform="translate(56.063,21.52)">
            <path
               d="m 7.453125,-2.953125 c -0.125,0.421875 -0.125,0.46875 -0.46875,0.953125 -0.546875,0.6875 -1.625,1.75 -2.796875,1.75 -1.015625,0 -1.578125,-0.921875 -1.578125,-2.375 0,-1.359375 0.765625,-4.140625 1.234375,-5.1875 0.84375,-1.734375 2,-2.625 2.96875,-2.625 1.640625,0 1.953125,2.03125 1.953125,2.234375 0,0.03125 -0.0625,0.34375 -0.09375,0.390625 z m 1.59375,-6.34375 c -0.28125,-0.640625 -0.9375,-1.625 -2.234375,-1.625 -2.796875,0 -5.828125,3.609375 -5.828125,7.28125 0,2.453125 1.4375,3.890625 3.125,3.890625 1.375,0 2.53125,-1.0625 3.21875,-1.890625 C 7.578125,-0.171875 8.75,0.25 9.484375,0.25 c 0.75,0 1.34375,-0.453125 1.796875,-1.34375 0.390625,-0.84375 0.734375,-2.34375 0.734375,-2.453125 0,-0.125 -0.09375,-0.21875 -0.25,-0.21875 -0.21875,0 -0.25,0.125 -0.34375,0.5 C 11.046875,-1.8125 10.578125,-0.25 9.5625,-0.25 c -0.71875,0 -0.765625,-0.640625 -0.765625,-1.140625 0,-0.5625 0.078125,-0.84375 0.296875,-1.8125 0.171875,-0.609375 0.296875,-1.15625 0.5,-1.875 0.90625,-3.71875 1.140625,-4.609375 1.140625,-4.765625 0,-0.34375 -0.28125,-0.609375 -0.640625,-0.609375 -0.796875,0 -1,0.859375 -1.046875,1.15625 z m 0,0"
               id="path90" />
          </g>
        </g>
      </g>
    </g>
  </g>
</svg>
